<?xml version="1.0" encoding="UTF-8"?>
<svg id="Layer_2" data-name="Layer 2" xmlns="http://www.w3.org/2000/svg" viewBox="0 0 1069.47 1069.47">
  <defs>
    <style>
      .cls-1 {
        fill: none;
        stroke: #1a1a1a;
        stroke-miterlimit: 10;
        stroke-width: 40px;
      }

      .cls-2 {
        fill: #1a1a1a;
      }
    </style>
  </defs>
  <g>
    <path class="cls-2" d="M199.42,726.48c16.65-16.16,33.5-19.56,52.2-25,31.29-9.1,60.14-25.64,90.34-38.11,86.04-35.51,95.44-42.35,101.82-35.55,10.26,10.94-3.73,39.59-42.06,134.69-50.52,125.35-57.72,153.76-84.7,158.86-36.62,6.92-79.69-34.79-87.91-43.11-13.72-13.91-22.07-27.75-28.83-38.95-16.13-26.75-27.41-45.43-25.26-68.05,2.2-23.25,17.38-37.98,24.4-44.79Z"/>
    <path class="cls-2" d="M501.66,668.07c-24.66,10.01-34.51,37.24-57.41,85.89-21.38,45.41-32.06,68.11-42.03,84.28-16.84,27.32-27.35,38.33-30.65,61.7-1.17,8.25-4.94,34.88,10.8,55.49,3.88,5.08,14.47,17.05,55.94,25.35,42.82,8.57,94.8,18.97,123.07-10.94,14.15-14.97,16.3-33.62,18.48-52.4,3.61-31.21-5.3-40.04-23.05-112.06-16.87-68.42-25.3-102.63-25.17-106.58.23-6.95,1.36-25.52-8.76-31.74-7.3-4.49-17.26-.59-21.2,1.01Z"/>
    <path class="cls-2" d="M168.52,471.83c-7.62-1-41.02-4.53-62.74,18.77-13.31,14.28-15.14,31.03-18.25,59.59-2.4,22.03-7.08,70.56,18.59,112.91,9.46,15.6,17.75,21.66,21.44,24.08,17.39,11.39,36.52,10.06,50.74,7.74,54.03-8.82,66.35-36.77,133.13-62.75,0,0,55.84-21.73,89.2-54.11,2.13-2.07,6.96-6.99,6.5-13.18-.81-10.98-17.74-18.77-31.59-24.45-33.45-13.73-50.17-20.59-74.81-23.37-29.04-3.28-72.26-13.54-132.2-45.21Z"/>
    <path class="cls-2" d="M193.7,260.34c-24.61-4.46-71,68.92-51.85,125.63,6.72,19.9,19.8,32.7,25.95,38.59,16.74,16.03,30.6,18.76,74.47,32.07,38.49,11.68,78.36,18.14,115.89,33.22,7.69,3.09,28.21,11.68,47.89,3.7,5.87-2.38,8.81-3.57,10.1-6.32,9.38-20.03-76.46-75.45-143.1-148.33-21.08-23.06-47.26-41.05-65.87-66.37-4.59-6.24-7.81-11.16-13.48-12.18Z"/>
    <path class="cls-2" d="M568.89,665.65c-8.98,5.6,6.58,34.44,29.64,133.69,12.22,52.56,16.09,79.91,38.45,113.65,12.17,18.37,26.75,40.37,50.35,45.21,24.87,5.11,46.97-11.45,73.66-31.43,21.73-16.27,32.59-24.4,34.44-34.39,5.86-31.65-48.64-57.56-134.24-140.61-59.03-57.27-82.11-92.48-92.3-86.13Z"/>
  </g>
  <g>
    <path class="cls-1" d="M902.66,166.81C703.89-31.96,378.11-28.45,175,174.66l719.81,719.81c203.11-203.11,206.62-528.89,7.85-727.66Z"/>
    <path class="cls-1" d="M166.67,902.8c198.77,198.77,524.77,195.04,728.14-8.33L175,174.66c-203.37,203.37-207.1,529.37-8.33,728.14Z"/>
  </g>
  <g>
    <g>
      <path class="cls-2" d="M908.47,784.81c-1.88,0-3.72-.58-5.48-1.72-3.84-2.5-8.57-7.17-14.07-13.89l-5.3-6.49-9.45-12.6-9.66-11.3-10.79-13.7-10.62-11.52-4.99-6.48c-2.02-2.62-4.08-5.16-6.68-8.23l-5.7-6.73-7.97-10.35-9.41-11.42-11.08-13.49-10.05-11.65-13.23-16.63c-4.31-5.42-8.06-12.26-3.26-21.99l.06-.12c.98-1.98,2.45-4.98,5.79-5.92l14.34-4.07,12.89-2.75,13.67-2.74,13.66-2.53,16.2-3.03,12.66-2.54,55.36-10.61,19.49-3.49,21.96-3.86,9.21-1.56c1.38-.23,2.67-.49,3.89-.74,2.9-.58,5.41-1.08,7.89-1.08,5.24,0,9.29,2.41,13.14,7.8l.42.58.04.72c.36,5.94-.42,11.59-1.17,17.05-.27,1.93-.54,3.92-.76,5.89l-1.41,12.66-4.57,23.47-5.29,20.85c-.34,1.34-.59,2.69-.86,4.12-.56,3.01-1.13,6.13-2.59,9.17-2.09,4.36-3.25,8.81-4.49,13.52l-.54,2.07-5.87,13.2c-1.42,3.19-2.61,6.43-3.76,9.55-1.15,3.11-2.33,6.33-3.76,9.56l-3.86,8.75-8.15,16.71-10.11,17.48-4.29,6.69-2.89,5.88-7.33,10.18c-3.46,4.81-7.34,7.35-11.25,7.35ZM844.73,680.01l11.15,13.08c1.21,1.42,2.29,2.86,3.34,4.26,1.97,2.63,3.84,5.11,6.38,7.25,1.49,1.26,2.5,3.03,3.39,4.59.47.83.91,1.61,1.35,2.17l10.78,13.98c1.09,1.42,2.48,2.77,3.95,4.21,2.67,2.6,5.43,5.3,6.95,8.87.05.12.1.22.14.3.86-.53,3.62-3.04,9.49-14.81l6.48-12.99,8.69-17.91,2.92-8.62,3.17-5.35,5.44-16.01,2.43-5.95,2.7-9.53,2.01-7.71.09-.2c2.41-5.23,3.54-10.25,3.47-15.33v-.39s.11-.37.11-.37c2.97-9.78,5.01-20.15,6.24-31.69.08-.75.12-1.33.15-1.79-.21.03-.42.06-.58.09l-7.54,1.34-45.63,8.49-8.2,1.6-13.9,2.5-32.05,6.14-30.63,6.39-11.87,1.87s4.11,5.88,4.11,5.88l8.77,9.65,9.1,12.34,10.26,12.36,6.94,9.03,10.4,12.3Z"/>
      <path class="cls-2" d="M977.8,564.05c3.95,0,7.35,1.5,11.11,6.75.47,7.74-1.08,14.94-1.92,22.52l-1.4,12.56-4.53,23.3-5.28,20.79c-1.09,4.28-1.32,8.73-3.28,12.83-2.47,5.15-3.66,10.24-5.14,15.84l-5.79,13.01c-2.87,6.45-4.69,12.72-7.52,19.12l-3.86,8.75-8.07,16.54-10,17.31-4.37,6.81-2.86,5.81-7.2,10.01c-1.96,2.73-5.25,6.31-9.22,6.31-1.31,0-2.68-.39-4.12-1.32-4.54-2.95-9.69-8.73-13.5-13.38l-5.24-6.41-9.5-12.67-9.65-11.28-10.85-13.78-10.61-11.51-4.92-6.39c-2.22-2.89-4.39-5.53-6.75-8.32l-5.63-6.64-7.97-10.35-9.47-11.48-11.08-13.48-10.08-11.7-13.16-16.55c-4.83-6.07-6.76-11.66-2.98-19.33.85-1.73,1.97-4.09,4.29-4.75l14.26-4.05,12.81-2.73,13.64-2.74,13.62-2.53,16.2-3.03,12.69-2.55,55.34-10.6,19.46-3.48,21.96-3.86,9.19-1.56c4.49-.76,8.11-1.78,11.37-1.78M891.89,741.33c3.49,0,8.77-9.85,12-16.33l6.48-12.99,8.77-18.08,2.89-8.53,3.17-5.34,5.5-16.19,2.45-6,2.74-9.66,1.97-7.54c2.37-5.14,3.78-10.6,3.7-16.42,3.22-10.61,5.16-21.13,6.33-32.15.14-1.29.29-3.2.08-4.13-.09-.38-.72-.49-1.44-.49s-1.59.12-2,.2l-7.54,1.34-45.65,8.49-8.22,1.6-13.87,2.5-22.29,4.27-9.79,1.87-30.55,6.38-11.93,1.88c-.68.11-2.8,1.03-2.68,1.66.12.63.62,1.58,1.15,2.34l4.12,5.91,8.79,9.67,9.07,12.29,10.31,12.42,6.92,9,10.44,12.34,11.16,13.08c3.41,4,5.83,8.28,10.01,11.8,1.86,1.57,2.95,4.55,4.36,6.38l10.78,13.98c3.21,4.17,8.48,7.57,10.58,12.52.58,1.37,1.33,1.96,2.18,1.96M977.8,559.05h0c-2.73,0-5.48.55-8.39,1.13-1.22.24-2.49.5-3.82.72l-9.19,1.56-21.99,3.87-19.47,3.49h-.03s-.03.01-.03.01l-55.34,10.6-12.7,2.55-16.17,3.02-13.61,2.53h-.04s-.04.01-.04.01l-13.64,2.74h-.03s-.03.01-.03.01l-12.81,2.73-.16.03-.16.05-14.26,4.05c-4.41,1.25-6.33,5.14-7.36,7.23l-.06.12c-5.45,11.04-.96,18.98,3.55,24.65l13.16,16.56.06.08.06.08,10.04,11.65,11.05,13.44,9.42,11.42,7.92,10.29.07.09.08.09,5.63,6.64c2.56,3.02,4.6,5.53,6.61,8.14l4.92,6.39.13.18.15.16,10.48,11.37,10.73,13.63.06.08.07.08,9.54,11.16,9.4,12.54.06.08.07.08,5.24,6.41c5.74,7.02,10.53,11.73,14.64,14.41,2.17,1.41,4.47,2.13,6.84,2.13,3.3,0,8.29-1.46,13.27-8.39l7.2-10.01.24-.34.18-.37,2.74-5.56,4.21-6.57.06-.1.06-.1,10-17.31.09-.15.08-.16,8.07-16.54.04-.09.04-.09,3.86-8.75c1.46-3.3,2.66-6.56,3.82-9.71,1.19-3.23,2.31-6.28,3.7-9.4l5.79-13.01.16-.37.1-.39c.17-.63.33-1.26.49-1.88,1.25-4.79,2.34-8.94,4.32-13.08,1.6-3.34,2.23-6.77,2.79-9.79.26-1.39.5-2.71.82-3.96l5.28-20.79.03-.14.03-.14,4.53-23.3.04-.2.02-.2,1.4-12.56c.22-1.94.49-3.92.75-5.83.77-5.59,1.57-11.36,1.19-17.55l-.09-1.43-.84-1.17c-4.37-6.12-9.05-8.85-15.18-8.85h0ZM870.18,606.51l13.84-2.49h.04s.04-.01.04-.01l8.22-1.6,45.61-8.48,4.85-.86c-1.22,10.78-3.18,20.52-5.98,29.73l-.23.75v.78c.08,4.71-.98,9.37-3.23,14.25l-.18.4-.11.43-1.96,7.49-2.65,9.35-2.35,5.75-.06.14-.05.14-5.34,15.7-2.91,4.9-.27.45-.17.5-2.79,8.23-8.62,17.77-6.47,12.97c-3.16,6.35-5.32,9.8-6.7,11.67-1.7-2.6-3.9-4.75-5.9-6.7-1.41-1.37-2.73-2.67-3.72-3.94l-10.78-13.98c-.32-.42-.74-1.16-1.15-1.88-.94-1.66-2.11-3.73-3.95-5.27-2.32-1.96-4.1-4.33-5.99-6.84-1.07-1.43-2.18-2.9-3.44-4.38l-11.16-13.08-10.35-12.24-6.84-8.91-.06-.07-.06-.07-10.22-12.31-8.98-12.18-.15-.21-.17-.19-8.57-9.43-1.73-2.47,7.92-1.25.12-.02.12-.03,30.51-6.37,9.75-1.87,22.26-4.26h0Z"/>
    </g>
    <g>
      <path class="cls-2" d="M751.44,568.88c-2.38,0-4.65-.14-6.92-.42l-9.46-1.17-23.46-5.01-8.87-3.25c-2.27-.83-4.58-1.55-6.82-2.25-4.11-1.28-8.35-2.6-12.54-4.66-7.27-2.1-13.75-6.64-18.76-13.14l-.29-.38-.13-.46c-3.41-11.83-4.26-24.11-2.61-37.56l.07-.56,5.52-8.72,13.1-9.33,7.32-3.99,18.78-8.95c.82-.39,1.59-.78,2.35-1.16,1.96-.98,3.81-1.9,6.19-2.79l20.14-7.51c8.17-3.05,16.64-3.61,24.82-4.16,1.09-.07,2.18-.15,3.27-.22l25.56-1.84,33.65-2.21,62.6-3.92,34.83-1.99,13.11-1.01,15.06-.47c1.11-.04,2.21-.07,3.29-.07,2.14,0,4.94.12,7.59,1.03,8.82,3.05,13.68,8.06,14.85,15.33l2.09,12.98,1.18,13.43,1.86,28.23c.54,8.18-1.8,15.42-6.77,20.96l-.28.32-.37.2c-.47.26-4.64,2.54-6.93,3.03l-12.06,2.6-13.93,2.15-36.65,5.38-31.36,4.71-11.11,1.63-52.05,7.57-12.21,2.19-25.33,3.61-8.52,1.13c-3.54.47-6.73.7-9.77.7ZM749.85,543.09c2.43.46,5.02.68,7.92.68h0c3.24,0,6.84-.28,11.32-.89l20.12-2.73,12.32-1.96,55.85-8.61,16.71-2.48,13.75-2.11,14-2.28,16.05-1.96,21.06-3.77c.65-5.1.35-9.36-.1-14.29l-.62-6.72-.86-10.1-1.19-11.06-1.62-11.22c-1.42-.05-2.85-.07-4.33-.07-6.3,0-12.15.44-18.33.92-3.04.23-6.19.47-9.37.65l-25.91,1.46-39.03,2.51-16.3.99-11.83.73-15.08.84-20.17,1.4c-11.01.76-21.42,1.48-31.67,5.88l-8.63,3.7-9.97,4.35c-6.86,2.99-12.35,5.57-17.82,8.37l-13.64,6.98c-2.83,1.45-3.23,1.98-3.04,4.03l.75,8.19.87,7.66c.38,3.39,1.96,5.09,5.83,6.25l5.59,1.68,11.96,4.47,18.8,5.36,16.63,3.15Z"/>
      <path class="cls-2" d="M951.23,444.2c2.38,0,4.68.17,6.77.89,6.57,2.27,12,5.94,13.2,13.37l2.08,12.89,1.17,13.34,1.86,28.18c.47,7.08-1.32,13.76-6.14,19.13-1.47.81-4.68,2.44-6.25,2.78l-11.98,2.58-13.86,2.14-36.63,5.37-31.37,4.71-11.1,1.63-52.05,7.57-12.29,2.2-11.54,1.64-13.71,1.95-8.5,1.13c-3.19.42-6.31.68-9.44.68-2.19,0-4.39-.12-6.62-.4l-9.36-1.16-23.18-4.95-8.7-3.19c-6.56-2.4-13-3.75-19.32-6.9-7.07-1.99-13.19-6.49-17.68-12.33-3.5-12.13-4.03-24.33-2.53-36.56l4.96-7.83,12.58-8.95,7.13-3.88,18.72-8.92c2.88-1.37,5.15-2.68,8.34-3.86l20.14-7.51c8.87-3.31,18.09-3.56,27.4-4.23l25.56-1.84,33.64-2.21,62.59-3.92,34.81-1.99,13.04-1,14.84-.47c1.15-.04,2.3-.07,3.43-.07M757.77,546.27c3.88,0,7.8-.39,11.66-.91l20.12-2.73,12.37-1.97,27.23-4.2,17.49-2.7,11.12-1.71,16.69-2.48,13.77-2.11,13.92-2.27,16.12-1.97,22.9-4.1c1-6.04.72-10.84.18-16.67l-.62-6.72-.86-10.08-1.2-11.11-1.93-13.35c-2.22-.12-4.38-.17-6.51-.17-9.63,0-18.41,1.04-27.84,1.57l-25.91,1.46-39.05,2.51-16.3.99-11.83.73-15.06.84-20.21,1.4c-11.35.79-21.93,1.55-32.48,6.08l-8.63,3.7-9.98,4.35c-6.21,2.71-11.9,5.34-17.96,8.44l-13.64,6.98c-2.96,1.51-4.73,2.76-4.39,6.48l.75,8.19.87,7.71c.53,4.65,3.05,7,7.59,8.36l5.51,1.66,11.98,4.47,19,5.42,16.74,3.17c2.74.52,5.55.73,8.38.73M951.23,439.2c-1.14,0-2.28.04-3.38.07h-.21s-14.84.47-14.84.47h-.11s-.11.01-.11.01l-12.99,1-34.77,1.98-62.62,3.92-33.65,2.21-25.59,1.84c-1.09.08-2.18.15-3.26.22-8.36.56-17.01,1.13-25.53,4.31l-20.14,7.51c-2.51.94-4.5,1.93-6.43,2.9-.74.37-1.5.75-2.31,1.14l-18.72,8.92-.12.06-.12.06-7.13,3.88-.26.14-.24.17-12.58,8.95-.8.57-.53.83-4.96,7.83-.6.95-.14,1.12c-1.69,13.78-.81,26.4,2.69,38.55l.26.91.58.75c5.29,6.86,12.14,11.68,19.83,13.96,4.3,2.09,8.57,3.42,12.7,4.71,2.21.69,4.49,1.4,6.71,2.21l8.7,3.19.33.12.34.07,23.18,4.95.21.05.22.03,9.36,1.16c2.38.29,4.74.44,7.23.44,3.15,0,6.46-.24,10.1-.72l8.5-1.13,13.75-1.96,11.54-1.64h.09s.09-.03.09-.03l12.21-2.18,51.97-7.56,11.11-1.63,31.38-4.71,36.62-5.37,13.9-2.14.15-.02.15-.03,11.98-2.58c2.52-.54,6.46-2.65,7.61-3.29l.74-.41.57-.63c5.43-6.05,7.99-13.93,7.4-22.79l-1.86-28.18v-.05s0-.05,0-.05l-1.17-13.34-.02-.18-.03-.18-2.08-12.89c-1.98-12.28-12.91-16.06-16.5-17.3-3-1.04-6.07-1.17-8.4-1.17h0ZM794.54,474.11l15.02-.84,11.86-.73,16.29-.99,39.06-2.51,25.87-1.46c3.21-.18,6.37-.42,9.42-.65,6.14-.47,11.93-.91,18.14-.91.73,0,1.45,0,2.16.02l1.32,9.13,1.18,10.97.85,10.02.63,6.76c.39,4.17.66,7.84.31,11.93l-19.14,3.43-15.98,1.95h-.1s-.1.03-.1.03l-13.92,2.27-13.72,2.11-16.67,2.48-11.15,1.72-17.5,2.7-27.23,4.2-12.34,1.96-20.06,2.73c-4.37.59-7.86.87-10.98.87-2.74,0-5.17-.21-7.45-.64l-16.51-3.13-18.59-5.3-11.79-4.4-.15-.06-.16-.05-5.51-1.66c-3.21-.97-3.83-2.01-4.07-4.14l-.87-7.66-.75-8.14c-.03-.28-.02-.47-.02-.58.21-.17.67-.47,1.7-.99l13.64-6.98c5.43-2.78,10.88-5.34,17.68-8.3l9.98-4.35,8.6-3.69c9.86-4.23,20.06-4.94,30.85-5.69l20.18-1.4h0Z"/>
    </g>
    <g>
      <path class="cls-2" d="M522.47,409.11c-4.27,0-7.64-.56-10.62-1.75-7.09-2.84-13-8.78-16.23-16.29l-4.6-10.72-5.02-10.27-2.9-5.59-8.46-20.66c-2.61-6.36-4.27-14.07-4.67-21.7l-1.13-21.06c-.13-2.35-.26-4.68-.39-6.99-.53-9.36-1.03-18.2-1.17-27.65l-.44-28.65-1.25-11.22-.43-12.45c-.15-4.38-.13-8.81-.11-13.1.03-5.27.05-10.71-.25-16.05l-1.1-19.77v-8.92s-.37-8.9-.37-8.9l-.17-14.7c-.01-1.25-.07-2.51-.12-3.77-.15-3.41-.3-6.93.29-10.58,1.08-6.72,7.57-13.7,14.18-15.25,11.12-2.6,21.69-3.21,32.88-3.85l2.72-.16c1.01-.06,2.1-.13,3.25-.21,4.07-.27,8.68-.57,13.44-.57,6.17,0,24.97,0,27.78,12.9l3.45,15.84,1.92,19.69,1.48,14.03,1.62,14.27.81,7.58,3.61,24.56,2.1,19.02,1.58,16.07,2.48,20.55,1.06,8.87,1.58,12.54,1.47,8.76,1.22,10.29.39,13.53-3.02,23.8-5.27,17.7-3.28,11.6-2.88,8.33-6.08,15.79c-1.48,3.85-5.26,7.76-8.13,9.76-5.36,3.73-11.67,4.36-17.16,4.66l-8.2.45c-1.9.11-3.87.22-5.85.22ZM519.43,385.31c3.16.24,5.72.35,8.05.35h0c3.82,0,7.06-.31,9.9-.94,4.54-1.01,6.22-5.84,7.84-10.51.16-.46.32-.92.48-1.36l5.54-15.5c.74-2.07,1.15-3.97,1.63-6.16.22-1.03.46-2.1.74-3.28l1.46-6.04c.43-1.77,1.07-3.56,1.68-5.28.99-2.76,1.92-5.36,2.02-7.81l.4-10.33-1-19-.76-8.3-1.66-14.39-1.95-15.82c-1.45-6.62-2.08-12.84-2.74-19.42-.12-1.17-.24-2.35-.36-3.54l-.97-9.24-.66-6.41-1.3-11.91-1.82-16.9-1.17-9.69-2.95-19.36-.85-8.38-1.75-12.36c-.7-.53-2.87-1.25-4.16-1.25h-.09s-25.51,1.72-25.51,1.72l-15.83,1.45-6.95,1.74.07,12.32.19,8.93.12,13.28.79,17.58.82,6.88.13,33.32.99,15.71.62,15.62.3,10.17.33,20.5,1.32,15.78,1.35,7.64,3.49,12.53c1.62,5.83,3.7,9.79,5.54,13.29,1.33,2.53,2.48,4.72,3.2,7.12,2.53,8.46,5.94,15.89,10.41,22.72.24.36.5.82.79,1.33.49.86,1.63,2.85,2.29,3.19Z"/>
      <path class="cls-2" d="M529.79,100.81c11.58,0,23.36,1.87,25.34,10.94l3.42,15.69,1.9,19.55,1.48,14.05,1.62,14.29.81,7.56,3.63,24.66,2.09,18.93,1.58,16.04,2.49,20.6,1.06,8.87,1.59,12.61,1.47,8.75,1.2,10.12.38,13.22-2.97,23.4-5.21,17.5-3.27,11.56-2.85,8.27-6.05,15.71c-1.22,3.17-4.54,6.73-7.23,8.6-4.75,3.3-10.39,3.91-15.87,4.21l-6.94.38c-2.29.12-4.63.29-6.97.29-3.3,0-6.59-.33-9.69-1.57-6.75-2.7-12.03-8.37-14.86-14.95l-4.63-10.77-5.05-10.33-2.88-5.54-8.42-20.56c-2.61-6.37-4.12-13.89-4.49-20.88l-1.13-21.06c-.62-11.63-1.37-22.77-1.55-34.55l-.44-28.77-1.25-11.25-.43-12.35c-.34-9.7.19-19.43-.36-29.2l-1.1-19.7v-8.85s-.37-8.99-.37-8.99l-.17-14.62c-.05-4.58-.62-9.21.13-13.93.9-5.62,6.49-11.85,12.28-13.21,11.82-2.77,23.34-3.25,35.18-3.94,4.51-.26,10.5-.77,16.55-.77M527.48,388.16c3.57,0,7.11-.26,10.45-1,6.45-1.44,8.3-8.36,10.13-13.47l5.54-15.5c1.15-3.22,1.54-5.95,2.45-9.7l1.46-6.04c1.06-4.4,3.59-9.06,3.77-13.57l.4-10.44-1-19.12-.77-8.4-1.66-14.45-1.96-15.95c-1.69-7.69-2.26-14.92-3.09-22.8l-.97-9.24-.65-6.41-1.31-11.93-1.82-16.9-1.17-9.72-2.95-19.37-.85-8.37-1.82-12.79c-.25-1.75-4.58-3.02-6.58-3.02-.09,0-.18,0-.26,0l-25.51,1.72-16.08,1.47-9.04,2.26.08,14.28.19,8.97.12,13.25.8,17.76.81,6.83.13,33.25,1,15.78.61,15.56.3,10.14.33,20.55,1.33,15.97,1.39,7.87,3.52,12.65c2.86,10.27,7.16,15.13,8.75,20.45,2.52,8.43,5.97,16.13,10.72,23.37,1.05,1.6,2.74,5.47,4.9,5.64,2.72.21,5.53.37,8.32.37M529.79,95.81c-4.84,0-9.7.32-13.6.58-1.14.08-2.23.15-3.23.21l-2.72.16c-10.8.62-21.98,1.25-33.31,3.91-7.62,1.78-14.83,9.54-16.07,17.28-.63,3.9-.47,7.56-.32,11.09.05,1.28.11,2.49.12,3.69l.17,14.62v.07s0,.07,0,.07l.36,8.9v8.75s0,.14,0,.14v.14s1.11,19.7,1.11,19.7c.29,5.26.27,10.67.24,15.9-.02,4.31-.04,8.77.11,13.2l.43,12.35v.19s.03.19.03.19l1.22,11.01.44,28.53c.15,9.5.64,18.36,1.17,27.74.13,2.32.26,4.65.39,7l1.13,21.06c.42,7.9,2.15,15.89,4.86,22.51l8.42,20.56.09.21.1.2,2.85,5.49,4.97,10.16,4.58,10.66c3.49,8.11,9.9,14.54,17.6,17.62,3.28,1.32,6.95,1.93,11.55,1.93,2.05,0,4.06-.12,5.99-.23l1.25-.07,6.94-.38c5.83-.32,12.55-1,18.45-5.1,3.29-2.29,7.36-6.55,9.04-10.91l6.05-15.71.03-.08.03-.08,2.85-8.27.05-.13.04-.14,3.26-11.53,5.2-17.47.12-.39.05-.41,2.97-23.4.05-.38v-.39s-.39-13.22-.39-13.22v-.22s-.03-.22-.03-.22l-1.2-10.12v-.12s-.03-.12-.03-.12l-1.46-8.64-1.57-12.5-1.05-8.84-2.48-20.55-1.57-15.98v-.03s0-.03,0-.03l-2.09-18.93v-.09s-.02-.09-.02-.09l-3.61-24.56-.8-7.47-1.62-14.32-1.47-14.01-1.9-19.51-.03-.29-.06-.29-3.42-15.69c-3.24-14.87-23.55-14.87-30.22-14.87h0ZM509.69,146.69l25.4-1.71c.41.01,1.2.19,1.85.41l1.56,11,.84,8.27v.12s.03.12.03.12l2.94,19.3,1.16,9.6,1.82,16.87,1.31,11.93.65,6.37.97,9.25c.13,1.19.24,2.37.36,3.53.67,6.61,1.3,12.86,2.76,19.58l1.93,15.72,1.65,14.35.75,8.24.98,18.79-.39,10.21c-.08,2.06-.95,4.49-1.87,7.06-.64,1.78-1.3,3.63-1.76,5.53l-1.46,6.04c-.29,1.21-.53,2.29-.75,3.33-.48,2.2-.85,3.93-1.54,5.86l-5.54,15.5c-.16.45-.32.91-.48,1.38-1.72,4.94-3.06,8.23-6.02,8.89-2.66.59-5.72.88-9.36.88-2.03,0-4.25-.09-6.93-.28-.42-.57-.95-1.5-1.24-2.01-.3-.52-.58-1.01-.87-1.46-4.34-6.63-7.65-13.84-10.11-22.06-.79-2.63-2.05-5.03-3.38-7.57-1.78-3.39-3.79-7.22-5.34-12.79l-3.45-12.42-1.31-7.41-1.3-15.58-.33-20.38v-.03s0-.03,0-.03l-.3-10.14-.61-15.61v-.06s0-.06,0-.06l-.99-15.64-.13-33.11v-.29s-.03-.28-.03-.28l-.79-6.65-.79-17.49-.12-13.16v-.03s0-.03,0-.03l-.19-8.93-.06-10.32,4.85-1.21,15.64-1.43h0Z"/>
    </g>
    <g>
      <path class="cls-2" d="M635.85,446.7c-2.36,0-4.68-.3-6.89-.88l-.27-.07-.24-.13c-2.22-1.15-5-3.17-8.49-6.18-1.19-.98-2.45-1.97-3.7-2.97-4.45-3.53-9.04-7.17-12.92-11.84l-.2-.24-4.2-8.78-.87-10.85,11.96-33.82,10.94-25.76c.18-.42.34-.82.51-1.22.75-1.83,1.47-3.56,2.72-5.41l5.32-7.88,8.78-9.87,18.99-19.83,6.23-6.39,16.1-17.45,12.7-13.52,5.63-6.08,14.02-14.71,10.82-11.18,11.32-11.58,37.51-38.5c4.69-4.81,10.13-7.46,15.32-7.46,3.1,0,6.08.91,8.84,2.72l8.88,5.79,10.44,9.29c4.99,2.87,8.55,6.27,12.31,9.86.7.67,1.42,1.35,2.16,2.04l17.82,16.71,3.37,9.58c1.24,3.52.88,9.55-1.63,12.57l-11.73,14.12-14.29,16.81c-1.42,3.15-3.42,5.93-6.11,8.5-1.85,1.77-3.4,3.76-5.04,5.86-.52.66-1.03,1.33-1.57,1.99l-8.12,10.14-5.6,6.74-14.23,17.64-21.22,24.84-4.26,5.34-3.94,5.2-10.43,12.07c-.99,1.15-1.78,2.38-2.61,3.68-1.39,2.18-2.83,4.43-5.29,6.38-1.54,1.23-3.11,3.2-4.57,5.15l-4.29,5.73c-4.91,6.56-10.95,13.93-18.46,18.78l-14.95,9.67-6.73,4.38-16.58,8.17-4.43,2.24-12.2,6.21c-5.71,2.91-11.32,4.38-16.67,4.38ZM641.48,357.98c-2.3,4.53-3.82,9.04-4.65,13.79l-.07.41-3.52,6.41c-1.25,2.27-1.83,4.65-2.45,7.17-.39,1.59-.8,3.24-1.39,4.96l-2.65,7.74c-.14.41-.34.91-.55,1.46-.5,1.28-2.04,5.18-1.18,5.99l13.45,12.58c.32.3.85.45,1.59.45,1.2,0,2.78-.4,4.57-1.15l14.37-6.05,5.88-3.18,6.73-3.79,5.26-2.72,10.01-5.42c2.58-1.4,5.32-2.97,7.86-5l7.78-6.24,5.12-5.44,7.08-7.87,8.47-10.52,8.93-10.31c1.06-1.22,1.97-2.5,2.93-3.86,1.53-2.15,3.11-4.38,5.33-6.37,2.07-1.86,3.64-4.15,5.31-6.58.94-1.38,1.92-2.8,2.99-4.14l13.22-16.46,12.26-15.04,8.95-11.06,11.63-13.33,10.02-12.27,11.91-14.96c.91-1.14.88-1.86-.11-2.98l-4.38-4.94-15.95-14.8-7.75-6.23-11.5-8.91c-.38-.29-.67-.33-.86-.33-.67,0-1.56.5-2.38,1.35l-32.43,33.54-13.36,13.72-22.23,23.23-12.31,12.89-9.85,10.36-13.44,14.9-11.01,11.83c-4.41,4.74-7.38,8.64-9.93,13.04l-4.33,7.46-3.36,6.64Z"/>
      <path class="cls-2" d="M786.95,176.6c2.5,0,5.02.71,7.48,2.31l8.73,5.69,10.5,9.34c5.75,3.26,9.5,7.25,14.23,11.69l17.38,16.29,3.17,9.01c.97,2.75.69,7.87-1.19,10.14l-11.73,14.12-14.51,17.07c-1.32,3.05-3.2,5.65-5.69,8.03-2.6,2.48-4.59,5.3-6.83,8.1l-8.12,10.14-5.57,6.7-14.25,17.67-21.17,24.79-4.32,5.41-3.93,5.19-10.38,12.01c-2.81,3.25-4.05,6.95-7.56,9.74-1.85,1.47-3.59,3.71-5.01,5.61l-4.29,5.73c-4.99,6.66-10.83,13.66-17.81,18.18l-14.95,9.66-6.61,4.31-16.45,8.11-4.45,2.25-12.21,6.21c-4.85,2.47-10.18,4.11-15.54,4.11-2.09,0-4.18-.25-6.25-.8-2.58-1.34-5.69-3.86-8.01-5.85-5.6-4.6-11.55-8.76-16.33-14.51l-3.87-8.08-.79-9.86,11.76-33.24,10.91-25.69c.95-2.25,1.63-4.18,2.99-6.21l5.22-7.75,8.67-9.74,11.55-12.07,7.37-7.7,6.22-6.38,16.15-17.5,12.69-13.51,5.64-6.09,13.99-14.68,10.81-11.16,11.31-11.58,37.51-38.5c3.92-4.03,8.67-6.71,13.53-6.71M640.05,421.44c1.93,0,4.04-.72,5.54-1.35l14.48-6.09,5.99-3.24,6.77-3.81,5.18-2.68,10.06-5.44c2.89-1.56,5.63-3.17,8.23-5.25l7.91-6.35,5.24-5.56,7.16-7.96,8.51-10.57,8.87-10.24c2.87-3.31,4.71-7.02,8.04-10.01,3.57-3.2,5.73-7.48,8.58-11.02l13.22-16.46,12.25-15.02,8.96-11.06,11.57-13.25,10.07-12.33,11.93-14.98c1.7-2.14,1.56-4.22-.2-6.19l-4.46-5.03-16.1-14.94-7.82-6.28-11.53-8.93c-.77-.6-1.58-.85-2.39-.85-1.51,0-3,.89-4.18,2.11l-32.43,33.54-13.35,13.71-22.25,23.24-12.31,12.89-9.86,10.36-13.48,14.95-10.98,11.8c-4,4.3-7.3,8.38-10.26,13.49l-4.36,7.52-3.4,6.7c-2.37,4.68-4,9.43-4.89,14.49l-3.32,6.05c-2.23,4.06-2.52,8.16-4.02,12.53l-2.65,7.74c-.82,2.4-3.58,7.74-1.08,10.08l13.45,12.58c.88.82,2.05,1.12,3.3,1.12M786.95,171.6h0c-5.87,0-11.95,2.92-17.11,8.22l-37.51,38.5-11.31,11.57-10.83,11.18-14.02,14.71-.02.03-.02.03-5.64,6.09-12.66,13.48-16.13,17.48-6.17,6.33-7.4,7.73-11.55,12.07-.06.07-.06.07-8.67,9.74-.22.25-.19.28-5.22,7.75c-1.39,2.07-2.19,4-2.96,5.86-.16.39-.32.78-.49,1.19l-10.91,25.69-.06.14-.05.15-11.76,33.24-.35,1,.08,1.06.79,9.86.07.92.4.84,3.87,8.08.27.56.4.48c4.05,4.86,8.74,8.59,13.29,12.2,1.21.96,2.47,1.96,3.67,2.94,3.62,3.11,6.54,5.23,8.92,6.46l.49.25.53.14c2.42.64,4.95.96,7.53.96,5.75,0,11.74-1.57,17.81-4.65l12.21-6.21,4.42-2.24,16.42-8.09.27-.13.25-.16,6.61-4.31,14.94-9.65c7.84-5.07,14.05-12.64,19.1-19.38l4.29-5.73c.92-1.22,2.62-3.5,4.13-4.7,2.78-2.21,4.4-4.75,5.83-6.99.78-1.23,1.52-2.39,2.4-3.39l10.38-12.01.11-.12.1-.13,3.89-5.14,4.22-5.29,21.12-24.73.05-.05.04-.05,14.23-17.64,5.55-6.67.03-.04.03-.04,8.12-10.14c.54-.67,1.07-1.35,1.59-2.02,1.58-2.03,3.07-3.94,4.79-5.59,2.83-2.71,4.97-5.64,6.51-8.95l14.05-16.53.02-.02.02-.02,11.73-14.12c3.19-3.83,3.55-10.77,2.06-14.99l-3.17-9.01-.41-1.15-.89-.84-17.38-16.29c-.73-.69-1.44-1.36-2.14-2.03-3.82-3.65-7.44-7.1-12.57-10.09l-10.11-9-.28-.25-.31-.2-8.73-5.69c-3.18-2.07-6.61-3.12-10.21-3.12h0ZM685.4,305.79l9.81-10.31,12.3-12.88,22.24-23.24,13.32-13.68,32.44-33.55c.16-.16.3-.29.42-.38l10.98,8.51,7.65,6.14,15.8,14.65,4.22,4.75-11.8,14.82-10,12.24-11.51,13.19-.06.07-.06.07-8.96,11.06-12.24,15.01-13.25,16.48c-1.14,1.42-2.14,2.88-3.11,4.3-1.57,2.3-3.06,4.48-4.91,6.13-2.43,2.18-4.09,4.52-5.7,6.79-.93,1.31-1.8,2.54-2.78,3.67l-8.87,10.24-.06.07-.06.07-8.43,10.47-7.03,7.81-4.96,5.27-7.64,6.13c-2.38,1.91-5,3.41-7.48,4.75l-10.02,5.42-5.14,2.66-.08.04-.08.04-6.73,3.79-5.74,3.1-14.26,6c-2.05.86-3.2.96-3.6.96-.05,0-.09,0-.13,0l-12.63-11.82c.14-1.04.88-2.91,1.22-3.78.22-.55.42-1.08.59-1.57l2.65-7.74c.63-1.83,1.05-3.53,1.45-5.18.61-2.46,1.13-4.58,2.22-6.57l3.32-6.05.4-.73.14-.82c.79-4.5,2.24-8.78,4.42-13.09l3.33-6.57,4.29-7.4c2.45-4.23,5.32-7.99,9.6-12.59l10.98-11.8.03-.03.03-.03,13.44-14.9h0Z"/>
    </g>
    <g>
      <path class="cls-2" d="M620.4,301.26c-1.75,0-3.28-.37-4.55-1.09-3.56-2.02-6.75-5.52-8.55-8.13-2.09-3.03-2.64-6.88-3.12-10.28-.11-.77-.22-1.53-.34-2.24l-1.41-8.15-1.22-8.67-7.52-43.14-1.56-10.79-1.89-10.03-1.98-13.27-1.54-10.62-1.49-8.91-1.83-14.71-1.95-9.7c-2.87-14.26-4.34-25.86-4.65-36.5-.11-3.68,1.16-6.98,3.65-9.54,2.67-2.75,6.49-4.33,10.47-4.33.53,0,1.06.03,1.58.09l7.77.84,14.78,2.21,7.32,1.29,10.16,1.94,19.47,4.42,11.98,3.2c1.04.28,1.98.51,2.89.74,2.14.54,4.16,1.04,6.6,1.89l14.89,5.17,5.86,1.71,6.93,3.18,27.45,11.52,4.53,2.47c6.46,2.52,12.92,5.77,20.91,10.52l1.34.79c5.34,3.14,10.87,6.39,13.44,13.68l.17.49-.58,8.15-29.04,29.32-12.18,10.58-9.47,9.03-27.11,26.45-8.69,7.4-13.02,12.84-8.38,8.44-10.2,10.46-7.65,6.38-12.17,11.15c-2.35,2.15-6.58,3.71-10.07,3.71ZM606.87,158.42l1.97,12.54,3.95,20.76,1.21,9.16,1.79,12.22,2.12,14.5,1.68,10.73,5,33.43c.06.36.49.99.92,1.43l11.24-11,8.85-8.94,10.21-10.17,9.02-8.91,19.6-18.56,22.13-21.62,9.66-9.78,7.84-7.99-3.39-1.68-6.58-3.7c-3.13-1.76-6.16-2.95-9.67-4.32l-6-2.35c-1.87-.73-3.62-1.55-5.3-2.34-2.49-1.16-4.84-2.27-7.45-3.05l-.22-.07-.21-.11c-4.08-2.12-8.26-3.45-12.76-4.04l-.49-.06-.43-.25c-4.78-2.74-10.53-4.57-18.11-5.76l-.37-.06-.33-.16c-3.82-1.84-7.76-2.74-11.94-3.68l-1.83-.42-6.36-1.47-21.85-4.65-6.08-1.11c-.45-.08-.97-.13-1.39-.13-.02,0-.04,0-.06,0-.05.34-.07.71-.05.9l1.26,9.95,2.36,10.76Z"/>
      <path class="cls-2" d="M590.89,93.69c.44,0,.88.02,1.31.07l7.67.83,14.78,2.21,7.25,1.28,10.12,1.94,19.39,4.41,11.88,3.18c3.5.94,5.98,1.42,9.32,2.58l14.95,5.19,5.75,1.68,6.77,3.1,27.41,11.5,4.56,2.48c7.28,2.83,13.89,6.35,20.69,10.4,5.68,3.38,11.23,6.16,13.7,13.16l-.48,6.71-28.32,28.6-12.16,10.56-9.51,9.07-27.07,26.41-8.69,7.4-13.09,12.91-8.4,8.46-10.12,10.38-7.59,6.33-12.22,11.19c-1.77,1.62-5.31,3.06-8.38,3.06-1.23,0-2.38-.23-3.32-.76-2.84-1.61-5.83-4.62-7.73-7.37-2.2-3.18-2.43-7.86-3.06-11.52l-1.41-8.15-1.21-8.59-7.53-43.22-1.56-10.77-1.91-10.08-1.97-13.17-1.54-10.61-1.48-8.86-1.84-14.8-1.97-9.79c-2.41-11.98-4.26-24.1-4.6-36.08-.2-6.98,5.66-11.3,11.62-11.3M625.94,276.15s.09,0,.13,0l12.43-12.16,8.88-8.97,10.2-10.16,9.02-8.9,19.57-18.53,22.16-21.65,9.69-9.81,10.26-10.45-6.42-3.18-6.52-3.67c-3.5-1.97-6.87-3.25-10.66-4.74l-5.31-2.08c-4.5-1.76-8.31-4.06-12.94-5.46-4.18-2.17-8.67-3.65-13.58-4.3-5.75-3.3-12.22-5-18.97-6.06-4.63-2.24-9.25-3.12-14.29-4.29l-6.36-1.47-21.89-4.66-6.14-1.13c-.51-.09-1.19-.17-1.84-.17-.79,0-1.54.11-1.92.46-.57.52-.78,2.43-.67,3.25l1.28,10.06,2.37,10.8,1.96,12.46,3.95,20.77,1.2,9.09,1.8,12.26,2.12,14.5,1.69,10.76,5,33.42c.24,1.58,2.26,4.02,3.82,4.02M590.89,88.69h0c-4.66,0-9.13,1.85-12.27,5.08-2.93,3.02-4.48,7.05-4.35,11.36.31,10.79,1.8,22.52,4.7,36.92l1.93,9.61,1.82,14.61v.1s.03.1.03.1l1.47,8.8,1.53,10.56,1.97,13.19v.1s.03.09.03.09l1.89,9.98,1.54,10.66v.07s.02.07.02.07l7.52,43.14,1.2,8.51v.08s.02.08.02.08l1.41,8.15c.11.66.22,1.39.33,2.17.5,3.49,1.12,7.83,3.54,11.34,1.96,2.83,5.45,6.65,9.38,8.88,1.65.94,3.6,1.41,5.78,1.41,4.12,0,8.95-1.8,11.76-4.37l12.13-11.11,7.5-6.26.2-.17.18-.18,10.12-10.38,8.34-8.4,12.94-12.76,8.55-7.29.13-.11.12-.12,27.05-26.39,9.4-8.97,12.07-10.49.14-.12.13-.13,28.32-28.6,1.3-1.32.13-1.85.48-6.71.07-1.04-.35-.98c-2.88-8.16-9.07-11.8-14.53-15.01-.44-.26-.88-.52-1.33-.78-8.06-4.79-14.59-8.08-21.13-10.65l-4.28-2.33-.22-.12-.23-.1-27.33-11.47-6.69-3.07-.33-.15-.35-.1-5.63-1.64-14.83-5.15c-2.54-.88-4.62-1.4-6.82-1.95-.89-.22-1.83-.46-2.85-.73l-11.88-3.18-.09-.02-.09-.02-19.39-4.41-.08-.02-.08-.02-10.12-1.94h-.03s-.04-.01-.04-.01l-7.25-1.28h-.07s-.07-.02-.07-.02l-14.78-2.21h-.1s-.1-.03-.1-.03l-7.67-.83c-.61-.07-1.23-.1-1.85-.1h0ZM606.97,147.23l-.95-7.51,4.35.8,21.78,4.64,6.31,1.46c.62.14,1.23.28,1.84.42,4.21.96,7.85,1.78,11.41,3.5l.67.32.73.11c7.26,1.13,12.75,2.87,17.25,5.45l.85.49.98.13c4.21.56,8.11,1.8,11.93,3.78l.42.22.45.14c2.44.73,4.71,1.8,7.11,2.92,1.72.81,3.5,1.64,5.45,2.4l5.31,2.08.69.27c3.42,1.34,6.37,2.49,9.34,4.17l6.52,3.67.11.06.12.06.24.12-5.43,5.53-9.65,9.77-22.1,21.59-19.54,18.5-.04.04-.04.04-9.02,8.9-10.21,10.17-8.88,8.96-8.33,8.15-4.58-30.61-1.69-10.77-2.12-14.48-1.79-12.23-1.19-9.05-.02-.14-.03-.14-3.93-20.69-1.95-12.38-.02-.15-.03-.15-2.32-10.58h0Z"/>
    </g>
    <g>
      <path class="cls-2" d="M765.4,429.42c-6.31-.34-10.69-3.83-13.02-10.37-2-5.62-.88-10.7,3.53-15.96l8.24-9.84c2.03-2.43,3.48-4.77,4.42-7.16l.18-.47.35-.36c.53-.55,1.1-1.1,1.67-1.67,2.32-2.29,4.71-4.67,5.92-7.01.23-.45.44-.9.64-1.33.71-1.53,1.44-3.12,2.98-4.43,2.58-2.21,4.33-4.88,6.18-7.71.73-1.12,1.49-2.27,2.3-3.4l8.98-12.44,8.69-10.21,5.08-7.09,10.35-13.43,10.2-13.5,8.47-11.72,11.19-14.45,8.59-10.45,9.79-11.07c2.36-2.67,5.48-4.14,8.78-4.14,2.98,0,5.9,1.22,8.22,3.44.57.54,1.19,1.11,1.84,1.7,2.24,2.05,4.79,4.37,6.32,6.73l5.42,8.36,5.98,9.19,4.68,7.14,5.42,8.08,6.48,9.62,4.36,9.24,4.21,8.89,3.48,6.01,9.7,20.54,6.09,13.93,6.6,17.93,7.48,25.15c1.07,3.61.3,7.37-2.24,10.88-2.93,4.06-8.12,7.33-11.81,7.44l-26.44.83-36.75,1.12-61.85,1.16-49.77,1.4-10.94-.59ZM780.35,407.14c.26.02.54.03.85.03h.44s75.24-1.64,75.24-1.64l30.06-.82,30.29-.71c.2,0,.63-.09,1.03-.18.01-.04.02-.08.03-.12l-4.22-14.39-2.61-5.06-.06-.21c-2.4-7.68-5.34-15.04-9.85-24.6l-7.31-15.51-2.63-4.41c-1.65-2.77-2.98-5.47-4.27-8.08-1.08-2.2-2.2-4.47-3.51-6.78l-3.93-6.92-3.75-6.12c-3.08-5.03-6.62-9.46-11.32-14.12l-10.31,12.97c-1.3,1.63-2.65,3.12-3.97,4.56-2.56,2.81-4.98,5.47-6.75,8.91l-.13.24-6.61,7.93c-1.89,3.74-3.68,6.88-7.4,10.06-1.01.86-1.63,2.09-2.35,3.51-.64,1.26-1.36,2.69-2.46,4l-7.03,8.38c-.71.85-1.2,1.85-1.72,2.92-.64,1.32-1.37,2.82-2.62,4.16l-5.62,6.01-5.72,7.38-10.51,13.32-7.26,9.71-.84,1.11c-1.12,1.49-2.21,2.92-3.2,4.49Z"/>
      <path class="cls-2" d="M878.91,253.71c2.28,0,4.58.92,6.49,2.75,2.49,2.38,6.01,5.25,7.78,7.99l5.42,8.36,5.99,9.2,4.69,7.15,5.43,8.11,6.38,9.47,4.28,9.07,4.26,8.99,3.48,6.01,9.65,20.44,6.03,13.79,6.55,17.79,7.46,25.08c2.34,7.87-7.33,14.98-11.73,15.12l-26.44.83-36.75,1.12-61.82,1.16-49.69,1.4-10.84-.59c-5.57-.3-8.92-3.44-10.8-8.72-1.85-5.18-.4-9.34,3.09-13.52l8.24-9.84c2.01-2.39,3.71-5,4.83-7.85,2.74-2.81,6.3-5.96,8.02-9.28,1-1.93,1.52-3.73,3.02-5.01,3.95-3.38,6.08-7.65,8.89-11.54l8.93-12.36,8.69-10.21,5.14-7.17,10.3-13.36,10.21-13.52,8.5-11.77,11.14-14.38,8.54-10.39,9.73-11c1.95-2.2,4.42-3.29,6.91-3.29M781.2,409.67c.16,0,.33,0,.49,0l75.24-1.63,30.08-.82,30.28-.71c.67-.02,2.04-.34,2.59-.56.55-.22,1.06-2.09.9-2.65l-4.38-14.92-2.62-5.08c-2.75-8.82-6.08-16.66-9.97-24.92l-7.36-15.62-2.7-4.52c-2.98-4.99-4.85-9.69-7.75-14.81l-3.93-6.92-3.79-6.19c-3.78-6.18-8.11-11.26-13.69-16.53l-12.03,15.12c-3.75,4.72-8.11,8.29-10.98,13.88l-6.62,7.94c-1.97,3.92-3.6,6.7-6.93,9.54-2.47,2.11-3,5.3-5.1,7.81l-7.03,8.38c-1.89,2.25-2.34,4.93-4.25,6.98l-5.7,6.09-5.79,7.47-10.49,13.3-7.3,9.76c-2.02,2.7-3.99,5.14-5.62,8.36,1.34,1.05,2.81,1.26,4.44,1.26M878.91,248.71h0c-4.03,0-7.81,1.77-10.65,4.98l-9.73,11-.06.07-.06.07-8.54,10.39-.05.06-.04.06-11.14,14.38-.05.07-.05.07-8.47,11.72-10.18,13.48-10.27,13.32-.05.07-.05.07-5.02,7-8.56,10.05-.13.15-.12.16-8.93,12.36c-.85,1.17-1.62,2.35-2.37,3.49-1.75,2.67-3.41,5.2-5.72,7.18-1.95,1.67-2.87,3.67-3.62,5.28-.2.43-.39.84-.59,1.24-1.03,1.99-3.38,4.32-5.45,6.38-.59.58-1.16,1.15-1.7,1.7l-.71.72-.37.94c-.84,2.14-2.15,4.25-4.01,6.47l-8.24,9.84c-4.97,5.93-6.27,11.95-3.97,18.41,3.36,9.44,10.14,11.75,15.24,12.03l10.84.59h.21s.21,0,.21,0l49.69-1.4,61.77-1.16h.03s.03,0,.03,0l36.75-1.12,26.45-.83c4.53-.14,10.32-3.71,13.76-8.48,2.96-4.11,3.89-8.75,2.61-13.06l-7.46-25.08-.05-.15-.05-.15-6.55-17.79-.05-.14-.06-.14-6.03-13.79-.03-.07-.03-.06-9.65-20.44-.09-.19-.11-.18-3.38-5.83-4.17-8.8-4.28-9.06-.16-.34-.21-.32-6.38-9.47-5.42-8.09-4.66-7.11-5.98-9.18-5.41-8.35c-1.71-2.63-4.38-5.07-6.73-7.22-.63-.57-1.24-1.13-1.79-1.66-2.79-2.66-6.32-4.13-9.95-4.13h0ZM839.18,333.47l6.25-7.5.35-.42.25-.49c1.62-3.14,3.93-5.68,6.38-8.37,1.34-1.47,2.73-2.99,4.08-4.69l8.55-10.75c3.6,3.8,6.46,7.52,8.99,11.65l3.75,6.12,3.89,6.85c1.27,2.24,2.33,4.38,3.44,6.65,1.31,2.66,2.66,5.4,4.37,8.26l2.57,4.31,7.26,15.4c4.46,9.46,7.36,16.72,9.72,24.28l.13.41.2.39,2.4,4.66,3.32,11.32-28.16.66-30.1.82-71.59,1.55c.11-.14.21-.28.32-.43.28-.37.56-.74.85-1.12l7.26-9.7,10.45-13.25,5.67-7.33,5.54-5.92c1.51-1.61,2.36-3.36,3.04-4.77.47-.96.87-1.79,1.39-2.41l7.03-8.38c1.29-1.53,2.08-3.1,2.77-4.48.62-1.23,1.11-2.2,1.74-2.74,3.98-3.39,5.97-6.81,7.88-10.58h0Z"/>
    </g>
    <g>
      <path class="cls-2" d="M424.99,302.94c-1.85,0-3.95-.25-6.82-.82-2.71-.54-4.57-2.33-6.72-4.4-2.06-1.98-4.62-4.45-8.96-7.03-4.03-2.4-6.65-5.21-8.97-7.69-2.29-2.45-4.26-4.57-7.17-5.88-3.57-1.62-5.55-3.62-7.47-5.55-.82-.83-1.67-1.68-2.66-2.53l-17.01-14.46-15.37-12.64-9.09-7.21-9.84-8.43-4.71-3.39c-3.03-2.18-5.93-4.7-8.73-7.13-2.27-1.98-4.42-3.84-6.64-5.55l-8.9-6.85c-1.65-1.27-3.18-2.78-4.67-4.24-1.53-1.51-2.98-2.94-4.51-4.08-1.01-.76-2.07-1.44-3.19-2.17-3.38-2.2-6.88-4.48-9.1-8.64-3.37-6.32-2.28-12.39,3.01-16.66l5.13-4.14,9.47-6.22,7.05-4.57,6.71-4.27,9.77-6.5c2.64-1.76,5.71-3.25,8.67-4.69,1.26-.61,2.5-1.22,3.69-1.83l17.88-9.26c4.41-2.28,8.82-4.18,13.48-5.81,1.32-.46,2.71-1.23,4.18-2.04,1.49-.82,3.03-1.67,4.65-2.28l15.25-5.75c1.08-.41,2.14-.81,3.2-1.22,4.74-1.82,9.23-3.54,14.28-4.86,2.91-.76,5.83-1.69,8.65-2.6,4.87-1.56,9.9-3.17,15.25-4.03.83-.13,1.69-.2,2.56-.2,5.76,0,12.51,3.07,13.72,9.8,1.32,7.33,1.06,14.65.82,21.73-.14,3.9-.27,7.94-.14,11.87l.47,13.46c.02.54.04,1.08.07,1.62.11,2.24.22,4.56-.15,6.89-.43,2.77-.39,5.41-.35,8.21.02,1.31.04,2.66.01,4.04l-.32,14.75c.73,10.88.66,22.08-.25,36.32l-.03,6.72.7,14.53-.57,10.7-.14,9.68-.24,17.25c-.06,5.24-.11,10.2-6.1,14.65-3.16,2.35-6.21,3.4-9.89,3.4ZM394.58,254.55l13.02,11.49,11.01,9.3c.1,0,.19-.02.28-.05l-.27-14.82.75-24.17c.08-2.53-.06-5.01-.2-7.41-.1-1.8-.21-3.66-.23-5.55l-.11-11.92c-.02-1.87.08-3.74.16-5.54.16-3.23.31-6.28-.14-9.22l-.07-.46.1-.45c.55-2.55.86-5.16.97-8.19-1.09-15.26-1.08-28.63.03-42.03-.19-.56-.4-1.05-.55-1.35-.07,0-.16,0-.26,0-.39,0-.69.05-.77.08l-17.73,5.97c-14.26,4.81-36.02,13.72-50.09,21.93l-8.12,4.74-6.15,3.33-7.15,3.94c-.52.29-1.24.87-1.93,1.43-1.22,1-2.61,2.12-4.14,2.67-1.74.63-3.41,1.84-4.74,3.42,1.54,2.23,3.48,3.88,5.66,5.74.52.44,1.04.89,1.56,1.34l11.01,9.67c.68.59,1.27,1.15,1.84,1.68,1.57,1.47,2.7,2.53,4.66,3.54,3.68,1.89,6.7,4.7,9.61,7.41,1.76,1.64,3.43,3.19,5.18,4.49,5.65,4.2,10.33,7.77,14.86,12.32.86.86,1.97,1.51,3.25,2.26.75.44,1.53.89,2.35,1.44,3.68,2.47,6.78,5.4,9.77,8.24.6.57,1.2,1.14,1.8,1.7l4.79,3.01Z"/>
      <path class="cls-2" d="M427.37,99.81c4.99,0,10.34,2.61,11.26,7.74,1.99,11.09.26,22.17.64,33.24l.47,13.46c.09,2.68.36,5.43-.05,8.04-.68,4.35-.27,8.36-.36,12.59l-.32,14.86c.83,12.21.53,23.96-.24,36.18l-.03,6.86.7,14.47-.57,10.57-.15,9.78-.23,16.33c-.08,5.53.2,9.66-5.1,13.6-2.8,2.08-5.29,2.9-8.39,2.9-1.83,0-3.88-.29-6.33-.77-4.05-.8-5.87-5.76-14.88-11.12-7.65-4.55-9.83-10.73-16.39-13.7-4.6-2.08-6.13-4.81-9.54-7.71l-17.01-14.46-15.41-12.66-9.13-7.24-9.85-8.44-4.8-3.45c-5.3-3.81-10.19-8.69-15.3-12.63l-8.9-6.85c-3.16-2.43-5.98-5.93-9.21-8.34-4.14-3.09-8.98-5.13-11.57-9.99-2.66-4.99-2.27-9.79,2.37-13.54l5.03-4.07,9.37-6.16,7.04-4.56,6.69-4.26,9.81-6.53c3.6-2.39,8.17-4.34,12.13-6.39l17.88-9.26c4.28-2.21,8.53-4.05,13.16-5.67,2.94-1.03,5.88-3.21,8.89-4.34l15.25-5.75c5.81-2.19,11.18-4.42,17.23-6,7.98-2.09,15.42-5.25,23.67-6.57.7-.11,1.43-.17,2.16-.17M418.52,277.86c1.3,0,2.9-.76,2.88-1.66l-.29-15.64.75-24.17c.14-4.55-.39-8.7-.43-13.06l-.11-11.92c-.05-5.1.75-10.18,0-15.12.63-2.89.92-5.68,1.03-8.76-1.02-14.2-1.16-27.96.05-42.25-.3-1.06-.99-2.86-1.68-3.28-.36-.22-1.01-.31-1.67-.31-.59,0-1.18.08-1.56.21l-17.73,5.98c-15.37,5.18-36.97,14.21-50.55,22.14l-8.12,4.74-6.08,3.29-7.17,3.95c-1.72.95-3.77,3.24-5.7,3.94-2.72.98-5.2,3.03-6.91,5.65,2.23,3.98,5.4,6.29,8.59,9.09l11.01,9.67c2.56,2.24,3.96,4,7.01,5.57,5.49,2.83,9.62,8.09,14.44,11.68,5.22,3.88,10.02,7.5,14.58,12.07,1.65,1.66,3.76,2.53,5.98,4.02,4.29,2.87,7.75,6.42,11.42,9.85l4.82,3.03,12.87,11.36,11.33,9.57c.3.26.76.37,1.25.37M427.37,94.81h0c-1,0-2,.08-2.96.23-5.54.89-10.67,2.53-15.62,4.12-2.92.93-5.67,1.81-8.52,2.56-5.19,1.36-9.94,3.18-14.54,4.94-1.05.4-2.11.81-3.18,1.21l-15.25,5.75c-1.79.68-3.41,1.57-4.98,2.43-1.38.76-2.67,1.47-3.79,1.86-4.78,1.66-9.29,3.61-13.81,5.95l-17.88,9.26c-1.15.6-2.36,1.18-3.64,1.81-3.04,1.48-6.18,3.01-8.96,4.86l-9.77,6.5-6.65,4.23-7.07,4.58-9.4,6.18-.21.14-.19.15-5.03,4.07c-6.21,5.02-7.57,12.41-3.64,19.78,2.52,4.73,6.46,7.29,9.94,9.56,1.09.71,2.11,1.38,3.06,2.08,1.39,1.04,2.78,2.41,4.25,3.86,1.54,1.51,3.12,3.08,4.9,4.44l8.9,6.85c2.16,1.66,4.28,3.5,6.52,5.45,2.84,2.47,5.78,5.02,8.91,7.27l4.63,3.33,9.69,8.3.07.06.07.06,9.09,7.21,15.34,12.61,16.98,14.44c.91.77,1.68,1.56,2.5,2.38,1.98,2,4.22,4.26,8.21,6.07,2.46,1.11,4.19,2.97,6.38,5.31,2.43,2.6,5.18,5.55,9.52,8.13,4.09,2.43,6.53,4.79,8.5,6.68,2.33,2.25,4.54,4.37,7.96,5.05,3.03.6,5.29.87,7.31.87,4.25,0,7.75-1.2,11.38-3.89,6.99-5.19,7.05-11.27,7.11-16.63v-.92s.24-16.33.24-16.33l.14-9.68.56-10.47v-.25s0-.25,0-.25l-.69-14.34.03-6.58c.9-14.26.98-25.53.25-36.46l.32-14.64c.03-1.43,0-2.8-.01-4.14-.04-2.69-.08-5.23.32-7.79.4-2.58.28-5.14.17-7.4-.03-.53-.05-1.06-.07-1.59l-.47-13.46c-.13-3.84,0-7.65.14-11.69.25-7.21.51-14.66-.86-22.26-1.25-6.98-7.91-11.86-16.18-11.86h0ZM321.6,191.91c.7-.56,1.46-.99,2.23-1.27,1.92-.69,3.49-1.96,4.86-3.09.55-.45,1.23-1,1.56-1.18l7.17-3.95,6.04-3.27.07-.04.07-.04,8.12-4.74c13.92-8.12,35.48-16.95,49.63-21.72l15.87-5.35c-.96,12.85-.93,25.75.11,40.36-.11,2.85-.39,5.21-.91,7.61l-.2.9.14.91c.41,2.69.27,5.62.11,8.72-.09,1.84-.18,3.74-.17,5.68l.11,11.92c.02,1.95.13,3.84.23,5.67.14,2.45.27,4.77.2,7.19l-.75,24.17v.12s0,.12,0,.12l.18,9.46-7.08-5.98-12.83-11.32-.3-.27-.34-.22-4.42-2.78c-.54-.51-1.08-1.02-1.61-1.53-3.07-2.91-6.24-5.92-10.1-8.51-.88-.59-1.73-1.09-2.48-1.52-1.18-.69-2.11-1.24-2.74-1.87-4.65-4.67-9.4-8.3-15.14-12.56-1.64-1.22-3.26-2.72-4.97-4.31-3.04-2.82-6.18-5.74-10.17-7.8-1.65-.85-2.62-1.76-4.09-3.14-.56-.52-1.19-1.11-1.9-1.74l-11.01-9.67c-.53-.47-1.06-.92-1.58-1.37-1.45-1.24-2.78-2.37-3.92-3.64h0Z"/>
    </g>
  </g>
  <circle class="cls-2" cx="534.74" cy="538.11" r="71.48"/>
</svg>