<?xml version="1.0" encoding="UTF-8"?>
<svg id="Layer_2" data-name="Layer 2" xmlns="http://www.w3.org/2000/svg" viewBox="0 0 1025.27 994.64">
  <defs>
    <style>
      .cls-1 {
        fill: none;
        stroke: #f2f2f2;
        stroke-miterlimit: 10;
        stroke-width: 40px;
      }

      .cls-2 {
        fill: #f2f2f2;
      }
    </style>
  </defs>
  <g>
    <path class="cls-2" d="M224.52,677.65c14.3-13.88,28.78-16.8,44.85-21.48,26.88-7.81,51.67-22.03,77.62-32.74,73.93-30.51,82-36.39,87.49-30.54,8.82,9.4-3.2,34.02-36.13,115.73-43.4,107.7-49.6,132.11-72.78,136.5-31.47,5.95-68.47-29.89-75.53-37.04-11.79-11.95-18.97-23.84-24.77-33.47-13.86-22.98-23.55-39.04-21.71-58.47,1.89-19.98,14.93-32.64,20.96-38.49Z"/>
    <path class="cls-2" d="M484.22,627.46c-21.19,8.6-29.65,31.99-49.33,73.8-18.37,39.01-27.55,58.52-36.11,72.41-14.47,23.47-23.5,32.93-26.34,53.01-1,7.09-4.24,29.97,9.28,47.68,3.33,4.37,12.44,14.65,48.06,21.78,36.79,7.36,81.45,16.3,105.74-9.4,12.16-12.86,14.01-28.89,15.87-45.02,3.1-26.82-4.55-34.4-19.81-96.29-14.49-58.78-21.74-88.18-21.63-91.57.2-5.97,1.16-21.93-7.53-27.27-6.27-3.85-14.83-.51-18.22.87Z"/>
    <path class="cls-2" d="M197.98,458.85c-6.55-.86-35.25-3.89-53.91,16.13-11.44,12.27-13.01,26.66-15.68,51.2-2.06,18.93-6.08,60.63,15.97,97.01,8.12,13.41,15.25,18.61,18.42,20.69,14.94,9.79,31.38,8.65,43.59,6.65,46.42-7.58,57.01-31.59,114.39-53.92,0,0,47.98-18.67,76.64-46.49,1.83-1.78,5.98-6.01,5.59-11.32-.7-9.43-15.24-16.12-27.14-21.01-28.74-11.8-43.11-17.69-64.28-20.08-24.95-2.82-62.09-11.63-113.59-38.85Z"/>
    <path class="cls-2" d="M219.61,277.13c-21.14-3.83-61,59.21-44.55,107.94,5.77,17.1,17.01,28.1,22.3,33.16,14.38,13.77,26.29,16.12,63.99,27.56,33.07,10.03,67.33,15.59,99.58,28.54,6.61,2.66,24.24,10.03,41.15,3.18,5.04-2.05,7.57-3.07,8.67-5.43,8.06-17.21-65.69-64.82-122.96-127.45-18.12-19.81-40.61-35.27-56.6-57.03-3.94-5.36-6.71-9.59-11.58-10.47Z"/>
    <path class="cls-2" d="M541.98,625.38c-7.72,4.81,5.65,29.59,25.47,114.87,10.5,45.16,13.83,68.66,33.03,97.65,10.46,15.78,22.98,34.68,43.26,38.85,21.37,4.39,40.36-9.84,63.29-27,18.67-13.98,28-20.97,29.59-29.55,5.03-27.19-41.79-49.46-115.34-120.81-50.72-49.21-70.55-79.46-79.31-74Z"/>
  </g>
  <g>
    <path class="cls-1" d="M828.76,196.77C657.97,25.98,378.06,29,203.55,203.51l618.47,618.47c174.51-174.51,177.53-454.43,6.74-625.21Z"/>
    <path class="cls-1" d="M196.39,829.14c170.79,170.79,450.89,167.58,625.63-7.16L203.55,203.51c-174.74,174.74-177.94,454.84-7.16,625.63Z"/>
  </g>
  <g>
    <g>
      <path class="cls-2" d="M833.75,728.11c-1.68,0-3.33-.52-4.9-1.54-3.33-2.17-7.42-6.21-12.17-12.01l-4.57-5.59-8.11-10.82-8.3-9.71-9.26-11.76-9.12-9.9-4.3-5.58c-1.73-2.25-3.5-4.43-5.73-7.06l-4.91-5.8-6.84-8.9-8.08-9.8-9.53-11.59-8.62-10.01-11.37-14.3c-3.77-4.74-7.05-10.74-2.84-19.27l.05-.1c.81-1.65,2.18-4.42,5.2-5.28l12.33-3.5,11.09-2.36,11.75-2.36,11.74-2.18,13.92-2.6,10.87-2.18,47.57-9.12,16.75-3,18.87-3.32,7.91-1.34c1.18-.2,2.29-.42,3.33-.63,2.41-.48,4.68-.93,6.85-.93,4.62,0,8.2,2.11,11.58,6.85l.42.58.04.72c.31,5.14-.36,10.01-1.01,14.72-.23,1.65-.46,3.36-.65,5.05l-1.21,10.89-3.93,20.19-4.55,17.93c-.29,1.14-.5,2.29-.73,3.52-.48,2.61-.98,5.31-2.25,7.96-1.78,3.72-2.78,7.53-3.83,11.57l-.47,1.8-5.06,11.36c-1.22,2.73-2.24,5.51-3.23,8.19-.98,2.68-2,5.45-3.23,8.23l-3.32,7.52-7.01,14.38-8.7,15.05-3.67,5.73-2.49,5.06-6.31,8.77c-3.04,4.23-6.48,6.46-9.95,6.46ZM779.25,637.49l9.58,11.23c1.05,1.23,1.98,2.47,2.89,3.68,1.68,2.24,3.27,4.36,5.42,6.17,1.33,1.12,2.21,2.67,2.99,4.04.4.7.77,1.36,1.13,1.82l9.26,12.01c.92,1.2,2.11,2.35,3.36,3.58,2.28,2.22,4.64,4.52,5.98,7.57,1-.82,3.32-3.52,7.71-12.32l5.57-11.16,7.46-15.37,2.51-7.43,2.73-4.59,4.67-13.73,2.08-5.1,2.32-8.17,1.74-6.64.09-.2c2.04-4.45,3.01-8.71,2.95-13.02v-.39s.11-.37.11-.37c2.55-8.39,4.3-17.27,5.34-27.16.04-.42.08-.78.1-1.09-.02,0-6.54,1.16-6.54,1.16l-39.2,7.29-7.04,1.37-11.95,2.15-27.53,5.27-26.33,5.49-9.65,1.52,3.19,4.58,7.53,8.28,7.83,10.61,8.81,10.61,5.96,7.76,8.93,10.56Z"/>
      <path class="cls-2" d="M893.32,538.08c3.39,0,6.32,1.28,9.55,5.8.4,6.65-.92,12.84-1.65,19.35l-1.2,10.79-3.89,20.02-4.53,17.86c-.93,3.68-1.13,7.5-2.82,11.02-2.12,4.43-3.14,8.8-4.42,13.61l-4.98,11.18c-2.47,5.54-4.03,10.93-6.46,16.43l-3.32,7.52-6.93,14.21-8.6,14.87-3.75,5.85-2.46,5-6.19,8.6c-1.69,2.34-4.51,5.42-7.92,5.42-1.12,0-2.31-.33-3.54-1.13-3.9-2.54-8.33-7.5-11.6-11.5l-4.5-5.5-8.16-10.89-8.29-9.7-9.32-11.84-9.11-9.89-4.23-5.49c-1.91-2.48-3.77-4.75-5.8-7.15l-4.84-5.7-6.85-8.9-8.13-9.87-9.52-11.59-8.66-10.05-11.31-14.22c-4.15-5.22-5.81-10.02-2.56-16.61.73-1.49,1.69-3.51,3.69-4.08l12.25-3.48,11.01-2.35,11.72-2.35,11.7-2.17,13.92-2.6,10.9-2.19,47.55-9.11,16.72-2.99,18.87-3.32,7.9-1.34c3.86-.66,6.97-1.53,9.77-1.53M819.5,690.41c3,0,7.53-8.46,10.31-14.03l5.57-11.16,7.54-15.53,2.48-7.32,2.73-4.59,4.73-13.91,2.11-5.16,2.36-8.3,1.69-6.48c2.03-4.42,3.25-9.11,3.18-14.1,2.77-9.12,4.43-18.16,5.44-27.63.12-1.11.25-2.75.07-3.55-.08-.33-.62-.42-1.23-.42s-1.36.11-1.72.17l-6.48,1.15-39.22,7.29-7.06,1.38-11.91,2.15-19.15,3.67-8.41,1.61-26.25,5.48-10.25,1.61c-.58.09-2.41.88-2.31,1.42.1.54.53,1.36.99,2.01l3.54,5.08,7.55,8.31,7.79,10.56,8.86,10.67,5.94,7.73,8.97,10.61,9.59,11.24c2.93,3.43,5.01,7.11,8.6,10.14,1.6,1.35,2.53,3.91,3.75,5.48l9.26,12.01c2.76,3.58,7.28,6.5,9.09,10.76.5,1.18,1.14,1.68,1.87,1.68M893.32,533.08h0c-2.42,0-4.81.48-7.34.98-1.05.21-2.13.42-3.26.62l-7.9,1.34-18.9,3.32-16.73,3h-.03s-.03.01-.03.01l-47.55,9.11-10.91,2.19-13.89,2.59-11.7,2.17h-.04s-.04.01-.04.01l-11.72,2.35h-.03s-.03.01-.03.01l-11.01,2.35-.16.03-.16.05-12.25,3.48c-4.09,1.16-5.83,4.68-6.76,6.58l-.05.1c-4.85,9.84-.88,16.89,3.13,21.93l11.31,14.22.06.08.06.08,8.63,10.01,9.49,11.54,8.08,9.81,6.79,8.83.07.09.08.09,4.84,5.7c2.2,2.59,3.94,4.74,5.66,6.97l4.23,5.49.13.18.15.16,8.98,9.75,9.2,11.69.06.08.07.08,8.18,9.57,8.06,10.76.06.08.07.08,4.5,5.5c4.98,6.09,9.14,10.18,12.74,12.52,1.98,1.29,4.09,1.94,6.26,1.94,3,0,7.52-1.3,11.98-7.5l6.19-8.6.24-.34.18-.37,2.34-4.74,3.6-5.61.06-.1.06-.1,8.6-14.87.09-.15.08-.16,6.93-14.21.04-.09.04-.09,3.32-7.52c1.26-2.86,2.3-5.67,3.3-8.38,1.02-2.76,1.98-5.38,3.16-8.03l4.98-11.18.16-.37.1-.39.42-1.62c1.07-4.08,1.99-7.61,3.67-11.11,1.41-2.95,1.97-5.95,2.46-8.59.22-1.18.43-2.3.69-3.36l4.53-17.86.03-.14.03-.14,3.89-20.02.04-.2.02-.2,1.2-10.79c.19-1.66.42-3.35.64-4.99.67-4.83,1.36-9.83,1.03-15.21l-.09-1.43-.84-1.17c-3.85-5.39-8.18-7.9-13.61-7.9h0ZM800.98,575.26l11.89-2.14h.04s.04-.01.04-.01l7.06-1.38,39.18-7.28,3.23-.57c-1.05,8.85-2.69,16.88-5,24.48l-.23.75v.78c.07,3.94-.82,7.84-2.71,11.94l-.18.4-.11.43-1.68,6.43-2.27,7.99-2,4.9-.06.14-.05.14-4.56,13.42-2.46,4.14-.27.45-.17.5-2.38,7.03-7.39,15.23-5.55,11.14c-2.31,4.63-3.97,7.43-5.12,9.11-1.4-1.92-3.06-3.54-4.58-5.03-1.19-1.16-2.31-2.26-3.13-3.31l-9.26-12.01c-.25-.32-.6-.94-.93-1.53-.84-1.48-1.88-3.31-3.55-4.72-1.93-1.63-3.44-3.64-5.04-5.76-.93-1.23-1.88-2.51-2.98-3.8l-9.59-11.24-8.88-10.5-5.87-7.64-.06-.07-.06-.07-8.77-10.56-7.71-10.45-.15-.21-.17-.19-7.34-8.07-.81-1.17,5.7-.9.12-.02.12-.03,26.21-5.47,8.37-1.6,19.12-3.66h0Z"/>
    </g>
    <g>
      <path class="cls-2" d="M698.83,542.59c-2.06,0-4.02-.12-5.99-.36l-8.15-1.01-20.2-4.31-7.64-2.8c-1.94-.71-3.92-1.33-5.84-1.93-3.53-1.1-7.18-2.24-10.8-4.01-6.3-1.83-11.93-5.77-16.27-11.41l-.29-.38-.13-.46c-2.94-10.21-3.68-20.81-2.26-32.41l.07-.56,4.82-7.62,11.33-8.07,6.31-3.44,16.14-7.7c.7-.33,1.36-.67,2.01-.99,1.62-.81,3.29-1.65,5.35-2.42l17.3-6.46c7.07-2.64,14.37-3.12,21.43-3.59.94-.06,1.87-.12,2.81-.19l21.96-1.58,28.92-1.9,53.79-3.36,29.93-1.71,11.27-.86,12.94-.41c.96-.03,1.91-.06,2.84-.06,1.87,0,4.31.1,6.63.91,7.71,2.66,11.96,7.06,12.99,13.45l1.8,11.17,1.02,11.55,1.6,24.26c.47,7.12-1.57,13.44-5.91,18.27l-.28.32-.37.2c-.41.22-4.04,2.21-6.05,2.64l-10.37,2.24-11.98,1.85-31.49,4.62-26.94,4.04-9.55,1.4-44.72,6.5-10.48,1.88-21.78,3.1-7.33.98c-3.05.41-5.81.6-8.44.6ZM697.53,519.72c2.07.39,4.27.58,6.74.58,2.77,0,5.85-.24,9.68-.76l17.28-2.35,10.57-1.68,47.99-7.4,14.36-2.13,11.82-1.81,12.04-1.96,13.78-1.68,17.83-3.19c.51-4.23.26-7.81-.12-11.95l-.54-5.77-.74-8.68-1.02-9.49-1.35-9.33c-1.12-.04-2.25-.05-3.41-.05-5.4,0-10.42.38-15.72.79-2.61.2-5.32.41-8.06.56l-22.26,1.26-33.53,2.16-14.01.85-10.17.63-12.96.72-17.33,1.2c-9.43.65-18.34,1.27-27.09,5.03l-7.42,3.18-8.56,3.73c-5.88,2.56-10.59,4.78-15.29,7.18l-11.72,6c-2.39,1.23-2.56,1.59-2.42,3.12l.65,7.03.74,6.58c.31,2.78,1.56,4.11,4.76,5.07l4.81,1.45,10.27,3.84,16.12,4.6,14.27,2.7Z"/>
      <path class="cls-2" d="M870.49,435.11c2.04,0,4.02.15,5.82.77,5.64,1.95,10.31,5.11,11.34,11.48l1.78,11.08,1.01,11.46,1.6,24.21c.4,6.08-1.14,11.82-5.27,16.43-1.27.7-4.02,2.09-5.37,2.39l-10.3,2.22-11.91,1.84-31.48,4.62-26.95,4.05-9.54,1.4-44.72,6.5-10.56,1.89-9.91,1.41-11.78,1.68-7.3.97c-2.74.37-5.43.58-8.11.58-1.89,0-3.77-.11-5.68-.34l-8.04-1-19.92-4.25-7.48-2.74c-5.63-2.06-11.17-3.22-16.6-5.93-6.08-1.71-11.33-5.58-15.19-10.59-3-10.43-3.47-20.9-2.18-31.41l4.26-6.73,10.81-7.69,6.12-3.34,16.08-7.67c2.47-1.18,4.43-2.3,7.16-3.32l17.3-6.46c7.63-2.84,15.54-3.06,23.54-3.63l21.96-1.58,28.9-1.9,53.78-3.36,29.91-1.71,11.2-.86,12.75-.4c.99-.03,1.98-.06,2.95-.06M704.27,522.81c3.33,0,6.7-.34,10.01-.79l17.28-2.35,10.63-1.69,23.39-3.61,15.03-2.32,9.55-1.47,14.34-2.13,11.83-1.82,11.96-1.95,13.85-1.69,19.67-3.52c.86-5.19.62-9.31.15-14.32l-.54-5.77-.74-8.66-1.03-9.55-1.66-11.47c-1.91-.1-3.77-.14-5.59-.14-8.27,0-15.82.89-23.92,1.35l-22.26,1.26-33.55,2.16-14,.85-10.17.63-12.94.72-17.36,1.2c-9.75.67-18.84,1.33-27.91,5.22l-7.42,3.18-8.57,3.74c-5.34,2.33-10.23,4.59-15.43,7.25l-11.72,6c-2.54,1.3-4.06,2.37-3.77,5.57l.65,7.03.75,6.63c.45,4,2.62,6.01,6.53,7.19l4.73,1.42,10.29,3.84,16.33,4.66,14.38,2.72c2.35.45,4.77.62,7.2.62M870.49,430.11c-.99,0-1.97.03-2.92.06h-.18s-12.75.41-12.75.41h-.11s-.11.01-.11.01l-11.16.86-29.86,1.7-53.81,3.37-28.92,1.9-21.99,1.58c-.93.07-1.87.13-2.8.19-7.24.48-14.72.98-22.13,3.75l-17.3,6.46c-2.19.82-3.92,1.68-5.59,2.52-.64.32-1.28.64-1.97.97l-16.08,7.67-.12.06-.12.06-6.12,3.34-.26.14-.24.17-10.81,7.69-.8.57-.53.83-4.26,6.73-.6.95-.14,1.12c-1.46,11.94-.7,22.87,2.33,33.41l.26.91.58.75c4.62,6,10.61,10.22,17.34,12.22,3.72,1.81,7.4,2.95,10.96,4.06,1.98.62,3.85,1.2,5.73,1.89l7.48,2.74.33.12.34.07,19.92,4.25.21.05.22.03,8.04,1c2.07.26,4.13.38,6.3.38,2.74,0,5.61-.2,8.77-.63l7.3-.97,11.82-1.68,9.91-1.41h.09s.09-.03.09-.03l10.48-1.87,44.64-6.49,9.55-1.4,26.97-4.05,31.46-4.62,11.94-1.84.15-.02.15-.03,10.3-2.22c2.26-.49,5.72-2.34,6.73-2.89l.74-.41.57-.63c4.79-5.34,7.05-12.29,6.54-20.1l-1.6-24.21v-.05s0-.05,0-.05l-1.01-11.46-.02-.18-.03-.18-1.78-11.08c-1.77-10.97-11.46-14.32-14.64-15.42-2.68-.92-5.39-1.04-7.45-1.04h0ZM735.9,461.51l12.91-.72,10.2-.63,14-.85,33.57-2.16,22.22-1.25c2.77-.16,5.48-.36,8.11-.56,5.26-.4,10.22-.78,15.53-.78.42,0,.83,0,1.24,0l1.05,7.24,1.01,9.4.73,8.6.54,5.81c.31,3.36.53,6.33.3,9.59l-15.89,2.84-13.72,1.67h-.1s-.1.03-.1.03l-11.96,1.95-11.78,1.81-14.32,2.13-9.58,1.47-15.03,2.32-23.39,3.61-10.6,1.68-17.23,2.34c-3.72.51-6.69.74-9.34.74-2.31,0-4.36-.18-6.27-.54l-14.16-2.68-15.92-4.54-10.1-3.77-.15-.06-.16-.05-4.73-1.42c-2.63-.79-2.84-1.56-3-2.96l-.74-6.58-.64-6.98s0-.05,0-.07c.21-.13.54-.32,1.08-.59l11.72-6c4.65-2.38,9.32-4.57,15.15-7.12l8.57-3.74,7.39-3.17c8.37-3.59,17.07-4.19,26.28-4.83l17.33-1.2h0Z"/>
    </g>
    <g>
      <path class="cls-2" d="M502.09,405.31c-3.71,0-6.65-.49-9.25-1.53-6.17-2.47-11.33-7.64-14.14-14.18l-3.95-9.2-4.31-8.82-2.5-4.81-7.28-17.77c-2.25-5.5-3.69-12.16-4.04-18.76l-.97-18.1c-.11-2.02-.22-4.03-.33-6.03-.45-8.04-.88-15.63-1-23.75l-.38-24.6-1.07-9.64-.37-10.71c-.13-3.77-.11-7.58-.09-11.27.02-4.52.04-9.19-.21-13.77l-.95-17v-7.67s-.32-7.63-.32-7.63l-.15-12.64c-.01-1.07-.06-2.15-.11-3.23-.13-2.94-.26-5.99.25-9.16.95-5.9,6.65-12.03,12.45-13.39,9.59-2.25,18.68-2.76,28.31-3.31l2.34-.13c.87-.05,1.81-.11,2.79-.18,3.5-.23,7.47-.49,11.57-.49,5.38,0,21.73,0,24.21,11.36l2.97,13.63,1.65,16.94,1.27,12.06,1.39,12.26.7,6.51,3.1,21.09,1.81,16.35,1.36,13.81,2.13,17.65.91,7.62,1.35,10.76,1.27,7.53,1.05,8.87.33,11.67-2.6,20.5-4.53,15.23-2.82,9.97-2.47,7.17-5.23,13.58c-1.3,3.38-4.6,6.8-7.12,8.55-4.68,3.25-10.16,3.8-14.93,4.06l-7.04.39c-1.64.09-3.34.19-5.05.19ZM499.6,384.16c2.67.2,4.83.3,6.79.3,3.26,0,6.02-.26,8.43-.8,3.45-.77,4.86-4.13,6.48-8.8.14-.4.28-.79.41-1.17l4.76-13.32c.63-1.76.98-3.38,1.39-5.26.19-.88.39-1.81.64-2.82l1.25-5.19c.37-1.54.92-3.08,1.46-4.57.84-2.34,1.63-4.56,1.71-6.6l.34-8.86-.85-16.31-.65-7.12-1.42-12.36-1.67-13.57c-1.24-5.7-1.79-11.05-2.36-16.7-.1-1-.21-2.02-.31-3.04l-.83-7.94-.56-5.51-1.12-10.23-1.57-14.52-1-8.32-2.53-16.63-.73-7.2-1.49-10.46c-.65-.41-2.29-.93-3.25-.93l-21.98,1.48-13.57,1.24-5.67,1.42.06,10.31.16,7.67.1,11.42.68,15.08.7,5.92.11,28.64.85,13.49.53,13.43.26,8.74.28,17.61,1.13,13.53,1.15,6.53,2.99,10.75c1.38,4.97,3.16,8.36,4.73,11.35,1.15,2.19,2.15,4.09,2.77,6.18,2.17,7.23,5.08,13.59,8.91,19.43.21.31.44.71.69,1.16.38.67,1.26,2.19,1.78,2.57Z"/>
      <path class="cls-2" d="M508.38,140.06c9.95,0,20.07,1.61,21.77,9.4l2.94,13.49,1.63,16.79,1.27,12.07,1.39,12.28.7,6.5,3.11,21.19,1.8,16.26,1.36,13.78,2.14,17.7.91,7.62,1.36,10.83,1.27,7.52,1.03,8.69.32,11.36-2.55,20.11-4.48,15.04-2.81,9.93-2.45,7.1-5.2,13.5c-1.05,2.72-3.9,5.78-6.21,7.39-4.08,2.84-8.93,3.36-13.64,3.62l-5.96.33c-1.97.11-3.98.25-5.99.25-2.84,0-5.67-.28-8.32-1.35-5.8-2.32-10.34-7.19-12.77-12.85l-3.98-9.26-4.34-8.87-2.47-4.76-7.23-17.66c-2.24-5.48-3.54-11.93-3.86-17.94l-.97-18.1c-.54-9.99-1.18-19.56-1.34-29.68l-.38-24.72-1.07-9.67-.37-10.61c-.29-8.33.16-16.7-.31-25.09l-.94-16.93v-7.6s-.32-7.73-.32-7.73l-.15-12.57c-.05-3.94-.54-7.91.11-11.96.77-4.83,5.58-10.18,10.55-11.35,10.15-2.38,20.05-2.79,30.23-3.39,3.87-.23,9.02-.66,14.22-.66M506.4,386.96c3.07,0,6.11-.22,8.98-.86,5.54-1.23,7.13-7.18,8.7-11.58l4.76-13.32c.99-2.77,1.33-5.11,2.1-8.33l1.25-5.19c.91-3.78,3.09-7.78,3.24-11.66l.35-8.97-.86-16.43-.66-7.22-1.43-12.42-1.69-13.71c-1.45-6.61-1.94-12.82-2.65-19.59l-.83-7.94-.56-5.51-1.12-10.25-1.57-14.52-1.01-8.35-2.53-16.64-.73-7.19-1.56-10.99c-.21-1.5-3.93-2.59-5.65-2.59-.08,0-.15,0-.23,0l-21.92,1.47-13.82,1.27-7.77,1.94.07,12.27.16,7.71.1,11.39.69,15.26.7,5.87.11,28.57.86,13.56.53,13.37.26,8.72.28,17.66,1.15,13.72,1.2,6.77,3.02,10.87c2.46,8.83,6.15,13,7.52,17.57,2.17,7.24,5.13,13.86,9.21,20.08.9,1.38,2.36,4.7,4.21,4.84,2.34.18,4.75.32,7.15.32M508.38,135.06h0c-4.19,0-8.37.28-11.73.5-.98.06-1.91.13-2.77.18l-2.34.13c-9.31.53-18.94,1.08-28.74,3.37-6.8,1.59-13.24,8.51-14.35,15.42-.55,3.42-.41,6.6-.28,9.67.05,1.09.09,2.13.1,3.15l.15,12.57v.07s0,.07,0,.07l.31,7.63v7.51s0,.14,0,.14v.14s.95,16.93.95,16.93c.25,4.5.23,9.13.21,13.62-.02,3.71-.04,7.55.1,11.37l.37,10.61v.19s.03.19.03.19l1.05,9.43.38,24.48c.13,8.17.55,15.79,1.01,23.86.11,1.99.23,4,.33,6.02l.97,18.1c.37,6.87,1.87,13.81,4.23,19.57l7.23,17.66.09.21.1.2,2.44,4.71,4.26,8.71,3.93,9.14c3.07,7.14,8.72,12.8,15.5,15.52,2.91,1.16,6.14,1.71,10.18,1.71,1.78,0,3.52-.1,5.19-.2l1.07-.06,5.96-.33c5.11-.28,11-.88,16.22-4.51,2.91-2.03,6.52-5.81,8.02-9.7l5.2-13.5.03-.08.03-.08,2.45-7.1.05-.13.04-.14,2.8-9.9,4.47-15.01.12-.39.05-.41,2.55-20.11.05-.38v-.39s-.34-11.36-.34-11.36v-.22s-.03-.22-.03-.22l-1.03-8.69v-.12s-.03-.12-.03-.12l-1.25-7.41-1.35-10.73-.91-7.59-2.13-17.65-1.35-13.72v-.03s0-.03,0-.03l-1.8-16.26v-.09s-.02-.09-.02-.09l-3.1-21.09-.69-6.4-1.4-12.31-1.27-12.03-1.63-16.75-.03-.29-.06-.29-2.94-13.49c-2.91-13.33-20.78-13.33-26.65-13.33h0ZM491.17,180.19l21.78-1.46c.23.01.59.09.94.19l1.28,8.99.72,7.09v.12s.03.12.03.12l2.52,16.57.99,8.24,1.56,14.49,1.12,10.26.56,5.47.84,7.95c.11,1.02.21,2.03.31,3.03.58,5.69,1.12,11.07,2.38,16.87l1.66,13.48,1.42,12.32.65,7.06.84,16.1-.34,8.74c-.06,1.66-.79,3.7-1.57,5.86-.56,1.55-1.13,3.15-1.53,4.83l-1.25,5.19c-.25,1.05-.46,1.98-.65,2.88-.4,1.86-.72,3.33-1.3,4.94l-4.76,13.32c-.14.39-.28.79-.42,1.19-1.4,4.02-2.48,6.7-4.66,7.19-2.24.5-4.82.74-7.89.74-1.64,0-3.43-.07-5.57-.21-.29-.44-.63-1.03-.84-1.4-.26-.45-.51-.88-.77-1.29-3.69-5.64-6.51-11.78-8.6-18.77-.7-2.33-1.79-4.42-2.95-6.63-1.51-2.88-3.22-6.14-4.54-10.85l-2.96-10.64-1.11-6.3-1.11-13.33-.28-17.49v-.03s0-.03,0-.03l-.26-8.72-.53-13.42v-.06s0-.06,0-.06l-.85-13.42-.11-28.42v-.29s-.03-.28-.03-.28l-.68-5.69-.68-14.99-.1-11.3v-.03s0-.03,0-.03l-.16-7.67-.05-8.31,3.58-.9,13.38-1.23h0Z"/>
    </g>
    <g>
      <path class="cls-2" d="M599.52,437.61c-2.06,0-4.08-.26-6.01-.77l-.27-.07-.24-.13c-1.93-1-4.34-2.75-7.36-5.35-1.02-.83-2.09-1.69-3.17-2.54-3.83-3.04-7.8-6.18-11.15-10.22l-.2-.24-3.66-7.64-.75-9.46,10.3-29.14,9.41-22.15c.15-.35.29-.7.43-1.04.66-1.59,1.27-3.09,2.37-4.72l4.58-6.79,7.56-8.5,16.32-17.05,5.36-5.5,13.83-14.99,10.92-11.62,4.84-5.22,12.05-12.64,9.3-9.61,9.73-9.95,32.23-33.08c4.1-4.2,8.86-6.52,13.41-6.52,2.74,0,5.36.8,7.79,2.39l7.66,4.99,8.96,7.97c4.31,2.49,7.38,5.41,10.62,8.51.6.57,1.21,1.16,1.84,1.75l15.38,14.42,2.93,8.31c1.1,3.12.77,8.46-1.46,11.14l-10.08,12.13-12.25,14.41c-1.24,2.73-2.97,5.14-5.3,7.36-1.57,1.5-2.89,3.2-4.29,4.99-.45.57-.89,1.15-1.35,1.72l-6.98,8.71-4.82,5.79-12.22,15.16-18.24,21.35-3.66,4.58-3.38,4.47-8.97,10.38c-.83.96-1.5,2.01-2.21,3.12-1.21,1.9-2.46,3.86-4.62,5.57-1.3,1.03-2.62,2.71-3.86,4.37l-3.69,4.92c-4.24,5.66-9.45,12.02-15.95,16.22l-12.85,8.3-5.8,3.78-14.26,7.03-3.8,1.92-10.48,5.33c-4.96,2.52-9.83,3.8-14.48,3.8ZM604.67,361.18c-1.96,3.86-3.25,7.7-3.97,11.75l-.07.41-3.05,5.56c-1.05,1.91-1.55,3.93-2.07,6.08-.34,1.38-.69,2.8-1.2,4.3l-2.28,6.65c-.12.36-.29.79-.48,1.27-1.51,3.81-1.27,4.6-1.1,4.76l11.56,10.81c.26.24.75.29,1.13.29h0c.97,0,2.31-.34,3.79-.96l12.33-5.19,5.04-2.73,5.78-3.25,4.53-2.34,8.6-4.65c2.21-1.19,4.55-2.54,6.7-4.26l6.66-5.34,4.38-4.65,6.07-6.74,7.27-9.03,7.68-8.87c.9-1.03,1.67-2.13,2.5-3.29,1.33-1.87,2.7-3.8,4.63-5.54,1.75-1.57,3.08-3.52,4.5-5.59.82-1.19,1.66-2.42,2.59-3.59l11.36-14.14,10.54-12.92,7.69-9.5,10-11.46,8.6-10.53,10.23-12.85c.62-.78.7-1.22-.08-2.11l-3.75-4.23-13.68-12.69-6.65-5.34-9.88-7.65c-.24-.18-.4-.21-.52-.21-.47,0-1.17.41-1.79,1.05l-27.86,28.82-11.48,11.79-19.1,19.96-10.57,11.07-8.47,8.9-11.54,12.8-9.46,10.16c-3.77,4.05-6.31,7.38-8.48,11.14l-3.71,6.41-2.89,5.69Z"/>
      <path class="cls-2" d="M729.33,205.18c2.15,0,4.31.61,6.42,1.98l7.5,4.89,9.02,8.02c4.94,2.8,8.16,6.23,12.22,10.04l14.93,14,2.72,7.74c.83,2.36.59,6.76-1.03,8.71l-10.08,12.13-12.46,14.67c-1.14,2.62-2.75,4.85-4.89,6.9-2.23,2.13-3.94,4.56-5.87,6.96l-6.98,8.71-4.79,5.76-12.25,15.18-18.19,21.3-3.71,4.65-3.37,4.46-8.91,10.32c-2.41,2.79-3.48,5.97-6.5,8.37-1.59,1.26-3.09,3.19-4.31,4.82l-3.69,4.92c-4.28,5.72-9.3,11.74-15.31,15.62l-12.85,8.3-5.68,3.7-14.13,6.96-3.83,1.94-10.49,5.34c-4.17,2.12-8.75,3.53-13.35,3.53-1.79,0-3.59-.21-5.37-.68-2.21-1.15-4.89-3.32-6.88-5.03-4.81-3.96-9.92-7.53-14.03-12.47l-3.32-6.94-.68-8.47,10.1-28.56,9.38-22.08c.82-1.93,1.4-3.59,2.57-5.33l4.49-6.66,7.45-8.37,9.93-10.37,6.33-6.61,5.34-5.48,13.88-15.04,10.9-11.61,4.85-5.23,12.02-12.61,9.29-9.59,9.72-9.95,32.23-33.08c3.37-3.46,7.45-5.76,11.62-5.76M603.12,415.55c1.66,0,3.48-.62,4.76-1.16l12.44-5.23,5.15-2.78,5.81-3.27,4.45-2.3,8.64-4.68c2.48-1.34,4.84-2.72,7.07-4.51l6.8-5.45,4.5-4.78,6.15-6.84,7.31-9.08,7.63-8.8c2.46-2.84,4.05-6.03,6.91-8.6,3.07-2.75,4.92-6.42,7.37-9.47l11.36-14.14,10.53-12.91,7.7-9.5,9.94-11.39,8.66-10.59,10.25-12.87c1.46-1.84,1.34-3.62-.17-5.32l-3.83-4.32-13.84-12.84-6.72-5.4-9.91-7.67c-.66-.51-1.36-.73-2.05-.73-1.29,0-2.58.77-3.59,1.81l-27.86,28.82-11.47,11.78-19.11,19.97-10.58,11.07-8.47,8.9-11.58,12.85-9.43,10.14c-3.44,3.7-6.27,7.2-8.82,11.59l-3.75,6.47-2.92,5.76c-2.04,4.03-3.43,8.1-4.2,12.45l-2.85,5.2c-1.91,3.49-2.16,7.01-3.45,10.77l-2.28,6.65c-.71,2.06-3.08,6.65-.92,8.66l11.56,10.81c.75.71,1.76.96,2.83.96M729.34,200.18h0c-5.23,0-10.63,2.58-15.2,7.27l-32.23,33.08-9.71,9.94-9.3,9.61-12.05,12.64-.02.03-.02.03-4.85,5.23-10.88,11.58-13.86,15.02-5.29,5.43-6.36,6.65-9.93,10.37-.06.07-.06.07-7.45,8.37-.22.25-.19.28-4.49,6.66c-1.24,1.83-1.93,3.53-2.61,5.16-.14.33-.27.67-.42,1.01l-9.38,22.08-.06.14-.05.15-10.1,28.56-.35,1,.08,1.06.68,8.47.07.92.4.84,3.32,6.94.27.56.4.48c3.52,4.24,7.59,7.46,11.52,10.58,1.04.82,2.11,1.67,3.13,2.51,3.15,2.71,5.7,4.55,7.79,5.64l.49.25.53.14c2.13.56,4.37.85,6.65.85,5.05,0,10.3-1.37,15.62-4.07l10.49-5.34,3.79-1.92,14.11-6.95.27-.13.25-.16,5.68-3.7,12.83-8.29c6.83-4.41,12.22-10.98,16.59-16.82l3.69-4.92c.71-.95,2.2-2.93,3.42-3.91,2.48-1.97,3.91-4.21,5.17-6.18.66-1.03,1.28-2.01,2-2.83l8.91-10.32.11-.12.1-.13,3.33-4.41,3.62-4.53,18.14-21.24.05-.05.04-.05,12.22-15.16,4.76-5.73.03-.04.03-.04,6.98-8.71c.47-.58.92-1.17,1.37-1.75,1.34-1.72,2.6-3.35,4.05-4.72,2.47-2.36,4.35-4.92,5.7-7.81l12.01-14.13.02-.02.02-.02,10.08-12.13c2.89-3.48,3.24-9.75,1.9-13.57l-2.72-7.74-.41-1.15-.89-.84-14.93-14c-.63-.59-1.23-1.17-1.83-1.74-3.3-3.15-6.42-6.13-10.87-8.73l-8.64-7.68-.28-.25-.31-.2-7.5-4.89c-2.85-1.86-5.93-2.8-9.15-2.8h0ZM642.61,316.66l8.42-8.85,10.57-11.07,19.11-19.97,11.44-11.75,27.77-28.72,8.96,6.94,6.55,5.26,13.53,12.55,3.21,3.61-9.76,12.26-8.59,10.51-9.88,11.33-.06.07-.06.07-7.7,9.5-10.51,12.89-11.38,14.17c-.99,1.24-1.86,2.51-2.71,3.74-1.33,1.94-2.58,3.78-4.11,5.14-2.15,1.92-3.66,4.06-5,5.95-.79,1.11-1.53,2.15-2.35,3.1l-7.63,8.8-.06.07-.06.07-7.23,8.98-6.02,6.69-4.23,4.48-6.53,5.24c-2,1.6-4.22,2.88-6.32,4.01l-8.6,4.65-4.41,2.28-.08.04-.08.04-5.78,3.25-4.89,2.65-12.22,5.14c-1.42.6-2.28.73-2.66.76l-10.36-9.7c.19-.84.7-2.12.94-2.74.19-.48.37-.94.52-1.38l2.28-6.65c.55-1.6.91-3.08,1.26-4.51.51-2.07.95-3.85,1.84-5.47l2.85-5.2.4-.73.14-.82c.67-3.8,1.89-7.41,3.73-11.05l2.85-5.63,3.68-6.34c2.08-3.59,4.52-6.78,8.15-10.69l9.43-10.14.03-.03.03-.03,11.54-12.8h0Z"/>
    </g>
    <g>
      <path class="cls-2" d="M586.24,312.65c-1.57,0-2.94-.33-4.08-.98-3.11-1.77-5.9-4.82-7.46-7.09-1.84-2.67-2.32-6.02-2.74-8.98-.09-.66-.19-1.31-.29-1.92l-1.21-7-1.05-7.46-6.46-37.05-1.34-9.27-1.63-8.61-1.71-11.41-1.33-9.13-1.28-7.66-1.57-12.62-1.67-8.32c-2.47-12.27-3.74-22.26-4-31.42-.09-3.26,1.03-6.18,3.24-8.46,2.36-2.43,5.73-3.82,9.25-3.82.47,0,.94.02,1.4.08l6.69.73,12.7,1.89,6.3,1.11,8.73,1.67,16.74,3.8,10.3,2.75c.89.24,1.7.44,2.48.63,1.85.46,3.59.9,5.7,1.63l12.78,4.44,5.05,1.48,5.98,2.74,23.59,9.9,3.89,2.12c5.56,2.17,11.12,4.97,18,9.06l1.15.68c4.65,2.73,9.45,5.55,11.7,11.94l.17.49-.51,7.2-25.05,25.3-10.47,9.1-8.13,7.75-23.3,22.73-7.46,6.36-11.18,11.02-7.2,7.25-8.77,9-6.58,5.49-10.45,9.58c-2.11,1.93-5.77,3.28-8.89,3.28ZM574.96,189.49l1.69,10.78,3.39,17.83,1.04,7.88,3.36,22.96,1.44,9.22,4.3,28.73c.05.19.24.49.46.77l9.39-9.19,7.6-7.68,8.77-8.74,7.75-7.66,16.85-15.96,19.01-18.58,8.29-8.4,6.4-6.52-2.49-1.23-5.66-3.19c-2.67-1.5-5.26-2.52-8.25-3.69l-5.16-2.02c-1.62-.63-3.12-1.34-4.57-2.02-2.13-1-4.14-1.94-6.36-2.6l-.22-.07-.21-.11c-3.47-1.8-7.02-2.93-10.84-3.44l-.49-.06-.43-.25c-4.07-2.34-8.97-3.89-15.44-4.9l-.37-.06-.33-.16c-3.24-1.56-6.62-2.33-10.19-3.14l-1.57-.36-5.46-1.26-18.76-3.99-5.21-.95c-.28-.05-.58-.09-.87-.1-.01.15-.02.29,0,.38l1.08,8.53,2.03,9.24Z"/>
      <path class="cls-2" d="M560.88,133.95c.38,0,.75.02,1.13.06l6.59.71,12.7,1.89,6.23,1.1,8.7,1.66,16.66,3.79,10.21,2.73c3.01.8,5.14,1.22,8,2.21l12.84,4.46,4.94,1.44,5.81,2.67,23.55,9.88,3.92,2.13c6.26,2.43,11.93,5.46,17.78,8.94,4.88,2.9,9.65,5.3,11.77,11.3l-.41,5.76-24.33,24.57-10.45,9.07-8.17,7.79-23.26,22.69-7.47,6.36-11.24,11.09-7.22,7.27-8.7,8.92-6.53,5.44-10.5,9.62c-1.52,1.4-4.56,2.63-7.2,2.63-1.05,0-2.04-.2-2.85-.65-2.44-1.38-5.01-3.97-6.64-6.33-1.89-2.73-2.09-6.75-2.63-9.9l-1.21-7-1.04-7.38-6.47-37.13-1.34-9.25-1.64-8.66-1.69-11.32-1.33-9.12-1.27-7.61-1.58-12.71-1.69-8.41c-2.07-10.29-3.66-20.71-3.95-31-.17-5.99,4.86-9.71,9.99-9.71M591,290.72s.08,0,.11,0l10.68-10.45,7.63-7.71,8.76-8.73,7.75-7.65,16.81-15.92,19.04-18.6,8.33-8.43,8.82-8.98-5.51-2.74-5.6-3.16c-3-1.69-5.9-2.79-9.16-4.07l-4.57-1.79c-3.86-1.51-7.14-3.49-11.12-4.69-3.59-1.87-7.45-3.14-11.67-3.7-4.94-2.84-10.5-4.3-16.3-5.21-3.98-1.92-7.95-2.68-12.28-3.68l-5.46-1.26-18.81-4-5.28-.97c-.44-.08-1.02-.15-1.58-.15-.68,0-1.32.1-1.65.39-.49.45-.67,2.09-.58,2.79l1.1,8.65,2.04,9.28,1.68,10.71,3.39,17.84,1.03,7.81,1.55,10.53,1.82,12.46,1.45,9.24,4.3,28.71c.2,1.35,1.94,3.45,3.28,3.45M560.88,128.95h0c-4.19,0-8.21,1.67-11.04,4.58-2.65,2.73-4.05,6.38-3.94,10.27.27,9.31,1.55,19.43,4.05,31.84l1.66,8.23,1.56,12.53v.1s.03.1.03.1l1.26,7.56,1.32,9.07,1.69,11.34v.1s.03.09.03.09l1.62,8.56,1.32,9.14v.07s.02.07.02.07l6.46,37.05,1.03,7.3v.08s.02.08.02.08l1.21,7c.1.59.19,1.21.28,1.84.44,3.07.99,6.89,3.16,10.04,1.72,2.5,4.81,5.87,8.29,7.84,1.53.86,3.31,1.3,5.32,1.3,3.76,0,8.01-1.58,10.58-3.94l10.41-9.54,6.44-5.37.2-.17.18-.18,8.7-8.92,7.17-7.22,11.1-10.94,7.33-6.24.13-.11.12-.12,23.24-22.67,8.07-7.69,10.36-9,.14-.12.13-.13,24.33-24.57,1.3-1.32.13-1.85.41-5.76.07-1.04-.35-.98c-2.56-7.25-8-10.45-12.79-13.27-.38-.22-.76-.44-1.14-.67-6.94-4.13-12.57-6.97-18.22-9.18l-3.64-1.98-.22-.12-.23-.1-23.47-9.85-5.74-2.63-.33-.15-.35-.1-4.82-1.41-12.73-4.42c-2.21-.77-4.01-1.22-5.92-1.7-.76-.19-1.56-.39-2.44-.62l-10.21-2.73-.09-.02-.09-.02-16.66-3.79-.08-.02-.08-.02-8.7-1.66h-.03s-.04-.01-.04-.01l-6.23-1.1h-.07s-.07-.02-.07-.02l-12.7-1.89h-.1s-.1-.03-.1-.03l-6.59-.71c-.55-.06-1.11-.09-1.67-.09h0ZM575.4,179.82l-.69-5.47,2.78.51,18.7,3.98,5.42,1.25c.53.12,1.06.24,1.58.36,3.58.81,6.66,1.51,9.65,2.95l.67.32.73.11c6.15.96,10.79,2.42,14.58,4.6l.85.49.98.13c3.53.47,6.81,1.51,10.02,3.18l.42.22.45.14c2.04.61,3.97,1.52,6.01,2.47,1.49.7,3.03,1.42,4.72,2.08l4.57,1.79.59.23c2.91,1.14,5.42,2.12,7.94,3.54l5.2,2.93-4.01,4.08-8.29,8.39-18.98,18.54-16.79,15.89-.04.04-.04.04-7.75,7.65-8.78,8.74-7.63,7.7-6.17,6.04-3.73-24.94-1.45-9.25-1.82-12.44-1.54-10.5-1.03-7.78-.02-.14-.03-.14-3.38-17.76-1.67-10.63-.02-.15-.03-.15-1.99-9.06h0Z"/>
    </g>
    <g>
      <path class="cls-2" d="M710.8,422.76c-5.58-.3-9.44-3.38-11.5-9.15-2.32-6.52.66-11.15,3.1-14.06l7.08-8.45c1.72-2.06,2.94-4.04,3.74-6.06l.18-.47.35-.36c.46-.47.95-.95,1.44-1.44,1.97-1.95,4-3.97,5.02-5.93.2-.39.38-.77.54-1.13.6-1.29,1.27-2.74,2.65-3.92,2.18-1.87,3.67-4.14,5.25-6.55.63-.96,1.28-1.96,1.99-2.93l7.73-10.7,7.47-8.77,4.35-6.08,8.9-11.55,8.76-11.6,7.27-10.07,9.62-12.42,7.38-8.98,8.42-9.52c2.1-2.37,4.87-3.67,7.81-3.67,2.65,0,5.24,1.08,7.3,3.05.49.46,1.02.95,1.57,1.45,1.94,1.77,4.15,3.79,5.49,5.86l4.66,7.18,5.14,7.9,4.02,6.13,4.65,6.94,5.59,8.29,3.76,7.96,3.61,7.63,2.99,5.16,8.34,17.66,5.24,11.98,5.68,15.43,6.43,21.62c.95,3.21.27,6.55-1.97,9.66-2.62,3.63-7.1,6.44-10.42,6.54l-22.72.71-31.58.96-53.14,1-42.77,1.2-9.41-.51ZM724.77,402.93l64.65-1.4,25.83-.71,26.02-.61c.11,0,.29-.04.5-.08l-3.54-12.07-2.24-4.35-.06-.21c-2.05-6.58-4.58-12.88-8.44-21.09l-6.27-13.31-2.25-3.78c-1.43-2.39-2.57-4.72-3.68-6.97-.93-1.89-1.89-3.83-3.01-5.81l-3.37-5.94-3.21-5.25c-2.57-4.2-5.52-7.91-9.39-11.79l-8.62,10.83c-1.12,1.41-2.29,2.7-3.42,3.94-2.18,2.4-4.25,4.66-5.75,7.58l-.13.24-5.68,6.81c-1.63,3.24-3.19,5.95-6.43,8.72-.81.69-1.33,1.72-1.93,2.91-.56,1.1-1.18,2.34-2.16,3.5l-6.04,7.2c-.58.7-1,1.54-1.43,2.44-.56,1.16-1.2,2.47-2.31,3.66l-4.82,5.15-4.9,6.33-9.03,11.44-6.23,8.33-.72.96c-.84,1.11-1.65,2.18-2.4,3.32.03,0,.47,0,.47,0Z"/>
      <path class="cls-2" d="M808.35,271.44c1.96,0,3.93.79,5.58,2.36,2.14,2.04,5.17,4.51,6.69,6.86l4.66,7.18,5.14,7.9,4.03,6.14,4.66,6.96,5.48,8.14,3.68,7.79,3.66,7.72,2.99,5.16,8.29,17.56,5.18,11.85,5.63,15.28,6.41,21.55c2.01,6.76-6.3,12.87-10.08,12.99l-22.72.71-31.58.96-53.11,1-42.69,1.2-9.31-.5c-4.78-.26-7.66-2.96-9.28-7.49-1.59-4.45-.35-8.03,2.66-11.62l7.08-8.45c1.72-2.06,3.18-4.29,4.15-6.75,2.36-2.41,5.42-5.12,6.89-7.97.86-1.66,1.31-3.2,2.59-4.3,3.39-2.91,5.23-6.58,7.64-9.91l7.67-10.62,7.47-8.78,4.41-6.16,8.85-11.48,8.78-11.62,7.3-10.11,9.57-12.36,7.34-8.93,8.36-9.45c1.67-1.89,3.8-2.83,5.93-2.83M724.4,405.43c.14,0,.28,0,.43,0l64.65-1.4,25.84-.71,26.01-.61c.57-.01,1.75-.29,2.22-.48.47-.19.91-1.79.77-2.28l-3.76-12.82-2.25-4.37c-2.36-7.58-5.22-14.31-8.57-21.41l-6.32-13.42-2.32-3.88c-2.56-4.29-4.16-8.33-6.66-12.73l-3.37-5.94-3.25-5.32c-3.25-5.31-6.96-9.67-11.76-14.2l-10.34,12.99c-3.22,4.05-6.96,7.13-9.44,11.92l-5.69,6.82c-1.69,3.37-3.09,5.76-5.95,8.2-2.12,1.81-2.58,4.55-4.38,6.71l-6.04,7.2c-1.62,1.93-2.01,4.24-3.65,5.99l-4.9,5.24-4.98,6.42-9.02,11.43-6.27,8.38c-1.73,2.32-3.43,4.41-4.83,7.19,1.15.9,2.41,1.09,3.82,1.09M808.36,266.44h0c-3.67,0-7.1,1.6-9.68,4.52l-8.36,9.45-.06.07-.06.07-7.34,8.93-.05.06-.04.06-9.57,12.36-.05.07-.05.07-7.27,10.07-8.74,11.58-8.82,11.44-.05.07-.05.07-4.29,5.99-7.33,8.62-.13.15-.12.16-7.67,10.62c-.74,1.02-1.4,2.04-2.05,3.03-1.48,2.25-2.87,4.38-4.78,6.02-1.79,1.53-2.62,3.33-3.29,4.77-.16.34-.31.68-.5,1.03-.83,1.61-2.81,3.57-4.56,5.3-.51.5-1,.99-1.47,1.47l-.71.72-.37.94c-.69,1.76-1.78,3.52-3.33,5.36l-7.08,8.45c-4.44,5.31-5.6,10.7-3.53,16.5,3.02,8.48,9.12,10.56,13.72,10.8l9.31.5h.21s.21,0,.21,0l42.69-1.2,53.07-1h.03s.03,0,.03,0l31.58-.96,22.72-.71c4.09-.13,9.29-3.32,12.37-7.58,2.68-3.71,3.51-7.91,2.34-11.83l-6.41-21.55-.05-.15-.05-.15-5.63-15.28-.05-.14-.06-.14-5.18-11.85-.03-.07-.03-.06-8.29-17.56-.09-.19-.11-.18-2.89-4.98-3.57-7.54-3.68-7.78-.16-.34-.21-.32-5.48-8.14-4.66-6.95-4-6.1-5.14-7.89-4.65-7.18c-1.52-2.34-3.85-4.47-5.9-6.34-.54-.49-1.06-.96-1.53-1.42-2.53-2.41-5.74-3.74-9.03-3.74h0ZM774.81,340.36l5.32-6.38.35-.42.25-.49c1.35-2.62,3.21-4.67,5.37-7.04,1.16-1.27,2.36-2.59,3.53-4.06l6.84-8.6c2.8,3.03,5.07,6.01,7.08,9.31l3.21,5.25,3.33,5.87c1.08,1.91,1.99,3.74,2.94,5.68,1.13,2.29,2.3,4.67,3.78,7.15l2.19,3.67,6.22,13.2c3.81,8.1,6.3,14.31,8.32,20.77l.13.41.2.39,2.03,3.94,2.57,8.78-23.28.54-25.86.71-60.05,1.3c.04-.06.09-.12.13-.17l6.23-8.33,8.98-11.38,4.86-6.27,4.74-5.07c1.37-1.46,2.13-3.02,2.73-4.27.38-.79.71-1.46,1.1-1.92l6.04-7.2c1.16-1.38,1.89-2.82,2.47-3.98.48-.95.89-1.77,1.33-2.14,3.49-2.98,5.24-5.96,6.91-9.24h0Z"/>
    </g>
    <g>
      <path class="cls-2" d="M418.34,314.08c-1.61,0-3.44-.22-5.93-.71-2.43-.48-4.06-2.05-5.95-3.87-1.75-1.69-3.94-3.79-7.63-5.99-3.51-2.08-5.78-4.52-7.78-6.67-1.94-2.08-3.61-3.87-6.05-4.98-3.13-1.42-4.85-3.16-6.52-4.84-.7-.71-1.42-1.44-2.26-2.15l-14.61-12.43-13.21-10.86-7.81-6.19-8.45-7.24-4.04-2.91c-2.62-1.88-5.11-4.05-7.52-6.15-1.95-1.69-3.79-3.29-5.69-4.76l-7.65-5.88c-1.44-1.1-2.76-2.41-4.04-3.67-1.31-1.29-2.55-2.51-3.84-3.47-.86-.64-1.77-1.23-2.72-1.86-2.94-1.92-5.98-3.9-7.93-7.55-2.98-5.59-2.01-10.97,2.67-14.76l4.42-3.57,8.15-5.36,6.06-3.92,5.77-3.67,8.39-5.58c2.29-1.52,4.93-2.81,7.49-4.05,1.08-.52,2.15-1.04,3.17-1.57l15.36-7.96c3.8-1.97,7.61-3.61,11.63-5.01,1.1-.38,2.29-1.04,3.54-1.73,1.29-.71,2.62-1.45,4.04-1.98l13.1-4.94c.92-.35,1.84-.7,2.74-1.04,4.09-1.57,7.95-3.05,12.31-4.19,2.49-.65,4.99-1.45,7.41-2.23,4.19-1.34,8.53-2.73,13.16-3.47.73-.12,1.49-.18,2.26-.18,5.09,0,11.06,2.73,12.13,8.71,1.14,6.34.92,12.65.71,18.74-.12,3.35-.24,6.81-.12,10.17l.4,11.57c.02.46.04.93.06,1.39.09,1.94.19,3.95-.13,5.99-.37,2.35-.33,4.61-.29,7,.02,1.15.04,2.31.01,3.49l-.27,12.66c.63,9.35.56,18.99-.21,31.23l-.02,5.76.6,12.5-.49,9.21-.12,8.3-.21,14.82c-.05,4.59-.1,8.93-5.38,12.86-2.78,2.07-5.47,2.99-8.7,2.99ZM392.42,271.88l11.21,9.89,9.11,7.69-.22-12.22.64-20.76c.07-2.16-.05-4.19-.17-6.34-.09-1.55-.18-3.15-.2-4.78l-.09-10.24c-.01-1.62.06-3.23.14-4.78.14-2.76.27-5.36-.12-7.85l-.07-.46.1-.45c.47-2.17.73-4.38.82-6.95-.94-13.09-.93-24.57.02-36.07-.11-.34-.24-.64-.34-.86h0c-.28,0-.5.04-.56.05l-15.22,5.13c-12.24,4.12-30.9,11.77-42.97,18.81l-6.98,4.07-5.3,2.86-6.14,3.39c-.42.23-1.02.72-1.6,1.19-1.07.87-2.29,1.86-3.66,2.35-1.36.49-2.67,1.42-3.75,2.63,1.28,1.77,2.86,3.12,4.64,4.65.44.38.89.76,1.34,1.16l9.46,8.3c.58.51,1.1,1,1.59,1.46,1.33,1.24,2.28,2.14,3.92,2.98,3.2,1.65,5.81,4.07,8.34,6.42,1.51,1.4,2.93,2.72,4.42,3.83,4.86,3.62,8.9,6.69,12.8,10.62.71.71,1.64,1.26,2.72,1.89.65.38,1.32.77,2.04,1.25,3.19,2.14,5.86,4.67,8.44,7.12.5.48,1.01.96,1.52,1.43l4.11,2.59Z"/>
      <path class="cls-2" d="M420.38,139.2c4.29,0,8.88,2.24,9.67,6.65,1.71,9.53.22,19.05.55,28.56l.4,11.57c.08,2.3.31,4.66-.04,6.91-.58,3.74-.23,7.18-.31,10.82l-.28,12.77c.71,10.49.46,20.59-.21,31.08l-.02,5.9.6,12.43-.49,9.08-.13,8.4-.2,14.03c-.07,4.75.17,8.3-4.38,11.69-2.41,1.79-4.55,2.5-7.21,2.5-1.58,0-3.34-.25-5.44-.67-3.48-.69-5.04-4.95-12.79-9.56-6.57-3.91-8.44-9.22-14.08-11.77-3.95-1.79-5.27-4.13-8.2-6.62l-14.61-12.43-13.24-10.88-7.84-6.22-8.46-7.25-4.12-2.97c-4.55-3.28-8.75-7.47-13.15-10.85l-7.65-5.88c-2.71-2.09-5.14-5.1-7.91-7.17-3.56-2.65-7.72-4.41-9.94-8.58-2.29-4.28-1.95-8.41,2.04-11.63l4.32-3.49,8.05-5.29,6.05-3.91,5.75-3.66,8.43-5.61c3.09-2.05,7.02-3.72,10.42-5.49l15.36-7.96c3.67-1.9,7.33-3.48,11.3-4.87,2.53-.88,5.05-2.76,7.64-3.73l13.1-4.94c4.99-1.88,9.61-3.8,14.8-5.15,6.85-1.79,13.24-4.51,20.34-5.65.6-.1,1.23-.15,1.86-.15M412.78,292.18c1.12,0,2.49-.66,2.48-1.42l-.25-13.44.64-20.76c.12-3.91-.34-7.48-.37-11.22l-.09-10.24c-.04-4.38.65-8.75,0-12.99.54-2.49.79-4.88.88-7.53-.88-12.2-.99-24.03.05-36.3-.26-.91-.85-2.46-1.44-2.82-.31-.19-.87-.27-1.43-.27-.51,0-1.01.07-1.34.18l-15.24,5.13c-13.21,4.45-31.76,12.21-43.43,19.02l-6.98,4.07-5.23,2.82-6.16,3.4c-1.48.82-3.24,2.79-4.9,3.39-2.34.84-4.46,2.6-5.94,4.85,1.92,3.42,4.64,5.4,7.38,7.81l9.46,8.3c2.2,1.93,3.4,3.44,6.02,4.78,4.72,2.43,8.26,6.95,12.41,10.03,4.49,3.34,8.61,6.44,12.53,10.37,1.42,1.43,3.23,2.18,5.14,3.45,3.68,2.46,6.66,5.52,9.81,8.47l4.14,2.61,11.06,9.76,9.73,8.22c.26.22.65.32,1.07.32M420.38,134.2h0c-.9,0-1.79.07-2.66.21-4.81.78-9.24,2.19-13.52,3.56-2.5.8-4.86,1.55-7.28,2.19-4.49,1.18-8.6,2.75-12.57,4.27-.9.35-1.81.69-2.73,1.04l-13.1,4.94c-1.59.6-3.07,1.41-4.37,2.13-1.16.64-2.25,1.24-3.15,1.55-4.14,1.44-8.05,3.13-11.96,5.15l-15.36,7.96c-.98.51-2.02,1.01-3.11,1.54-2.63,1.28-5.36,2.61-7.78,4.22l-8.39,5.58-5.71,3.63-6.08,3.94-8.08,5.31-.21.14-.19.15-4.32,3.49c-5.62,4.54-6.86,11.22-3.31,17.88,2.25,4.22,5.72,6.48,8.77,8.47.92.6,1.79,1.17,2.59,1.76,1.16.86,2.33,2.02,3.58,3.25,1.33,1.32,2.71,2.68,4.27,3.87l7.65,5.88c1.84,1.42,3.65,2.99,5.57,4.66,2.45,2.13,4.99,4.34,7.7,6.29l3.95,2.84,8.3,7.11.07.06.07.06,7.81,6.19,13.17,10.83,14.58,12.4c.76.65,1.41,1.31,2.11,2.01,1.74,1.76,3.72,3.76,7.27,5.36,1.98.9,3.43,2.44,5.25,4.4,2.01,2.16,4.52,4.84,8.33,7.11,3.44,2.05,5.43,3.96,7.17,5.64,1.99,1.92,4.05,3.9,7.19,4.52,2.65.53,4.63.76,6.42.76,3.81,0,6.95-1.07,10.19-3.48,6.28-4.67,6.34-10.07,6.39-14.84v-.79s.21-14.03.21-14.03l.12-8.3.48-8.98v-.25s0-.25,0-.25l-.59-12.3.02-5.62c.78-12.26.84-21.96.21-31.37l.27-12.55c.03-1.24,0-2.43-.01-3.58-.04-2.28-.07-4.43.26-6.57.36-2.29.25-4.53.16-6.5-.02-.45-.04-.91-.06-1.36l-.4-11.57c-.11-3.27,0-6.54.12-10,.22-6.23.44-12.67-.75-19.27-1.14-6.34-7.14-10.77-14.59-10.77h0ZM330.57,218.44c.36-.22.72-.4,1.09-.53,1.77-.64,3.22-1.82,4.38-2.77.4-.32,1-.82,1.23-.94l6.16-3.4,5.19-2.8.07-.04.07-.04,6.98-4.07c11.91-6.96,30.39-14.52,42.51-18.6l12.64-4.26c-.75,10.71-.69,21.52.17,33.69-.09,2.39-.33,4.37-.76,6.38l-.2.9.14.91c.34,2.24.22,4.72.09,7.35-.08,1.59-.16,3.23-.14,4.92l.09,10.24c.02,1.69.11,3.33.2,4.91.12,2.09.23,4.07.17,6.11l-.64,20.76v.12s0,.12,0,.12l.12,6.58-4.89-4.13-11.02-9.72-.3-.27-.34-.22-3.74-2.35c-.45-.42-.89-.84-1.33-1.26-2.66-2.52-5.4-5.13-8.77-7.38-.78-.52-1.51-.95-2.16-1.33-.97-.57-1.73-1.02-2.21-1.5-4.03-4.04-8.14-7.18-13.08-10.86-1.38-1.03-2.76-2.3-4.21-3.66-2.52-2.34-5.38-5-8.89-6.81-1.33-.68-2.09-1.4-3.36-2.59-.48-.45-1.03-.96-1.65-1.51l-9.46-8.3c-.46-.4-.91-.79-1.37-1.18-1.03-.88-1.95-1.67-2.76-2.49h0Z"/>
    </g>
  </g>
  <circle class="cls-2" cx="512.63" cy="515.79" r="61.41"/>
</svg>