<?xml version="1.0" encoding="UTF-8"?>
<svg id="Layer_1" data-name="Layer 1" xmlns="http://www.w3.org/2000/svg" viewBox="0 0 4607.5 925">
  <defs>
    <style>
      .cls-1 {
        fill: none;
        stroke: #f2f2f2;
        stroke-miterlimit: 10;
        stroke-width: 40px;
      }

      .cls-2 {
        fill: #f2f2f2;
      }
    </style>
  </defs>
  <g>
    <g>
      <path class="cls-2" d="M174.24,627.34c14.31-13.89,28.8-16.81,44.87-21.49,26.9-7.82,51.7-22.04,77.66-32.76,73.97-30.53,82.05-36.41,87.53-30.56,8.82,9.4-3.21,34.03-36.15,115.79-43.43,107.76-49.62,132.18-72.81,136.57-31.48,5.95-68.5-29.9-75.57-37.06-11.8-11.95-18.98-23.85-24.79-33.49-13.87-22.99-23.56-39.06-21.72-58.5,1.89-19.99,14.94-32.65,20.97-38.51Z"/>
      <path class="cls-2" d="M434.07,577.13c-21.2,8.61-29.66,32.01-49.35,73.84-18.38,39.04-27.56,58.55-36.13,72.45-14.48,23.49-23.51,32.95-26.35,53.04-1,7.09-4.24,29.98,9.28,47.71,3.33,4.37,12.44,14.65,48.09,21.79,36.81,7.37,81.49,16.31,105.8-9.4,12.16-12.87,14.02-28.91,15.88-45.05,3.1-26.83-4.55-34.42-19.82-96.34-14.5-58.82-21.75-88.22-21.64-91.62.2-5.97,1.17-21.94-7.53-27.29-6.27-3.86-14.84-.51-18.23.87Z"/>
      <path class="cls-2" d="M147.68,408.42c-6.55-.86-35.27-3.9-53.94,16.14-11.44,12.28-13.01,26.67-15.69,51.22-2.07,18.94-6.08,60.66,15.98,97.06,8.13,13.41,15.26,18.62,18.43,20.7,14.95,9.79,31.39,8.65,43.62,6.65,46.45-7.58,57.04-31.61,114.45-53.94,0,0,48.01-18.68,76.68-46.52,1.83-1.78,5.98-6.01,5.59-11.33-.7-9.44-15.25-16.13-27.16-21.02-28.76-11.8-43.13-17.7-64.31-20.09-24.97-2.82-62.12-11.64-113.65-38.87Z"/>
      <path class="cls-2" d="M169.32,226.61c-21.15-3.83-61.03,59.25-44.57,108,5.78,17.11,17.02,28.11,22.31,33.17,14.39,13.78,26.31,16.13,64.02,27.57,33.09,10.04,67.36,15.6,99.63,28.56,6.61,2.66,24.25,10.04,41.17,3.18,5.05-2.05,7.57-3.07,8.68-5.44,8.06-17.22-65.73-64.86-123.02-127.52-18.13-19.82-40.63-35.29-56.63-57.06-3.95-5.37-6.72-9.59-11.58-10.47Z"/>
      <path class="cls-2" d="M491.86,575.04c-7.72,4.82,5.65,29.6,25.48,114.93,10.5,45.18,13.83,68.7,33.05,97.7,10.46,15.79,23,34.7,43.29,38.87,21.38,4.39,40.38-9.84,63.32-27.02,18.68-13.99,28.02-20.98,29.61-29.56,5.04-27.2-41.82-49.48-115.4-120.87-50.75-49.23-70.59-79.5-79.35-74.04Z"/>
    </g>
    <g>
      <path class="cls-1" d="M778.79,146.21C607.92-24.67,327.85-21.65,153.25,152.95l618.8,618.8c174.6-174.6,177.62-454.67,6.75-625.54Z"/>
      <path class="cls-1" d="M146.09,778.91c170.88,170.88,451.13,167.67,625.96-7.16L153.25,152.95c-174.83,174.83-178.04,455.08-7.16,625.96Z"/>
    </g>
    <g>
      <g>
        <path class="cls-2" d="M783.79,677.83c-1.69,0-3.33-.52-4.9-1.54-3.33-2.17-7.42-6.21-12.17-12.02l-4.57-5.59-8.12-10.83-8.3-9.72-9.27-11.77-9.13-9.91-4.3-5.58c-1.74-2.26-3.5-4.43-5.73-7.06l-4.91-5.8-6.85-8.9-8.09-9.81-9.53-11.6-8.63-10.01-11.38-14.31c-3.77-4.74-7.06-10.74-2.85-19.28l.05-.1c.81-1.65,2.18-4.42,5.2-5.28l12.34-3.5,11.09-2.36,11.75-2.36,11.75-2.18,13.92-2.6,10.88-2.18,47.6-9.12,16.76-3,18.88-3.32,7.92-1.35c1.18-.2,2.29-.42,3.33-.63,2.41-.48,4.68-.93,6.86-.93,4.63,0,8.2,2.11,11.59,6.85l.42.58.04.72c.31,5.14-.36,10.01-1.01,14.73-.23,1.65-.46,3.36-.65,5.06l-1.22,10.9-3.93,20.2-4.55,17.94c-.29,1.14-.5,2.3-.73,3.52-.48,2.61-.98,5.31-2.25,7.97-1.78,3.72-2.78,7.53-3.83,11.57l-.47,1.8-5.06,11.37c-1.22,2.73-2.24,5.51-3.23,8.19-.99,2.68-2.01,5.45-3.24,8.24l-3.32,7.52-7.01,14.38-8.7,15.05-3.68,5.74-2.49,5.06-6.31,8.78c-3.04,4.23-6.48,6.46-9.95,6.46ZM729.26,587.16l9.59,11.24c1.05,1.23,1.98,2.47,2.89,3.68,1.68,2.24,3.27,4.36,5.43,6.18,1.33,1.12,2.21,2.67,2.99,4.04.4.7.77,1.36,1.13,1.82l9.27,12.01c.92,1.2,2.11,2.35,3.36,3.58,2.28,2.22,4.64,4.52,5.98,7.57,1-.82,3.32-3.52,7.72-12.33l5.57-11.17,7.46-15.38,2.52-7.43,2.73-4.6,4.67-13.74,2.08-5.1,2.32-8.17,1.74-6.65.09-.2c2.05-4.45,3.01-8.71,2.95-13.03v-.39s.11-.37.11-.37c2.55-8.39,4.3-17.28,5.35-27.18.04-.42.08-.79.1-1.09-.02,0-6.54,1.16-6.54,1.16l-39.23,7.29-7.04,1.37-11.95,2.15-27.55,5.27-26.35,5.5-9.65,1.52,3.2,4.58,7.53,8.29,7.83,10.61,8.82,10.62,5.97,7.76,8.94,10.57Z"/>
        <path class="cls-2" d="M843.39,487.7c3.39,0,6.32,1.29,9.55,5.81.4,6.65-.92,12.84-1.65,19.36l-1.2,10.8-3.9,20.03-4.54,17.87c-.93,3.68-1.13,7.5-2.82,11.03-2.12,4.43-3.14,8.81-4.42,13.62l-4.98,11.19c-2.47,5.54-4.03,10.93-6.47,16.44l-3.32,7.52-6.93,14.22-8.6,14.88-3.75,5.85-2.46,5-6.19,8.61c-1.69,2.35-4.51,5.42-7.92,5.42-1.12,0-2.31-.33-3.54-1.13-3.9-2.54-8.33-7.51-11.6-11.5l-4.5-5.51-8.16-10.89-8.29-9.7-9.33-11.84-9.12-9.9-4.23-5.5c-1.91-2.48-3.77-4.75-5.81-7.15l-4.84-5.71-6.85-8.9-8.14-9.87-9.53-11.59-8.67-10.06-11.32-14.23c-4.15-5.22-5.81-10.02-2.56-16.62.73-1.49,1.69-3.51,3.69-4.08l12.26-3.48,11.01-2.35,11.72-2.35,11.71-2.17,13.93-2.6,10.91-2.19,47.58-9.12,16.73-2.99,18.88-3.32,7.9-1.34c3.86-.66,6.98-1.53,9.77-1.53M769.53,640.11c3,0,7.54-8.47,10.31-14.04l5.57-11.17,7.54-15.54,2.48-7.33,2.73-4.59,4.73-13.92,2.11-5.16,2.36-8.31,1.7-6.49c2.03-4.42,3.25-9.12,3.18-14.11,2.77-9.12,4.44-18.17,5.44-27.64.12-1.11.25-2.75.07-3.55-.08-.33-.62-.43-1.23-.43s-1.36.11-1.72.17l-6.48,1.15-39.24,7.3-7.06,1.38-11.92,2.15-19.16,3.67-8.42,1.61-26.27,5.48-10.26,1.61c-.58.09-2.41.89-2.31,1.43.1.54.53,1.36.99,2.01l3.55,5.08,7.56,8.31,7.8,10.57,8.86,10.67,5.95,7.74,8.98,10.61,9.59,11.25c2.93,3.43,5.01,7.12,8.61,10.14,1.6,1.35,2.54,3.91,3.75,5.48l9.27,12.01c2.76,3.58,7.29,6.5,9.09,10.76.5,1.18,1.14,1.68,1.87,1.68M843.39,482.7h0c-2.42,0-4.81.48-7.35.98-1.05.21-2.13.42-3.26.62l-7.9,1.34-18.91,3.33-16.74,3h-.03s-.03.01-.03.01l-47.58,9.12-10.92,2.19-13.9,2.6-11.7,2.17h-.04s-.04.01-.04.01l-11.72,2.35h-.03s-.03.01-.03.01l-11.01,2.35-.16.03-.16.05-12.26,3.48c-4.09,1.16-5.83,4.69-6.76,6.58l-.05.1c-4.86,9.85-.88,16.9,3.13,21.94l11.32,14.23.06.08.06.08,8.63,10.01,9.49,11.55,8.09,9.81,6.8,8.83.07.09.08.09,4.84,5.71c2.2,2.59,3.94,4.74,5.66,6.97l4.23,5.5.13.18.15.16,8.99,9.76,9.21,11.69.06.08.07.08,8.19,9.58,8.07,10.76.06.08.07.08,4.5,5.51c4.98,6.09,9.15,10.19,12.74,12.53,1.98,1.29,4.09,1.94,6.27,1.94,3,0,7.52-1.3,11.98-7.5l6.19-8.61.24-.34.18-.37,2.34-4.75,3.6-5.62.06-.1.06-.1,8.6-14.88.09-.15.08-.16,6.93-14.22.04-.09.04-.09,3.32-7.52c1.26-2.86,2.3-5.67,3.3-8.39,1.02-2.77,1.98-5.38,3.16-8.04l4.98-11.19.16-.37.1-.39.42-1.62c1.07-4.09,1.99-7.62,3.67-11.12,1.41-2.95,1.97-5.95,2.46-8.59.22-1.18.43-2.3.7-3.36l4.54-17.87.03-.14.03-.14,3.9-20.03.04-.2.02-.2,1.2-10.8c.19-1.66.42-3.35.64-4.99.67-4.84,1.36-9.84,1.03-15.22l-.09-1.43-.84-1.17c-3.85-5.39-8.18-7.9-13.62-7.9h0ZM750.99,524.89l11.89-2.14h.04s.04-.01.04-.01l7.06-1.38,39.2-7.29,3.23-.58c-1.05,8.86-2.69,16.89-5.01,24.5l-.23.75v.78c.07,3.94-.82,7.85-2.71,11.95l-.18.4-.11.43-1.68,6.44-2.27,7.99-2,4.91-.06.14-.05.14-4.56,13.42-2.46,4.15-.27.45-.17.5-2.38,7.03-7.39,15.24-5.56,11.14c-2.31,4.63-3.98,7.43-5.13,9.12-1.4-1.93-3.06-3.55-4.59-5.04-1.19-1.16-2.31-2.26-3.13-3.32l-9.27-12.01c-.25-.32-.6-.94-.93-1.53-.84-1.48-1.88-3.31-3.55-4.72-1.94-1.63-3.44-3.64-5.04-5.77-.93-1.23-1.89-2.51-2.98-3.8l-9.59-11.25-8.89-10.51-5.87-7.64-.06-.07-.06-.07-8.77-10.56-7.71-10.45-.15-.21-.17-.19-7.34-8.08-.82-1.17,5.7-.9.12-.02.12-.03,26.22-5.47,8.38-1.6,19.13-3.66h0Z"/>
      </g>
      <g>
        <path class="cls-2" d="M648.79,492.2c-2.06,0-4.03-.12-6-.36l-8.15-1.01-20.21-4.31-7.65-2.8c-1.94-.71-3.93-1.33-5.85-1.93-3.53-1.1-7.19-2.24-10.8-4.01-6.31-1.83-11.93-5.77-16.28-11.41l-.29-.38-.13-.46c-2.94-10.21-3.68-20.82-2.26-32.43l.07-.56,4.83-7.62,11.34-8.07,6.32-3.44,16.15-7.7c.7-.33,1.36-.67,2.01-.99,1.62-.81,3.29-1.65,5.35-2.42l17.31-6.46c7.07-2.64,14.38-3.13,21.44-3.6.94-.06,1.87-.12,2.81-.19l21.97-1.58,28.93-1.9,53.81-3.37,29.94-1.71,11.27-.86,12.95-.41c.96-.03,1.91-.06,2.84-.06,1.87,0,4.31.1,6.64.91,7.72,2.67,11.97,7.07,13,13.46l1.8,11.17,1.02,11.56,1.6,24.28c.47,7.12-1.57,13.44-5.91,18.28l-.28.32-.37.2c-.41.22-4.04,2.21-6.05,2.64l-10.38,2.24-11.99,1.85-31.51,4.62-26.96,4.05-9.55,1.4-44.75,6.51-10.49,1.88-21.79,3.1-7.33.98c-3.05.41-5.82.6-8.45.6ZM647.49,469.33c2.07.39,4.27.58,6.74.58h0c2.77,0,5.85-.24,9.68-.76l17.29-2.35,10.58-1.68,48.02-7.4,14.36-2.14,11.82-1.82,12.05-1.96,13.79-1.68,17.84-3.19c.51-4.23.26-7.82-.12-11.96l-.54-5.77-.74-8.68-1.02-9.5-1.35-9.34c-1.12-.04-2.25-.05-3.42-.05-5.41,0-10.42.38-15.73.79-2.62.2-5.32.41-8.07.56l-22.27,1.26-33.55,2.16-14.02.85-10.17.63-12.96.72-17.34,1.2c-9.44.65-18.35,1.27-27.11,5.03l-7.42,3.18-8.56,3.74c-5.88,2.57-10.6,4.78-15.3,7.19l-11.73,6c-2.4,1.23-2.56,1.6-2.42,3.12l.65,7.04.74,6.58c.31,2.78,1.56,4.11,4.76,5.08l4.82,1.45,10.28,3.84,16.13,4.6,14.28,2.7Z"/>
        <path class="cls-2" d="M820.54,384.67c2.04,0,4.02.15,5.82.77,5.65,1.95,10.32,5.11,11.34,11.49l1.78,11.08,1.01,11.47,1.6,24.22c.4,6.09-1.14,11.83-5.27,16.44-1.27.7-4.02,2.1-5.37,2.39l-10.3,2.22-11.91,1.84-31.49,4.62-26.97,4.05-9.54,1.4-44.74,6.51-10.57,1.89-9.92,1.41-11.78,1.68-7.31.97c-2.75.37-5.43.58-8.12.58-1.89,0-3.77-.11-5.69-.34l-8.04-1-19.93-4.25-7.48-2.74c-5.64-2.06-11.17-3.23-16.61-5.94-6.08-1.71-11.34-5.58-15.2-10.6-3-10.43-3.47-20.91-2.18-31.43l4.26-6.74,10.82-7.7,6.13-3.34,16.09-7.67c2.48-1.18,4.43-2.3,7.17-3.32l17.31-6.46c7.63-2.85,15.55-3.06,23.55-3.64l21.97-1.58,28.92-1.9,53.81-3.37,29.93-1.71,11.21-.86,12.76-.4c.99-.03,1.98-.06,2.95-.06M654.23,472.42c3.33,0,6.71-.34,10.02-.79l17.29-2.35,10.64-1.69,23.41-3.61,15.04-2.32,9.56-1.47,14.35-2.13,11.84-1.82,11.97-1.95,13.86-1.69,19.68-3.52c.86-5.19.62-9.32.15-14.33l-.54-5.77-.74-8.66-1.03-9.55-1.66-11.48c-1.91-.1-3.77-.14-5.59-.14-8.28,0-15.83.89-23.94,1.35l-22.27,1.26-33.57,2.16-14.01.85-10.17.63-12.95.72-17.37,1.2c-9.76.67-18.85,1.33-27.92,5.23l-7.42,3.18-8.58,3.74c-5.34,2.33-10.23,4.59-15.44,7.25l-11.73,6c-2.54,1.3-4.07,2.38-3.77,5.57l.65,7.04.75,6.63c.45,4,2.62,6.01,6.53,7.19l4.74,1.43,10.3,3.85,16.34,4.66,14.39,2.72c2.35.45,4.77.63,7.2.63M820.54,379.67c-.99,0-1.97.03-2.92.06h-.19s-12.76.41-12.76.41h-.11s-.11.01-.11.01l-11.16.86-29.88,1.7-53.83,3.37-28.93,1.9-22,1.58c-.93.07-1.87.13-2.8.19-7.24.48-14.73.98-22.14,3.75l-17.31,6.46c-2.19.82-3.92,1.68-5.6,2.52-.64.32-1.28.64-1.97.97l-16.09,7.67-.12.06-.12.06-6.13,3.34-.26.14-.24.17-10.82,7.7-.8.57-.53.83-4.26,6.74-.6.95-.14,1.12c-1.47,11.95-.7,22.88,2.34,33.42l.26.91.58.75c4.62,6,10.61,10.22,17.35,12.22,3.72,1.81,7.4,2.95,10.97,4.06,1.98.62,3.85,1.2,5.73,1.89l7.48,2.74.33.12.34.07,19.93,4.25.21.05.22.03,8.04,1c2.07.26,4.13.38,6.3.38,2.74,0,5.61-.2,8.78-.63l7.31-.97,11.83-1.68,9.92-1.41h.09s.09-.03.09-.03l10.49-1.88,44.66-6.5,9.55-1.4,26.98-4.05,31.48-4.62,11.95-1.84.15-.02.15-.03,10.3-2.22c2.26-.49,5.73-2.34,6.73-2.9l.74-.41.57-.63c4.8-5.34,7.06-12.3,6.54-20.11l-1.6-24.22v-.05s0-.05,0-.05l-1.01-11.47-.02-.18-.03-.18-1.78-11.08c-1.77-10.97-11.46-14.32-14.65-15.42-2.68-.92-5.39-1.04-7.45-1.04h0ZM685.89,411.08l12.91-.72,10.2-.63,14.01-.85,33.58-2.16,22.23-1.25c2.77-.16,5.49-.36,8.11-.56,5.26-.4,10.23-.78,15.54-.78.42,0,.83,0,1.24,0l1.05,7.24,1.01,9.41.73,8.61.54,5.81c.31,3.36.53,6.34.3,9.6l-15.9,2.85-13.72,1.67h-.1s-.1.03-.1.03l-11.97,1.95-11.79,1.81-14.33,2.13-9.59,1.48-15.04,2.32-23.41,3.61-10.6,1.69-17.24,2.34c-3.72.51-6.69.74-9.35.74-2.31,0-4.36-.18-6.27-.54l-14.17-2.68-15.93-4.54-10.11-3.78-.15-.06-.16-.05-4.74-1.43c-2.64-.79-2.84-1.56-3-2.96l-.74-6.58-.64-6.99s0-.05,0-.07c.21-.13.54-.32,1.08-.59l11.73-6c4.65-2.38,9.32-4.58,15.16-7.12l8.58-3.74,7.39-3.17c8.37-3.59,17.08-4.19,26.3-4.83l17.34-1.2h0Z"/>
      </g>
      <g>
        <path class="cls-2" d="M451.95,354.86c-3.71,0-6.65-.49-9.26-1.53-6.18-2.48-11.33-7.65-14.14-14.19l-3.96-9.21-4.31-8.82-2.5-4.81-7.28-17.78c-2.25-5.5-3.69-12.17-4.04-18.76l-.97-18.11c-.11-2.02-.22-4.03-.33-6.03-.45-8.04-.88-15.64-1.01-23.77l-.38-24.61-1.07-9.65-.37-10.71c-.13-3.77-.11-7.58-.09-11.28.02-4.52.04-9.2-.21-13.77l-.95-17v-7.67s-.32-7.63-.32-7.63l-.15-12.64c-.01-1.07-.06-2.15-.11-3.23-.13-2.95-.26-5.99.25-9.17.95-5.9,6.65-12.03,12.45-13.39,9.59-2.25,18.69-2.77,28.32-3.31l2.34-.13c.87-.05,1.81-.11,2.79-.18,3.5-.23,7.47-.49,11.57-.49,5.38,0,21.75,0,24.22,11.37l2.97,13.64,1.65,16.95,1.27,12.06,1.39,12.27.7,6.52,3.1,21.1,1.81,16.36,1.36,13.82,2.14,17.65.91,7.63,1.36,10.77,1.27,7.53,1.05,8.87.33,11.67-2.6,20.51-4.54,15.24-2.82,9.98-2.48,7.17-5.23,13.59c-1.3,3.38-4.6,6.8-7.12,8.55-4.68,3.25-10.16,3.81-14.93,4.07l-7.05.39c-1.64.09-3.33.19-5.05.19ZM449.46,333.7c2.67.2,4.83.3,6.8.3h0c3.26,0,6.02-.26,8.44-.8,3.45-.77,4.86-4.14,6.49-8.81.14-.4.27-.79.41-1.17l4.76-13.32c.63-1.76.98-3.38,1.39-5.26.19-.88.39-1.81.64-2.83l1.25-5.19c.37-1.54.92-3.08,1.46-4.57.84-2.34,1.63-4.56,1.71-6.61l.34-8.86-.85-16.32-.65-7.12-1.42-12.36-1.67-13.58c-1.24-5.7-1.79-11.05-2.36-16.71-.1-1.01-.21-2.02-.31-3.05l-.83-7.94-.56-5.52-1.12-10.23-1.57-14.53-1-8.32-2.54-16.7-.72-7.14-1.49-10.46c-.65-.41-2.3-.93-3.25-.93l-21.99,1.48-13.58,1.24-5.68,1.42.06,10.32.16,7.67.1,11.42.68,15.09.7,5.92.11,28.66.85,13.5.53,13.43.26,8.74.28,17.62,1.13,13.53,1.16,6.54,2.99,10.76c1.38,4.97,3.16,8.36,4.73,11.35,1.15,2.19,2.15,4.09,2.77,6.18,2.17,7.23,5.08,13.59,8.91,19.44.21.31.44.71.69,1.16.38.67,1.26,2.2,1.79,2.58Z"/>
        <path class="cls-2" d="M458.25,89.47c9.95,0,20.08,1.61,21.78,9.4l2.94,13.49,1.63,16.8,1.27,12.08,1.39,12.29.7,6.5,3.12,21.2,1.8,16.27,1.36,13.79,2.14,17.71.91,7.62,1.36,10.84,1.27,7.52,1.03,8.7.33,11.37-2.55,20.12-4.48,15.04-2.81,9.94-2.45,7.11-5.2,13.51c-1.05,2.72-3.9,5.79-6.21,7.4-4.08,2.84-8.93,3.37-13.64,3.62l-5.97.33c-1.97.11-3.98.25-5.99.25-2.84,0-5.67-.28-8.33-1.35-5.8-2.32-10.34-7.19-12.78-12.86l-3.98-9.26-4.34-8.88-2.47-4.76-7.24-17.67c-2.24-5.48-3.54-11.94-3.86-17.95l-.97-18.11c-.54-9.99-1.18-19.57-1.34-29.7l-.38-24.73-1.07-9.67-.37-10.62c-.29-8.34.16-16.7-.31-25.1l-.94-16.94v-7.61s-.32-7.73-.32-7.73l-.15-12.57c-.05-3.94-.54-7.91.11-11.97.78-4.83,5.58-10.19,10.55-11.35,10.16-2.38,20.06-2.79,30.24-3.39,3.87-.23,9.02-.66,14.22-.66M456.26,336.49c3.07,0,6.12-.22,8.98-.86,5.55-1.24,7.14-7.19,8.71-11.58l4.76-13.32c.99-2.77,1.33-5.12,2.1-8.34l1.25-5.19c.91-3.78,3.09-7.78,3.24-11.67l.35-8.98-.86-16.44-.66-7.22-1.43-12.42-1.69-13.71c-1.45-6.61-1.94-12.82-2.65-19.6l-.83-7.94-.56-5.51-1.12-10.25-1.57-14.53-1.01-8.35-2.54-16.65-.73-7.19-1.56-10.99c-.21-1.5-3.94-2.6-5.66-2.6-.08,0-.15,0-.23,0l-21.93,1.47-13.83,1.27-7.77,1.94.07,12.28.16,7.71.1,11.39.69,15.27.7,5.87.11,28.59.86,13.57.53,13.37.26,8.72.28,17.67,1.15,13.73,1.2,6.77,3.03,10.87c2.46,8.83,6.15,13.01,7.52,17.58,2.17,7.25,5.14,13.87,9.21,20.09.9,1.38,2.36,4.7,4.21,4.84,2.34.18,4.75.32,7.16.32M458.25,84.47h0c-4.19,0-8.38.28-11.74.5-.98.06-1.91.13-2.77.18l-2.34.13c-9.32.53-18.95,1.08-28.75,3.38-6.8,1.59-13.24,8.52-14.35,15.43-.55,3.43-.41,6.6-.28,9.67.05,1.09.09,2.13.1,3.15l.15,12.57v.07s0,.07,0,.07l.31,7.63v7.51s0,.14,0,.14v.14s.95,16.94.95,16.94c.25,4.5.23,9.14.21,13.62-.02,3.72-.04,7.56.1,11.37l.37,10.62v.19s.03.19.03.19l1.05,9.43.38,24.49c.13,8.18.55,15.8,1.01,23.87.11,1.99.23,4,.33,6.02l.97,18.11c.37,6.87,1.87,13.82,4.23,19.58l7.24,17.67.09.21.1.2,2.45,4.71,4.26,8.71,3.93,9.15c3.07,7.15,8.72,12.8,15.51,15.52,2.91,1.17,6.15,1.71,10.19,1.71,1.79,0,3.52-.1,5.19-.2l1.07-.06,5.97-.33c5.11-.28,11-.88,16.22-4.51,2.91-2.03,6.53-5.81,8.03-9.71l5.2-13.51.03-.08.03-.08,2.45-7.11.05-.13.04-.14,2.8-9.91,4.47-15.01.12-.39.05-.41,2.55-20.12.05-.38v-.39s-.34-11.37-.34-11.37v-.22s-.03-.22-.03-.22l-1.03-8.7v-.12s-.03-.12-.03-.12l-1.25-7.42-1.35-10.73-.91-7.59-2.14-17.66-1.35-13.73v-.03s0-.03,0-.03l-1.8-16.27v-.09s-.02-.09-.02-.09l-3.1-21.1-.69-6.4-1.4-12.32-1.27-12.04-1.63-16.76-.03-.29-.06-.29-2.94-13.49c-2.91-13.34-20.79-13.34-26.67-13.34h0ZM441.02,129.61l21.79-1.46c.23.01.59.09.95.19l1.28,9,.72,7.09v.12s.03.12.03.12l2.52,16.58.99,8.25,1.56,14.49,1.12,10.26.56,5.47.84,7.96c.11,1.02.21,2.03.31,3.03.58,5.7,1.12,11.08,2.38,16.88l1.66,13.49,1.42,12.33.65,7.06.84,16.11-.34,8.75c-.06,1.66-.79,3.7-1.57,5.86-.56,1.55-1.13,3.16-1.53,4.83l-1.25,5.19c-.25,1.05-.46,1.98-.65,2.88-.41,1.86-.73,3.34-1.3,4.95l-4.76,13.32c-.14.39-.28.79-.42,1.19-1.4,4.03-2.48,6.7-4.67,7.19-2.24.5-4.82.74-7.89.74-1.64,0-3.44-.07-5.57-.21-.29-.44-.63-1.03-.84-1.4-.26-.45-.51-.88-.77-1.29-3.69-5.64-6.51-11.78-8.61-18.78-.7-2.33-1.79-4.42-2.96-6.63-1.51-2.88-3.23-6.14-4.54-10.86l-2.96-10.64-1.11-6.31-1.11-13.34-.28-17.5v-.03s0-.03,0-.03l-.26-8.72-.53-13.42v-.06s0-.06,0-.06l-.85-13.42-.11-28.44v-.29s-.03-.28-.03-.28l-.68-5.69-.68-15-.1-11.3v-.03s0-.03,0-.03l-.16-7.67-.05-8.31,3.59-.9,13.38-1.23h0Z"/>
      </g>
      <g>
        <path class="cls-2" d="M549.43,387.17c-2.06,0-4.09-.26-6.01-.77l-.27-.07-.25-.13c-1.93-1-4.34-2.75-7.36-5.35-1.02-.84-2.09-1.69-3.17-2.54-3.83-3.04-7.8-6.19-11.16-10.22l-.2-.24-3.66-7.65-.76-9.47,10.31-29.15,9.41-22.16c.15-.35.29-.7.43-1.04.66-1.59,1.28-3.1,2.37-4.72l4.58-6.8,7.56-8.5,16.33-17.06,5.36-5.5,13.84-14.99,10.92-11.63,4.84-5.22,12.05-12.65,9.31-9.61,9.73-9.96,32.25-33.1c4.1-4.21,8.86-6.52,13.42-6.52,2.74,0,5.36.8,7.79,2.39l7.66,4.99,8.97,7.98c4.32,2.49,7.38,5.42,10.63,8.51.6.57,1.21,1.16,1.84,1.75l15.38,14.43,2.93,8.32c1.1,3.12.77,8.46-1.46,11.14l-10.08,12.14-12.25,14.42c-1.24,2.73-2.98,5.14-5.31,7.37-1.58,1.5-2.9,3.2-4.29,5-.44.57-.89,1.15-1.35,1.72l-6.98,8.72-4.82,5.8-12.23,15.16-18.25,21.36-3.66,4.59-3.38,4.48-8.97,10.38c-.83.96-1.5,2.01-2.21,3.12-1.21,1.9-2.47,3.86-4.62,5.57-1.3,1.03-2.63,2.71-3.87,4.37l-3.69,4.93c-4.24,5.67-9.46,12.03-15.96,16.23l-12.85,8.31-5.8,3.78-14.27,7.03-3.8,1.93-10.49,5.34c-4.96,2.52-9.84,3.8-14.49,3.8ZM554.58,310.71c-1.96,3.86-3.26,7.71-3.97,11.76l-.07.41-3.05,5.56c-1.05,1.91-1.55,3.94-2.08,6.08-.34,1.38-.69,2.8-1.2,4.3l-2.28,6.65c-.12.36-.29.79-.48,1.27-1.51,3.82-1.27,4.6-1.1,4.76l11.56,10.82c.26.24.75.29,1.13.29.98,0,2.29-.33,3.79-.96l12.34-5.19,5.04-2.73,5.78-3.25,4.53-2.34,8.6-4.66c2.21-1.19,4.55-2.54,6.7-4.27l6.67-5.35,4.39-4.66,6.07-6.75,7.27-9.04,7.69-8.87c.9-1.03,1.67-2.13,2.5-3.29,1.33-1.87,2.7-3.8,4.64-5.54,1.75-1.57,3.09-3.53,4.51-5.6.81-1.19,1.66-2.42,2.59-3.58l11.37-14.15,10.54-12.93,7.69-9.5,10-11.46,8.61-10.54,10.24-12.86c.62-.78.7-1.22-.09-2.11l-3.76-4.23-13.69-12.7-6.66-5.34-9.88-7.65c-.24-.18-.4-.21-.52-.21-.47,0-1.18.41-1.79,1.05l-27.88,28.83-11.48,11.79-19.11,19.97-10.58,11.08-8.47,8.9-11.54,12.81-9.47,10.17c-3.77,4.05-6.31,7.39-8.49,11.14l-3.71,6.41-2.89,5.7Z"/>
        <path class="cls-2" d="M679.32,154.62c2.15,0,4.32.61,6.43,1.99l7.5,4.89,9.02,8.03c4.95,2.81,8.16,6.23,12.23,10.05l14.94,14.01,2.72,7.74c.83,2.36.59,6.77-1.03,8.72l-10.08,12.14-12.47,14.67c-1.14,2.62-2.75,4.86-4.9,6.9-2.23,2.13-3.95,4.56-5.87,6.96l-6.98,8.72-4.79,5.76-12.25,15.19-18.2,21.31-3.71,4.65-3.37,4.46-8.92,10.32c-2.41,2.79-3.48,5.97-6.5,8.38-1.59,1.26-3.09,3.19-4.31,4.82l-3.69,4.93c-4.29,5.72-9.31,11.74-15.31,15.63l-12.85,8.31-5.68,3.7-14.14,6.97-3.83,1.94-10.49,5.34c-4.17,2.12-8.75,3.53-13.36,3.53-1.8,0-3.59-.21-5.37-.69-2.22-1.15-4.9-3.32-6.88-5.03-4.82-3.96-9.93-7.53-14.04-12.47l-3.32-6.95-.68-8.48,10.11-28.58,9.38-22.09c.82-1.93,1.4-3.6,2.57-5.34l4.49-6.66,7.45-8.38,9.93-10.37,6.34-6.62,5.34-5.48,13.88-15.04,10.91-11.61,4.85-5.23,12.03-12.62,9.29-9.6,9.72-9.95,32.25-33.1c3.37-3.46,7.45-5.77,11.63-5.77M553.04,365.11c1.66,0,3.48-.62,4.76-1.16l12.45-5.24,5.15-2.78,5.82-3.27,4.45-2.3,8.65-4.68c2.49-1.35,4.84-2.72,7.08-4.51l6.8-5.46,4.51-4.78,6.16-6.84,7.32-9.09,7.63-8.8c2.46-2.84,4.05-6.04,6.91-8.6,3.07-2.75,4.93-6.43,7.38-9.48l11.37-14.15,10.53-12.91,7.7-9.51,9.94-11.39,8.66-10.6,10.26-12.88c1.46-1.84,1.34-3.62-.17-5.33l-3.84-4.32-13.84-12.84-6.73-5.4-9.92-7.68c-.66-.51-1.36-.73-2.05-.73-1.3,0-2.58.77-3.59,1.81l-27.88,28.83-11.48,11.79-19.12,19.98-10.58,11.08-8.47,8.91-11.59,12.85-9.44,10.14c-3.44,3.7-6.28,7.2-8.82,11.59l-3.75,6.47-2.92,5.76c-2.04,4.03-3.44,8.11-4.2,12.45l-2.85,5.2c-1.92,3.49-2.16,7.01-3.45,10.77l-2.28,6.65c-.71,2.07-3.08,6.65-.92,8.67l11.56,10.82c.75.71,1.76.97,2.84.97M679.32,149.62h0c-5.24,0-10.64,2.59-15.21,7.28l-32.25,33.1-9.72,9.95-9.31,9.61-12.06,12.65-.02.03-.02.03-4.85,5.23-10.88,11.59-13.87,15.03-5.3,5.43-6.37,6.65-9.93,10.37-.06.07-.06.07-7.45,8.38-.22.25-.19.28-4.49,6.66c-1.24,1.84-1.94,3.53-2.61,5.16-.14.33-.28.67-.42,1.01l-9.38,22.09-.06.14-.05.15-10.11,28.58-.35,1,.08,1.06.68,8.48.07.92.4.84,3.32,6.95.27.56.4.48c3.52,4.24,7.59,7.47,11.53,10.59,1.04.82,2.11,1.67,3.14,2.52,3.15,2.71,5.7,4.55,7.8,5.64l.49.25.53.14c2.14.57,4.37.85,6.65.85,5.05,0,10.31-1.37,15.63-4.08l10.49-5.34,3.79-1.92,14.12-6.96.27-.13.25-.16,5.68-3.7,12.84-8.3c6.83-4.42,12.23-10.99,16.6-16.83l3.69-4.93c.71-.95,2.2-2.93,3.42-3.91,2.48-1.97,3.91-4.21,5.17-6.18.66-1.03,1.28-2.01,2-2.84l8.92-10.32.11-.12.1-.13,3.34-4.41,3.62-4.53,18.15-21.25.05-.05.04-.05,12.23-15.16,4.77-5.73.03-.04.03-.04,6.98-8.72c.47-.58.92-1.17,1.37-1.75,1.34-1.72,2.61-3.35,4.05-4.73,2.47-2.36,4.35-4.93,5.71-7.82l12.02-14.14.02-.02.02-.02,10.08-12.14c2.9-3.49,3.24-9.76,1.9-13.57l-2.72-7.74-.41-1.15-.89-.84-14.94-14.01c-.63-.59-1.24-1.17-1.83-1.74-3.3-3.15-6.43-6.13-10.88-8.74l-8.64-7.69-.28-.25-.31-.2-7.5-4.89c-2.85-1.86-5.93-2.8-9.16-2.8h0ZM592.54,266.16l8.43-8.86,10.57-11.07,19.12-19.98,11.45-11.76,27.79-28.74,8.97,6.95,6.55,5.26,13.54,12.56,3.21,3.62-9.77,12.27-8.59,10.51-9.89,11.33-.06.07-.06.07-7.7,9.51-10.52,12.9-11.39,14.17c-.99,1.24-1.86,2.51-2.71,3.74-1.33,1.94-2.58,3.78-4.11,5.15-2.15,1.92-3.67,4.06-5.01,5.95-.79,1.11-1.53,2.16-2.35,3.1l-7.63,8.8-.06.07-.06.07-7.23,8.98-6.03,6.7-4.23,4.49-6.53,5.24c-2,1.6-4.22,2.88-6.33,4.02l-8.6,4.66-4.41,2.28-.08.04-.08.04-5.78,3.25-4.9,2.65-12.22,5.14c-1.42.6-2.28.73-2.66.76l-10.37-9.7c.19-.85.7-2.12.94-2.74.19-.48.37-.94.52-1.38l2.28-6.65c.55-1.6.91-3.08,1.27-4.51.51-2.07.95-3.85,1.84-5.48l2.85-5.2.4-.73.14-.82c.67-3.8,1.89-7.42,3.73-11.06l2.86-5.63,3.68-6.35c2.08-3.59,4.52-6.79,8.16-10.69l9.44-10.14.03-.03.03-.03,11.54-12.81h0Z"/>
      </g>
      <g>
        <path class="cls-2" d="M536.14,262.14c-1.57,0-2.94-.33-4.09-.98-3.11-1.77-5.9-4.82-7.47-7.09-1.84-2.67-2.32-6.02-2.75-8.98-.09-.66-.19-1.31-.29-1.92l-1.21-7-1.05-7.47-6.46-37.07-1.34-9.27-1.63-8.61-1.71-11.42-1.33-9.13-1.28-7.66-1.57-12.63-1.67-8.33c-2.47-12.27-3.74-22.26-4-31.44-.09-3.26,1.03-6.18,3.24-8.46,2.36-2.43,5.74-3.83,9.25-3.83.47,0,.94.03,1.4.08l6.69.73,12.71,1.9,6.3,1.11,8.74,1.67,16.75,3.8,10.31,2.75c.89.24,1.7.44,2.47.63,1.85.46,3.6.9,5.71,1.63l12.79,4.44,5.05,1.48,5.98,2.74,23.6,9.9,3.89,2.12c5.57,2.17,11.13,4.97,18.01,9.06l1.15.68c4.65,2.73,9.45,5.55,11.71,11.95l.17.49-.51,7.21-25.06,25.31-10.48,9.1-8.13,7.76-23.31,22.74-7.47,6.36-11.19,11.03-7.2,7.25-8.78,9-6.58,5.49-10.46,9.58c-2.11,1.93-5.77,3.28-8.9,3.28ZM524.86,138.93l1.69,10.79,3.39,17.84,1.04,7.89,3.36,22.97,1.45,9.22,4.3,28.74c.05.19.24.5.46.77l9.4-9.2,7.61-7.68,8.78-8.75,7.76-7.66,16.86-15.96,19.02-18.59,8.3-8.4,6.4-6.52-2.49-1.23-5.66-3.19c-2.67-1.5-5.26-2.52-8.26-3.69l-5.16-2.02c-1.62-.63-3.12-1.34-4.58-2.02-2.13-1-4.14-1.94-6.36-2.6l-.22-.07-.21-.11c-3.48-1.81-7.02-2.93-10.85-3.44l-.49-.06-.43-.25c-4.07-2.34-8.98-3.9-15.45-4.91l-.37-.06-.33-.16c-3.24-1.56-6.62-2.33-10.19-3.14l-1.57-.36-5.46-1.26-18.77-4-5.21-.96c-.28-.05-.59-.09-.87-.1-.01.15-.02.29,0,.38l1.08,8.53,2.03,9.25Z"/>
        <path class="cls-2" d="M510.77,83.35c.38,0,.75.02,1.13.06l6.59.71,12.71,1.9,6.24,1.1,8.7,1.66,16.67,3.79,10.22,2.73c3.01.81,5.15,1.22,8.01,2.22l12.85,4.46,4.94,1.44,5.82,2.67,23.56,9.89,3.92,2.13c6.26,2.43,11.94,5.46,17.79,8.94,4.88,2.91,9.66,5.3,11.78,11.31l-.41,5.76-24.35,24.58-10.45,9.08-8.18,7.8-23.27,22.7-7.47,6.37-11.25,11.1-7.22,7.27-8.7,8.93-6.53,5.44-10.5,9.62c-1.52,1.4-4.56,2.63-7.21,2.63-1.05,0-2.04-.2-2.85-.65-2.44-1.39-5.01-3.97-6.64-6.34-1.89-2.73-2.09-6.76-2.63-9.9l-1.21-7-1.04-7.39-6.47-37.15-1.34-9.26-1.64-8.67-1.69-11.32-1.33-9.12-1.27-7.61-1.58-12.72-1.69-8.42c-2.07-10.3-3.66-20.72-3.96-31.02-.17-6,4.87-9.71,9.99-9.71M540.91,240.21s.08,0,.11,0l10.69-10.46,7.64-7.71,8.77-8.73,7.75-7.65,16.82-15.93,19.05-18.61,8.33-8.44,8.82-8.98-5.52-2.74-5.6-3.16c-3.01-1.69-5.91-2.79-9.17-4.07l-4.57-1.79c-3.86-1.51-7.14-3.49-11.13-4.69-3.59-1.87-7.45-3.14-11.67-3.7-4.94-2.84-10.5-4.3-16.31-5.21-3.98-1.92-7.96-2.68-12.28-3.68l-5.46-1.26-18.82-4.01-5.28-.97c-.44-.08-1.02-.15-1.58-.15-.68,0-1.32.1-1.65.39-.49.45-.67,2.09-.58,2.8l1.1,8.65,2.04,9.28,1.68,10.72,3.39,17.85,1.03,7.82,1.55,10.54,1.82,12.47,1.45,9.25,4.3,28.73c.2,1.35,1.94,3.45,3.28,3.45M510.77,78.35h0c-4.19,0-8.22,1.67-11.05,4.58-2.65,2.73-4.05,6.38-3.94,10.27.27,9.32,1.56,19.44,4.05,31.86l1.66,8.24,1.56,12.54v.1s.03.1.03.1l1.27,7.56,1.32,9.07,1.69,11.34v.1s.03.09.03.09l1.62,8.56,1.33,9.15v.07s.02.07.02.07l6.46,37.07,1.03,7.31v.08s.02.08.02.08l1.21,7c.1.59.19,1.21.28,1.84.44,3.07.99,6.9,3.16,10.05,1.73,2.5,4.81,5.87,8.29,7.85,1.53.87,3.32,1.3,5.32,1.3,3.76,0,8.01-1.58,10.59-3.94l10.42-9.54,6.44-5.37.2-.17.18-.18,8.7-8.93,7.17-7.22,11.1-10.95,7.33-6.25.13-.11.12-.12,23.25-22.68,8.07-7.7,10.36-9,.14-.12.13-.13,24.35-24.58,1.3-1.32.13-1.85.41-5.76.07-1.04-.35-.98c-2.56-7.26-8-10.45-12.8-13.27-.38-.22-.76-.44-1.14-.67-6.94-4.13-12.58-6.97-18.23-9.19l-3.64-1.98-.22-.12-.23-.1-23.48-9.86-5.74-2.63-.33-.15-.35-.1-4.82-1.41-12.73-4.42c-2.22-.77-4.02-1.22-5.92-1.7-.76-.19-1.56-.39-2.44-.63l-10.22-2.73-.09-.02-.09-.02-16.67-3.79-.08-.02-.08-.02-8.7-1.66h-.03s-.04-.01-.04-.01l-6.24-1.1h-.07s-.07-.02-.07-.02l-12.71-1.9h-.1s-.1-.03-.1-.03l-6.59-.71c-.55-.06-1.11-.09-1.67-.09h0ZM525.29,129.25l-.69-5.48,2.78.51,18.71,3.98,5.42,1.25c.53.12,1.06.24,1.58.36,3.58.81,6.67,1.51,9.66,2.95l.67.32.73.11c6.16.96,10.79,2.42,14.59,4.6l.85.49.98.13c3.53.47,6.81,1.51,10.03,3.18l.42.22.45.14c2.05.62,3.97,1.52,6.02,2.47,1.49.7,3.03,1.42,4.73,2.08l4.57,1.79.59.23c2.91,1.14,5.43,2.12,7.94,3.54l5.2,2.93-4.02,4.09-8.29,8.39-18.99,18.55-16.79,15.9-.04.04-.04.04-7.75,7.65-8.78,8.75-7.63,7.71-6.18,6.04-3.73-24.96-1.45-9.25-1.82-12.44-1.54-10.51-1.03-7.78-.02-.14-.03-.14-3.38-17.77-1.67-10.64-.02-.15-.03-.15-1.99-9.06h0Z"/>
      </g>
      <g>
        <path class="cls-2" d="M660.78,372.31c-5.58-.3-9.45-3.38-11.5-9.15-2.32-6.52.66-11.15,3.1-14.07l7.08-8.46c1.72-2.06,2.95-4.04,3.74-6.06l.19-.47.35-.36c.46-.47.95-.95,1.44-1.44,1.97-1.95,4.01-3.97,5.02-5.93.2-.39.37-.77.54-1.13.6-1.29,1.27-2.75,2.65-3.93,2.18-1.87,3.67-4.14,5.25-6.55.63-.96,1.28-1.96,1.99-2.93l7.73-10.71,7.47-8.78,4.36-6.08,8.91-11.55,8.77-11.61,7.28-10.07,9.63-12.43,7.39-8.99,8.42-9.52c2.1-2.37,4.87-3.67,7.81-3.67,2.65,0,5.25,1.08,7.31,3.05.49.46,1.02.95,1.57,1.45,1.94,1.78,4.15,3.79,5.49,5.86l4.66,7.19,5.14,7.9,4.02,6.14,4.65,6.95,5.59,8.29,3.76,7.97,3.61,7.63,2.99,5.17,8.34,17.67,5.25,11.99,5.68,15.44,6.44,21.63c.95,3.21.27,6.55-1.98,9.66-2.62,3.63-7.1,6.44-10.43,6.54l-22.73.71-31.6.96-53.17,1-42.8,1.2-9.42-.51ZM674.75,352.48l64.68-1.4,25.84-.71,26.04-.61c.11,0,.29-.04.5-.08l-3.54-12.08-2.24-4.35-.06-.21c-2.05-6.58-4.58-12.89-8.45-21.1l-6.28-13.32-2.25-3.78c-1.43-2.39-2.57-4.72-3.68-6.97-.93-1.89-1.89-3.84-3.01-5.81l-3.38-5.95-3.21-5.25c-2.57-4.2-5.52-7.91-9.4-11.8l-8.62,10.84c-1.12,1.41-2.29,2.7-3.43,3.94-2.19,2.4-4.25,4.67-5.75,7.58l-.13.24-5.68,6.82c-1.64,3.24-3.2,5.96-6.43,8.72-.82.7-1.33,1.72-1.93,2.91-.56,1.1-1.19,2.35-2.16,3.5l-6.04,7.21c-.58.7-.99,1.54-1.43,2.44-.56,1.16-1.2,2.47-2.31,3.66l-4.82,5.15-4.91,6.33-9.04,11.45-6.23,8.34-.72.96c-.84,1.11-1.65,2.18-2.4,3.32.03,0,.48,0,.48,0Z"/>
        <path class="cls-2" d="M758.38,220.91c1.96,0,3.94.79,5.58,2.36,2.14,2.04,5.17,4.52,6.69,6.86l4.66,7.19,5.15,7.91,4.03,6.14,4.67,6.97,5.49,8.14,3.68,7.79,3.66,7.73,2.99,5.16,8.3,17.57,5.19,11.86,5.63,15.29,6.41,21.56c2.01,6.77-6.3,12.88-10.08,13l-22.73.71-31.59.96-53.14,1-42.72,1.2-9.32-.5c-4.79-.26-7.67-2.96-9.28-7.49-1.59-4.46-.35-8.03,2.66-11.62l7.08-8.46c1.72-2.06,3.19-4.3,4.15-6.75,2.36-2.41,5.42-5.12,6.89-7.98.86-1.66,1.31-3.2,2.6-4.3,3.4-2.91,5.23-6.58,7.64-9.92l7.67-10.63,7.47-8.78,4.42-6.17,8.85-11.48,8.78-11.63,7.31-10.11,9.58-12.36,7.34-8.93,8.37-9.46c1.67-1.89,3.8-2.83,5.94-2.83M674.38,354.98c.14,0,.28,0,.43,0l64.68-1.4,25.86-.71,26.03-.61c.57-.01,1.75-.29,2.23-.48.47-.19.91-1.8.77-2.28l-3.76-12.83-2.25-4.37c-2.37-7.58-5.23-14.32-8.57-21.42l-6.33-13.43-2.32-3.88c-2.56-4.29-4.17-8.33-6.67-12.73l-3.38-5.95-3.26-5.32c-3.25-5.31-6.97-9.68-11.77-14.21l-10.34,13c-3.23,4.06-6.97,7.13-9.44,11.93l-5.69,6.82c-1.69,3.37-3.1,5.76-5.95,8.2-2.12,1.81-2.58,4.56-4.38,6.71l-6.04,7.21c-1.62,1.93-2.01,4.24-3.65,6l-4.9,5.24-4.98,6.43-9.02,11.43-6.27,8.39c-1.73,2.32-3.43,4.42-4.83,7.19,1.15.9,2.41,1.09,3.82,1.09M758.38,215.91c-3.67,0-7.1,1.6-9.68,4.52l-8.37,9.46-.06.07-.06.07-7.34,8.93-.05.06-.04.06-9.58,12.36-.05.07-.05.07-7.28,10.07-8.75,11.58-8.82,11.44-.05.07-.05.07-4.29,6-7.34,8.62-.13.15-.12.16-7.67,10.63c-.74,1.02-1.41,2.04-2.05,3.03-1.48,2.25-2.87,4.38-4.79,6.02-1.79,1.53-2.62,3.33-3.29,4.77-.16.34-.31.68-.5,1.04-.83,1.61-2.81,3.57-4.56,5.31-.51.5-1,.99-1.47,1.47l-.71.72-.37.94c-.69,1.77-1.78,3.52-3.33,5.37l-7.08,8.46c-4.45,5.31-5.6,10.71-3.54,16.51,3.02,8.48,9.13,10.56,13.72,10.81l9.32.5h.21s.21,0,.21,0l42.72-1.2,53.1-1h.03s.03,0,.03,0l31.59-.96,22.73-.71c4.09-.13,9.3-3.32,12.38-7.58,2.68-3.71,3.51-7.92,2.34-11.84l-6.41-21.56-.05-.15-.05-.15-5.63-15.29-.05-.14-.06-.14-5.19-11.86-.03-.07-.03-.06-8.3-17.57-.09-.19-.11-.18-2.89-4.98-3.57-7.54-3.68-7.79-.16-.34-.21-.32-5.49-8.14-4.66-6.96-4-6.1-5.14-7.89-4.65-7.18c-1.52-2.34-3.85-4.47-5.9-6.35-.54-.49-1.06-.96-1.53-1.42-2.53-2.41-5.74-3.74-9.03-3.74h0ZM724.81,289.87l5.32-6.39.35-.42.25-.49c1.35-2.62,3.22-4.67,5.38-7.04,1.16-1.27,2.36-2.59,3.53-4.07l6.84-8.6c2.8,3.03,5.07,6.02,7.09,9.31l3.21,5.25,3.34,5.88c1.08,1.91,1.99,3.74,2.94,5.68,1.13,2.3,2.3,4.67,3.78,7.15l2.19,3.67,6.22,13.21c3.82,8.1,6.3,14.31,8.32,20.78l.13.41.2.39,2.03,3.95,2.58,8.79-23.29.55-25.88.71-60.09,1.3c.04-.06.09-.12.13-.18l6.24-8.34,8.98-11.38,4.86-6.28,4.74-5.07c1.37-1.46,2.13-3.02,2.74-4.28.38-.79.71-1.46,1.1-1.92l6.04-7.21c1.16-1.38,1.89-2.82,2.47-3.98.48-.95.89-1.77,1.33-2.14,3.49-2.98,5.24-5.96,6.91-9.24h0Z"/>
      </g>
      <g>
        <path class="cls-2" d="M368.16,263.58c-1.61,0-3.44-.22-5.93-.71-2.43-.48-4.06-2.05-5.95-3.87-1.76-1.69-3.94-3.8-7.63-5.99-3.51-2.09-5.78-4.52-7.79-6.67-1.94-2.08-3.62-3.87-6.05-4.98-3.13-1.42-4.85-3.16-6.52-4.85-.7-.71-1.42-1.44-2.27-2.15l-14.62-12.43-13.21-10.86-7.81-6.2-8.46-7.24-4.04-2.91c-2.62-1.89-5.11-4.05-7.53-6.15-1.95-1.69-3.79-3.3-5.69-4.76l-7.65-5.89c-1.44-1.1-2.76-2.41-4.04-3.67-1.31-1.29-2.55-2.51-3.84-3.48-.86-.64-1.77-1.23-2.72-1.86-2.94-1.92-5.99-3.9-7.94-7.56-2.99-5.6-2.01-10.98,2.67-14.76l4.42-3.57,8.16-5.36,6.07-3.93,5.77-3.67,8.39-5.58c2.29-1.52,4.94-2.81,7.5-4.06,1.08-.52,2.15-1.04,3.17-1.57l15.37-7.96c3.81-1.97,7.61-3.61,11.64-5.01,1.1-.38,2.29-1.04,3.54-1.73,1.29-.71,2.63-1.45,4.05-1.98l13.11-4.94c.92-.35,1.83-.7,2.74-1.04,4.09-1.57,7.95-3.05,12.32-4.19,2.49-.65,5-1.45,7.42-2.23,4.2-1.34,8.53-2.73,13.17-3.48.73-.12,1.49-.18,2.26-.18,5.09,0,11.06,2.73,12.14,8.71,1.14,6.34.92,12.65.71,18.75-.12,3.35-.24,6.81-.12,10.18l.4,11.58c.02.46.04.93.06,1.39.09,1.94.19,3.96-.13,6-.37,2.35-.33,4.61-.29,7,.02,1.15.04,2.31.01,3.49l-.27,12.66c.63,9.36.56,19-.21,31.24l-.02,5.76.6,12.5-.5,9.21-.33,23.14c-.05,4.6-.1,8.94-5.39,12.87-2.78,2.07-5.47,2.99-8.71,2.99ZM342.22,221.36l11.21,9.9,9.11,7.7-.22-12.23.64-20.77c.07-2.16-.05-4.19-.17-6.34-.09-1.55-.18-3.15-.2-4.79l-.09-10.25c-.01-1.62.06-3.23.14-4.78.14-2.76.27-5.36-.12-7.86l-.07-.46.1-.45c.47-2.17.73-4.38.82-6.96-.94-13.1-.93-24.59.02-36.09-.11-.34-.24-.64-.34-.86h0c-.28,0-.5.04-.57.05l-15.23,5.13c-12.24,4.13-30.92,11.78-42.99,18.82l-6.98,4.08-5.3,2.87-6.14,3.39c-.42.23-1.02.72-1.6,1.19-1.07.87-2.29,1.86-3.66,2.36-1.36.49-2.68,1.42-3.75,2.63,1.28,1.77,2.86,3.13,4.65,4.65.44.38.89.76,1.34,1.16l9.47,8.31c.58.51,1.1,1,1.59,1.46,1.33,1.24,2.29,2.14,3.93,2.99,3.21,1.65,5.82,4.08,8.34,6.42,1.51,1.4,2.93,2.73,4.42,3.83,4.87,3.62,8.9,6.7,12.81,10.62.71.71,1.64,1.26,2.72,1.89.65.38,1.32.77,2.04,1.25,3.19,2.14,5.86,4.67,8.44,7.12.5.48,1.01.96,1.52,1.44l4.11,2.59Z"/>
        <path class="cls-2" d="M370.2,88.61c4.29,0,8.89,2.24,9.68,6.65,1.71,9.53.22,19.06.55,28.57l.4,11.58c.08,2.3.31,4.66-.04,6.91-.58,3.74-.23,7.19-.31,10.82l-.28,12.78c.71,10.5.46,20.6-.21,31.1l-.02,5.9.6,12.44-.49,9.09-.13,8.41-.2,14.04c-.07,4.75.17,8.31-4.39,11.69-2.41,1.79-4.55,2.5-7.22,2.5-1.58,0-3.34-.25-5.44-.67-3.48-.69-5.04-4.96-12.79-9.56-6.58-3.91-8.45-9.22-14.09-11.78-3.95-1.79-5.27-4.14-8.2-6.63l-14.62-12.43-13.24-10.89-7.84-6.22-8.47-7.25-4.13-2.97c-4.55-3.28-8.76-7.47-13.16-10.86l-7.65-5.89c-2.71-2.09-5.14-5.1-7.91-7.17-3.56-2.66-7.72-4.41-9.95-8.59-2.29-4.29-1.95-8.42,2.04-11.64l4.33-3.5,8.06-5.29,6.05-3.92,5.75-3.66,8.44-5.61c3.09-2.06,7.02-3.73,10.43-5.49l15.37-7.96c3.68-1.9,7.33-3.49,11.31-4.87,2.53-.88,5.06-2.76,7.64-3.73l13.11-4.94c5-1.88,9.61-3.8,14.81-5.16,6.86-1.79,13.25-4.51,20.35-5.65.6-.1,1.23-.15,1.86-.15M362.59,241.67c1.12,0,2.49-.66,2.48-1.42l-.25-13.44.64-20.77c.12-3.91-.34-7.48-.37-11.23l-.09-10.25c-.04-4.39.65-8.75,0-12.99.54-2.49.79-4.88.88-7.53-.88-12.21-.99-24.04.05-36.32-.26-.91-.85-2.46-1.44-2.82-.31-.19-.87-.27-1.43-.27-.51,0-1.01.07-1.34.18l-15.25,5.14c-13.22,4.45-31.78,12.22-43.46,19.03l-6.98,4.08-5.23,2.82-6.16,3.4c-1.48.82-3.24,2.79-4.9,3.39-2.34.84-4.47,2.6-5.94,4.85,1.92,3.43,4.64,5.41,7.38,7.81l9.47,8.31c2.2,1.93,3.4,3.44,6.02,4.79,4.72,2.43,8.27,6.95,12.42,10.04,4.49,3.34,8.61,6.45,12.53,10.38,1.42,1.43,3.23,2.18,5.14,3.46,3.68,2.47,6.66,5.52,9.82,8.47l4.14,2.61,11.06,9.76,9.74,8.23c.26.22.65.32,1.07.32M370.2,83.61c-.9,0-1.79.07-2.66.21-4.82.78-9.25,2.19-13.53,3.56-2.5.8-4.86,1.55-7.29,2.19-4.5,1.18-8.6,2.75-12.58,4.27-.9.35-1.81.69-2.73,1.04l-13.11,4.94c-1.59.6-3.07,1.41-4.37,2.13-1.16.64-2.25,1.24-3.15,1.55-4.14,1.44-8.05,3.13-11.96,5.15l-15.37,7.96c-.98.51-2.02,1.01-3.11,1.54-2.63,1.28-5.36,2.61-7.79,4.22l-8.39,5.58-5.71,3.64-6.08,3.94-8.08,5.31-.21.14-.19.15-4.33,3.5c-5.62,4.54-6.86,11.23-3.31,17.88,2.25,4.22,5.72,6.48,8.78,8.48.92.6,1.8,1.17,2.59,1.77,1.16.86,2.33,2.02,3.58,3.25,1.34,1.32,2.72,2.68,4.27,3.87l7.65,5.89c1.84,1.42,3.66,2.99,5.58,4.66,2.46,2.13,4.99,4.34,7.71,6.29l3.95,2.85,8.3,7.12.07.06.07.06,7.81,6.2,13.18,10.83,14.59,12.41c.76.65,1.41,1.31,2.11,2.01,1.74,1.76,3.72,3.76,7.27,5.36,1.98.9,3.43,2.45,5.26,4.41,2.01,2.16,4.52,4.84,8.34,7.11,3.45,2.05,5.43,3.96,7.18,5.65,1.99,1.92,4.05,3.9,7.2,4.53,2.65.53,4.63.76,6.42.76,3.81,0,6.96-1.07,10.2-3.48,6.29-4.67,6.34-10.08,6.39-14.85v-.79s.21-14.04.21-14.04l.12-8.3.48-8.99v-.25s0-.25,0-.25l-.59-12.31.02-5.62c.78-12.27.84-21.97.21-31.38l.27-12.55c.03-1.24,0-2.43-.01-3.58-.04-2.28-.07-4.44.26-6.57.36-2.29.25-4.53.16-6.5-.02-.45-.04-.91-.06-1.36l-.4-11.58c-.11-3.28,0-6.54.12-10,.22-6.23.44-12.68-.75-19.28-1.14-6.34-7.14-10.77-14.6-10.77h0ZM280.34,167.89c.36-.22.72-.4,1.09-.54,1.77-.64,3.22-1.82,4.39-2.77.4-.32,1-.82,1.23-.94l6.16-3.4,5.19-2.8.07-.04.07-.04,6.98-4.08c11.92-6.96,30.4-14.53,42.53-18.61l12.65-4.26c-.75,10.72-.69,21.53.17,33.71-.09,2.39-.33,4.37-.76,6.39l-.2.9.14.91c.34,2.24.22,4.73.09,7.36-.08,1.59-.16,3.23-.14,4.93l.09,10.25c.02,1.7.11,3.33.2,4.91.12,2.09.23,4.07.17,6.12l-.64,20.77v.12s0,.12,0,.12l.12,6.58-4.9-4.14-11.02-9.73-.3-.27-.34-.22-3.74-2.35c-.45-.42-.89-.84-1.33-1.26-2.66-2.52-5.4-5.13-8.77-7.39-.78-.52-1.51-.95-2.16-1.33-.97-.57-1.73-1.02-2.21-1.5-4.03-4.05-8.14-7.18-13.09-10.86-1.38-1.03-2.76-2.3-4.21-3.66-2.52-2.35-5.39-5-8.9-6.81-1.33-.68-2.09-1.4-3.36-2.59-.48-.45-1.03-.96-1.65-1.51l-9.47-8.31c-.46-.4-.92-.79-1.37-1.18-1.03-.88-1.95-1.67-2.77-2.49h0Z"/>
      </g>
    </g>
    <circle class="cls-2" cx="462.5" cy="465.4" r="61.44"/>
  </g>
  <g>
    <path class="cls-2" d="M1219.52,513.17c-38.36,0-71.93-7.02-100.7-21.04-28.77-14.03-51.06-33.57-66.87-58.61-15.81-25.04-23.71-54.08-23.71-87.11s5.77-62.69,17.32-90.04c11.54-27.35,27.79-50.96,48.75-70.86,20.95-19.89,45.82-35.25,74.59-46.09,28.77-10.83,60.38-16.25,94.84-16.25s67.67,6.39,95.37,19.18c27.71,12.79,48.3,31.26,61.8,55.41l-90.58,70.86c-7.82-13.85-17.94-24.59-30.37-32.23-12.44-7.63-27.17-11.46-44.22-11.46-14.92,0-28.5,2.76-40.76,8.26-12.25,5.51-22.83,13.32-31.7,23.44-8.88,10.12-15.81,22.11-20.78,35.96-4.98,13.85-7.46,29.13-7.46,45.82,0,14.57,3.2,27.36,9.59,38.36,6.39,11.01,15.36,19.54,26.91,25.57,11.54,6.04,24.95,9.06,40.23,9.06s28.85-3.37,42.89-10.12c14.03-6.74,27.44-17.76,40.23-33.03l74.06,70.86c-22.74,27.71-48.04,46.98-75.92,57.81-27.89,10.83-59.06,16.25-93.51,16.25Z"/>
    <path class="cls-2" d="M1390.54,504.64l74.59-372.96h125.74l-54.88,275.45h168.36l-19.71,97.5h-294.1Z"/>
    <path class="cls-2" d="M1848.2,409.81h187.01l-19.18,94.84h-310.09l74.59-372.96h303.16l-19.18,94.84h-179.55l-36.76,183.28ZM1867.92,270.21h166.23l-18.12,90.57h-166.23l18.12-90.57Z"/>
    <path class="cls-2" d="M2051.19,504.64l74.59-372.96h102.3l99.63,243.49h-54.35l191.81-243.49h107.09l-73.53,372.96h-114.55l38.89-200.33,18.11-1.07-128.94,167.83h-55.41l-72.46-168.36,21.31,1.6-39.96,200.33h-114.55Z"/>
    <path class="cls-2" d="M2688.41,409.81h187.01l-19.18,94.84h-310.09l74.59-372.96h303.16l-19.18,94.84h-179.55l-36.76,183.28ZM2708.12,270.21h166.23l-18.12,90.57h-166.23l18.12-90.57Z"/>
    <path class="cls-2" d="M2891.4,504.64l74.59-372.96h103.36l140.12,226.97h-43.69l45.29-226.97h122.54l-74.59,372.96h-103.36l-140.12-226.97h43.69l-45.29,226.97h-122.54Z"/>
    <path class="cls-2" d="M3387.42,504.64l54.88-275.46h-109.22l19.71-97.5h344.18l-19.71,97.5h-109.22l-54.88,275.46h-125.74Z"/>
    <path class="cls-2" d="M3641.56,504.64l74.59-372.96h125.74l-74.59,372.96h-125.74Z"/>
    <path class="cls-2" d="M3814.71,504.64l74.59-372.96h103.36l140.12,226.97h-43.69l45.29-226.97h122.54l-74.59,372.96h-103.36l-140.12-226.97h43.69l-45.29,226.97h-122.54Z"/>
    <path class="cls-2" d="M4372.01,409.81h187.01l-19.18,94.84h-310.09l74.59-372.96h303.16l-19.18,94.84h-179.55l-36.76,183.28ZM4391.72,270.21h166.23l-18.12,90.57h-166.23l18.12-90.57Z"/>
    <path class="cls-2" d="M1007.07,784.98l47.1-235.48h64.59l62.91,153.74h-34.31l121.1-153.74h67.62l-46.42,235.48h-72.33l24.56-126.49,11.44-.67-81.41,105.97h-34.99l-45.75-106.3,13.46,1.01-25.23,126.49h-72.33Z"/>
    <path class="cls-2" d="M1452.13,790.36c-24.45,0-45.58-4.49-63.41-13.46-17.83-8.97-31.62-21.36-41.38-37.17s-14.63-34.03-14.63-54.67,3.64-39.86,10.93-57.02c7.29-17.16,17.54-32.01,30.78-44.57,13.23-12.56,28.93-22.25,47.1-29.1,18.17-6.84,38.01-10.26,59.54-10.26,24.44,0,45.58,4.49,63.41,13.46,17.83,8.97,31.62,21.36,41.38,37.17s14.63,34.03,14.63,54.67-3.65,39.86-10.93,57.02c-7.29,17.16-17.55,32.02-30.78,44.57-13.24,12.56-28.93,22.26-47.1,29.1-18.17,6.84-38.01,10.26-59.54,10.26ZM1458.86,726.11c9.87,0,18.55-1.9,26.07-5.72,7.51-3.81,13.96-9.08,19.34-15.81,5.38-6.73,9.42-14.41,12.11-23.04,2.69-8.63,4.04-17.77,4.04-27.42s-1.85-17.21-5.55-24.05c-3.7-6.84-8.97-12.16-15.81-15.98-6.84-3.81-15.08-5.72-24.72-5.72s-18.28,1.91-25.9,5.72c-7.63,3.82-14.13,9.08-19.51,15.81-5.38,6.73-9.42,14.41-12.11,23.04-2.69,8.64-4.04,17.78-4.04,27.42,0,8.97,1.85,16.94,5.55,23.88,3.7,6.95,8.97,12.34,15.81,16.15,6.84,3.82,15.08,5.72,24.73,5.72Z"/>
    <path class="cls-2" d="M1644.22,784.98l34.65-173.92h-68.96l12.45-61.56h217.32l-12.45,61.56h-68.96l-34.65,173.92h-79.39Z"/>
    <path class="cls-2" d="M1933.86,790.36c-24.45,0-45.58-4.49-63.41-13.46-17.83-8.97-31.62-21.36-41.38-37.17-9.75-15.81-14.63-34.03-14.63-54.67s3.64-39.86,10.93-57.02c7.29-17.16,17.55-32.01,30.78-44.57,13.23-12.56,28.93-22.25,47.1-29.1,18.17-6.84,38.01-10.26,59.54-10.26,24.44,0,45.58,4.49,63.41,13.46,17.83,8.97,31.62,21.36,41.38,37.17,9.76,15.81,14.63,34.03,14.63,54.67s-3.65,39.86-10.93,57.02c-7.29,17.16-17.55,32.02-30.78,44.57-13.23,12.56-28.93,22.26-47.1,29.1-18.17,6.84-38.01,10.26-59.54,10.26ZM1940.59,726.11c9.87,0,18.55-1.9,26.07-5.72,7.51-3.81,13.96-9.08,19.34-15.81,5.38-6.73,9.42-14.41,12.11-23.04,2.69-8.63,4.04-17.77,4.04-27.42s-1.85-17.21-5.55-24.05c-3.7-6.84-8.97-12.16-15.81-15.98-6.84-3.81-15.09-5.72-24.72-5.72s-18.28,1.91-25.9,5.72c-7.63,3.82-14.13,9.08-19.51,15.81-5.38,6.73-9.42,14.41-12.11,23.04-2.69,8.64-4.04,17.78-4.04,27.42,0,8.97,1.85,16.94,5.55,23.88,3.7,6.95,8.97,12.34,15.81,16.15,6.84,3.82,15.08,5.72,24.73,5.72Z"/>
    <path class="cls-2" d="M2078.17,784.98l47.1-235.48h105.63c31.17,0,55.28,6.79,72.33,20.35,17.04,13.57,25.57,32.58,25.57,57.02,0,19.74-4.88,37-14.63,51.81-9.76,14.8-23.55,26.35-41.38,34.65-17.83,8.3-38.85,12.45-63.08,12.45h-76.03l42.39-33.3-18.5,92.51h-79.39ZM2174.05,701.89l-27.92-36h67.62c10.99,0,19.51-2.74,25.57-8.24,6.05-5.49,9.08-13.17,9.08-23.04,0-8.52-2.64-14.63-7.91-18.33-5.27-3.7-12.5-5.55-21.7-5.55h-61.56l42.39-37-25.57,128.17ZM2222.15,784.98l-48.44-85.78h81.75l49.11,85.78h-82.42Z"/>
    <path class="cls-2" d="M2413.9,790.36c-13.91,0-27.25-1.01-40.03-3.03s-24.39-4.88-34.82-8.58c-10.43-3.7-19.45-7.79-27.08-12.28l30.61-58.53c8.75,4.94,17.55,9.03,26.41,12.28,8.86,3.25,17.71,5.67,26.58,7.23,8.86,1.57,17.66,2.35,26.41,2.35,6.95,0,12.72-.56,17.32-1.68,4.59-1.12,8.07-2.74,10.43-4.88,2.35-2.13,3.53-4.54,3.53-7.23,0-3.58-2.02-6.5-6.06-8.75-4.04-2.24-9.37-4.26-15.98-6.05-6.62-1.79-13.91-3.64-21.87-5.55-7.96-1.9-15.98-4.37-24.05-7.4-8.07-3.03-15.42-6.9-22.03-11.61-6.62-4.71-11.94-10.65-15.98-17.83-4.04-7.17-6.06-15.92-6.06-26.24,0-17.94,4.76-33.53,14.3-46.76,9.53-13.23,23.21-23.49,41.04-30.78,17.83-7.29,39.08-10.93,63.75-10.93,17.49,0,33.81,1.74,48.95,5.21,15.14,3.48,28.2,8.47,39.19,14.97l-28.59,57.86c-9.42-5.83-19.68-10.2-30.78-13.12-11.1-2.91-22.37-4.37-33.81-4.37-7.63,0-14.02.73-19.17,2.19-5.16,1.46-9.03,3.42-11.61,5.89-2.58,2.47-3.87,5.05-3.87,7.74,0,3.59,2.02,6.56,6.05,8.92,4.04,2.35,9.42,4.37,16.15,6.06,6.73,1.68,14.07,3.48,22.03,5.38,7.96,1.91,15.92,4.26,23.88,7.06,7.96,2.81,15.31,6.51,22.03,11.1,6.73,4.6,12.11,10.43,16.15,17.49s6.06,15.76,6.06,26.07c0,17.49-4.83,32.8-14.47,45.92-9.65,13.12-23.38,23.38-41.21,30.78-17.83,7.4-38.97,11.1-63.41,11.1Z"/>
    <path class="cls-2" d="M2532.99,784.98l47.1-235.48h104.62c31.62,0,56.01,6.84,73.17,20.52,17.16,13.68,25.73,32.86,25.73,57.52,0,19.74-4.88,37.12-14.63,52.14-9.76,15.03-23.55,26.69-41.38,34.99-17.83,8.3-38.85,12.45-63.08,12.45h-76.03l42.39-34.65-18.5,92.51h-79.39ZM2628.86,701.89l-27.92-36h67.62c10.99,0,19.51-2.74,25.57-8.24,6.05-5.49,9.08-13.17,9.08-23.04,0-8.52-2.64-14.63-7.91-18.33-5.27-3.7-12.5-5.55-21.7-5.55h-61.56l42.39-37-25.57,128.17Z"/>
    <path class="cls-2" d="M2907.06,790.36c-24.45,0-45.58-4.49-63.41-13.46-17.83-8.97-31.62-21.36-41.38-37.17s-14.63-34.03-14.63-54.67,3.64-39.86,10.93-57.02c7.29-17.16,17.55-32.01,30.78-44.57,13.23-12.56,28.93-22.25,47.1-29.1,18.17-6.84,38.01-10.26,59.54-10.26,24.44,0,45.58,4.49,63.41,13.46,17.83,8.97,31.62,21.36,41.38,37.17,9.76,15.81,14.63,34.03,14.63,54.67s-3.65,39.86-10.93,57.02c-7.29,17.16-17.55,32.02-30.78,44.57-13.24,12.56-28.93,22.26-47.1,29.1-18.17,6.84-38.01,10.26-59.54,10.26ZM2913.79,726.11c9.87,0,18.55-1.9,26.07-5.72,7.51-3.81,13.96-9.08,19.34-15.81,5.38-6.73,9.42-14.41,12.11-23.04,2.69-8.63,4.04-17.77,4.04-27.42s-1.85-17.21-5.55-24.05c-3.7-6.84-8.97-12.16-15.81-15.98-6.84-3.81-15.09-5.72-24.73-5.72s-18.28,1.91-25.9,5.72c-7.63,3.82-14.13,9.08-19.51,15.81-5.38,6.73-9.42,14.41-12.11,23.04-2.69,8.64-4.04,17.78-4.04,27.42,0,8.97,1.85,16.94,5.55,23.88,3.7,6.95,8.97,12.34,15.81,16.15,6.84,3.82,15.08,5.72,24.73,5.72Z"/>
    <path class="cls-2" d="M3051.38,784.98l47.1-235.48h105.63c31.17,0,55.28,6.79,72.33,20.35,17.04,13.57,25.57,32.58,25.57,57.02,0,19.74-4.88,37-14.63,51.81-9.76,14.8-23.55,26.35-41.38,34.65-17.83,8.3-38.85,12.45-63.08,12.45h-76.03l42.39-33.3-18.5,92.51h-79.39ZM3147.25,701.89l-27.92-36h67.62c10.99,0,19.51-2.74,25.57-8.24,6.05-5.49,9.08-13.17,9.08-23.04,0-8.52-2.64-14.63-7.91-18.33-5.27-3.7-12.5-5.55-21.7-5.55h-61.56l42.39-37-25.57,128.17ZM3195.36,784.98l-48.44-85.78h81.75l49.11,85.78h-82.42Z"/>
    <path class="cls-2" d="M3341.36,784.98l34.65-173.92h-68.96l12.45-61.56h217.32l-12.45,61.56h-68.96l-34.65,173.92h-79.39Z"/>
    <path class="cls-2" d="M3595.34,790.36c-13.91,0-27.25-1.01-40.03-3.03s-24.39-4.88-34.82-8.58c-10.43-3.7-19.45-7.79-27.08-12.28l30.61-58.53c8.75,4.94,17.55,9.03,26.41,12.28,8.86,3.25,17.71,5.67,26.58,7.23,8.86,1.57,17.66,2.35,26.41,2.35,6.95,0,12.72-.56,17.32-1.68,4.59-1.12,8.07-2.74,10.43-4.88,2.35-2.13,3.53-4.54,3.53-7.23,0-3.58-2.02-6.5-6.06-8.75-4.04-2.24-9.37-4.26-15.98-6.05-6.62-1.79-13.91-3.64-21.87-5.55-7.96-1.9-15.98-4.37-24.05-7.4-8.07-3.03-15.42-6.9-22.03-11.61-6.62-4.71-11.94-10.65-15.98-17.83-4.04-7.17-6.06-15.92-6.06-26.24,0-17.94,4.76-33.53,14.3-46.76,9.53-13.23,23.21-23.49,41.04-30.78,17.83-7.29,39.08-10.93,63.75-10.93,17.49,0,33.81,1.74,48.95,5.21,15.14,3.48,28.2,8.47,39.19,14.97l-28.59,57.86c-9.42-5.83-19.68-10.2-30.78-13.12-11.1-2.91-22.37-4.37-33.81-4.37-7.63,0-14.02.73-19.17,2.19-5.16,1.46-9.03,3.42-11.61,5.89-2.58,2.47-3.87,5.05-3.87,7.74,0,3.59,2.02,6.56,6.05,8.92,4.04,2.35,9.42,4.37,16.15,6.06,6.73,1.68,14.07,3.48,22.03,5.38,7.96,1.91,15.92,4.26,23.88,7.06,7.96,2.81,15.31,6.51,22.03,11.1,6.73,4.6,12.11,10.43,16.15,17.49s6.06,15.76,6.06,26.07c0,17.49-4.83,32.8-14.47,45.92-9.65,13.12-23.38,23.38-41.21,30.78-17.83,7.4-38.97,11.1-63.41,11.1Z"/>
  </g>
</svg>